# Blender 4.2.3 LTS
# www.blender.org
o RIQ_link_3_joint_a_visuals_mesh_0
v 0.023199 0.007937 -0.010327
v 0.019131 0.007937 -0.010673
v 0.026052 0.007937 -0.010085
v 0.023199 0.007937 -0.010327
v 0.030899 0.007937 -0.009674
v 0.019131 0.007937 -0.010673
v 0.026052 0.007937 -0.010085
v 0.030899 0.007937 -0.009674
v 0.015075 0.007937 -0.011017
v 0.033647 0.007938 0.010751
v 0.033647 0.007938 0.010751
v 0.033666 0.007938 0.005303
v 0.033654 0.007938 0.008812
v 0.033666 0.007938 0.005303
v 0.033704 0.007938 -0.005285
v 0.033685 0.007938 -0.000048
v 0.033710 0.007937 -0.007056
v 0.033704 0.007938 -0.005285
v 0.033716 0.007937 -0.008793
v 0.033647 0.007938 0.010534
v 0.033647 0.007938 0.010534
v 0.033654 0.007938 0.008812
v 0.033685 0.007938 -0.000048
v 0.033710 0.007937 -0.007056
v 0.033716 0.007937 -0.008793
v 0.033718 0.007937 -0.009435
v 0.032456 0.007938 0.011093
v 0.032456 0.007938 0.011093
v 0.030858 0.007938 0.011178
v 0.030858 0.007938 0.011178
v 0.025118 0.007938 0.011482
v 0.014970 0.007938 0.012021
v 0.020255 0.007938 0.011741
v 0.025118 0.007938 0.011482
v 0.020255 0.007938 0.011741
v 0.033646 0.007938 0.011030
vn -0.0000 1.0000 -0.0000
s 0
f 24//1 25//1 8//1 7//1
f 5//1 19//1 26//1
f 4//1 18//1 17//1 3//1
f 2//1 16//1 15//1 1//1
f 35//1 14//1 23//1 6//1 9//1 32//1
f 34//1 13//1 12//1 33//1
f 21//1 22//1 31//1 30//1
f 11//1 28//1 36//1
f 20//1 29//1 27//1 10//1
