# Blender 4.2.3 LTS
# www.blender.org
o RIQ_palm_visuals_mesh_0
v 0.024536 0.050800 0.017018
v 0.024536 0.050800 0.017018
v 0.024536 0.050800 -0.017018
v 0.024536 0.050800 -0.017018
v 0.024536 0.050800 -0.017018
v 0.024536 0.050800 0.017018
v 0.024536 0.050800 0.017018
v 0.024536 0.050800 0.017018
v 0.024536 0.050800 -0.017018
v 0.024536 0.050800 -0.017018
v 0.024536 0.050800 -0.017018
v 0.024536 0.050800 -0.017018
v 0.024536 0.050800 -0.017018
v 0.024536 0.050800 -0.017018
v 0.024536 0.050800 -0.017018
v 0.024536 0.050800 0.017018
v 0.024536 0.050800 0.017018
v 0.024536 0.050800 0.017018
v -0.010172 0.050800 -0.047661
v -0.010362 0.050800 -0.047674
v -0.009977 0.050800 -0.047649
v 0.038837 0.050800 -0.044498
v 0.038726 0.050800 -0.044505
v -0.011069 0.050800 -0.047719
v -0.009791 0.050800 -0.047637
v -0.009977 0.050800 -0.047649
v 0.038837 0.050800 -0.044498
v 0.043890 0.050800 -0.044172
v -0.011069 0.050800 -0.047719
v -0.009791 0.050800 -0.047637
v -0.010362 0.050800 -0.047674
v 0.038726 0.050800 -0.044505
v 0.043890 0.050800 -0.044172
v -0.010172 0.050800 -0.047661
v 0.045667 0.050800 -0.036434
v 0.045655 0.050800 -0.034092
v 0.045573 0.050800 -0.017018
v 0.045573 0.050800 -0.017018
v 0.045585 0.050800 -0.019513
v 0.045680 0.050800 -0.039256
v 0.045667 0.050800 -0.036434
v 0.045306 0.050800 0.038705
v 0.045410 0.050800 0.017018
v 0.045585 0.050800 -0.019513
v 0.045306 0.050800 0.038705
v 0.045655 0.050800 -0.034092
v 0.045680 0.050800 -0.039256
v 0.045410 0.050800 0.017018
v 0.045703 0.050800 -0.044063
v -0.054013 0.050800 -0.004581
v -0.054013 0.050800 -0.004581
v -0.009247 0.050800 0.047282
v -0.010747 0.050800 0.047403
v -0.009419 0.050800 0.047296
v -0.009831 0.050800 0.047329
v 0.040577 0.050800 0.043263
v -0.009620 0.050800 0.047312
v 0.038290 0.050800 0.043447
v -0.010747 0.050800 0.047403
v -0.010543 0.050800 0.047387
v -0.009620 0.050800 0.047312
v 0.044754 0.050800 0.042926
v 0.038290 0.050800 0.043447
v -0.009419 0.050800 0.047296
v -0.009247 0.050800 0.047282
v -0.009831 0.050800 0.047329
v -0.010543 0.050800 0.047387
v 0.040577 0.050800 0.043263
v 0.044754 0.050800 0.042926
v 0.045286 0.050800 0.042883
v -0.010133 0.050800 0.048076
v -0.010810 0.050800 -0.014572
v -0.010134 0.050800 0.047952
v -0.010493 0.050800 0.014738
v -0.010808 0.050800 -0.014398
v -0.010729 0.050800 -0.007024
v -0.010737 0.050800 -0.007792
v -0.010138 0.050800 0.047628
v -0.010495 0.050800 0.014573
v -0.010719 0.050800 -0.006086
v -0.011153 0.050800 -0.046227
v -0.011117 0.050800 -0.042974
v -0.010801 0.050800 -0.013750
v -0.010808 0.050800 -0.014398
v -0.011144 0.050800 -0.045393
v -0.010729 0.050800 -0.007024
v -0.010194 0.050800 0.042405
v -0.010144 0.050800 0.047006
v -0.010136 0.050800 0.047799
v -0.011135 0.050800 -0.044586
v -0.010810 0.050800 -0.014572
v -0.010727 0.050800 -0.006857
v -0.010187 0.050800 0.043029
v -0.010171 0.050800 0.044509
v -0.010133 0.050800 0.048076
v -0.010495 0.050800 0.014573
v -0.010801 0.050800 -0.013750
v -0.010163 0.050800 0.045301
v -0.010138 0.050800 0.047628
v -0.010493 0.050800 0.014738
v -0.010737 0.050800 -0.007792
v -0.010719 0.050800 -0.006086
v -0.010727 0.050800 -0.006857
v -0.011120 0.050800 -0.043186
v -0.011144 0.050800 -0.045393
v -0.011153 0.050800 -0.046227
v -0.011117 0.050800 -0.042974
v -0.011120 0.050800 -0.043186
v -0.011135 0.050800 -0.044586
v -0.010146 0.050800 0.046812
v -0.010163 0.050800 0.045301
v -0.010194 0.050800 0.042405
v -0.010171 0.050800 0.044509
v -0.010180 0.050800 0.043740
v -0.010136 0.050800 0.047799
v -0.010146 0.050800 0.046812
v -0.010134 0.050800 0.047952
v -0.010144 0.050800 0.047006
v -0.010180 0.050800 0.043740
v -0.010187 0.050800 0.043029
v -0.010141 0.050800 0.047354
v -0.020639 0.050800 -0.005506
v -0.020723 0.050800 -0.005504
v -0.020847 0.050800 -0.005501
v -0.020654 0.050800 -0.005505
v -0.021784 0.050800 -0.005479
v -0.021226 0.050800 -0.005492
v -0.048628 0.050800 -0.004841
v -0.022606 0.050800 -0.005459
v -0.054013 0.050800 -0.004713
v -0.020126 0.050800 -0.005518
v -0.020654 0.050800 -0.005505
v -0.048628 0.050800 -0.004841
v -0.022606 0.050800 -0.005459
v -0.020723 0.050800 -0.005504
v -0.022394 0.050800 -0.005464
v -0.021784 0.050800 -0.005479
v -0.022394 0.050800 -0.005464
v -0.009115 0.050800 -0.005779
v -0.020639 0.050800 -0.005506
v -0.020126 0.050800 -0.005518
v -0.021018 0.050800 -0.005497
v -0.021018 0.050800 -0.005497
v -0.020847 0.050800 -0.005501
v -0.007797 0.050800 -0.005811
v -0.021226 0.050800 -0.005492
v -0.054013 0.050800 -0.004713
v -0.008825 0.050800 -0.005786
v -0.007797 0.050800 -0.005811
v -0.010203 0.050800 -0.005754
v -0.008825 0.050800 -0.005786
v -0.010203 0.050800 -0.005754
v -0.009115 0.050800 -0.005779
v -0.010715 0.050800 -0.005741
v -0.020192 0.050800 0.005814
v -0.020538 0.050800 0.005824
v -0.019998 0.050800 0.005808
v -0.019734 0.050800 0.005801
v -0.020192 0.050800 0.005814
v 0.007020 0.050800 0.005006
v -0.054013 0.050800 0.006818
v 0.008199 0.050800 0.004971
v -0.021599 0.050800 0.005856
v -0.054013 0.050800 0.006818
v -0.049566 0.050800 0.006686
v -0.010593 0.050800 0.005529
v -0.019958 0.050800 0.005807
v -0.021784 0.050800 0.005861
v -0.021599 0.050800 0.005856
v -0.031010 0.050800 0.006135
v -0.022606 0.050800 0.005886
v -0.019998 0.050800 0.005808
v -0.031010 0.050800 0.006135
v -0.022606 0.050800 0.005886
v -0.021986 0.050800 0.005867
v -0.021784 0.050800 0.005861
v -0.021986 0.050800 0.005867
v -0.019958 0.050800 0.005807
v -0.019734 0.050800 0.005801
v -0.021018 0.050800 0.005839
v -0.021018 0.050800 0.005839
v -0.020538 0.050800 0.005824
v 0.007739 0.050800 0.004985
v 0.008199 0.050800 0.004971
v 0.006511 0.050800 0.005021
v 0.007739 0.050800 0.004985
v 0.006511 0.050800 0.005021
v 0.007020 0.050800 0.005006
v -0.048487 0.050800 -0.004753
v -0.048487 0.050800 -0.004753
v -0.048482 0.050800 -0.004845
v -0.049140 0.050800 0.006674
v 0.017511 0.050800 -0.020737
v 0.017500 0.050800 -0.019729
v 0.017437 0.050800 -0.013911
v 0.017499 0.050800 -0.019644
v 0.017532 0.050800 -0.022580
v 0.017522 0.050800 -0.021711
v 0.017041 0.050800 0.022165
v 0.017497 0.050800 -0.019441
v 0.017483 0.050800 -0.018128
v 0.017496 0.050800 -0.019335
v 0.017072 0.050800 0.019407
v 0.017053 0.050800 0.021081
v 0.017499 0.050800 -0.019644
v 0.017495 0.050800 -0.019231
v 0.017155 0.050800 0.011781
v 0.017532 0.050800 -0.022580
v 0.017071 0.050800 0.019501
v 0.017068 0.050800 0.019724
v 0.017032 0.050800 0.023038
v 0.017067 0.050800 0.019843
v 0.017116 0.050800 0.015330
v 0.017164 0.050800 0.011014
v 0.017522 0.050800 -0.021711
v 0.017500 0.050800 -0.019729
v 0.017511 0.050800 -0.020737
v 0.017787 0.050800 -0.045857
v 0.017024 0.050800 0.023748
v 0.017032 0.050800 0.023038
v 0.017052 0.050800 0.021184
v 0.017041 0.050800 0.022165
v 0.017024 0.050800 0.023748
v 0.017052 0.050800 0.021184
v 0.016789 0.050800 0.045182
v 0.017445 0.050800 -0.014653
v 0.017116 0.050800 0.015330
v 0.017124 0.050800 0.014652
v 0.017436 0.050800 -0.013832
v 0.017437 0.050800 -0.013911
v 0.017445 0.050800 -0.014653
v 0.017124 0.050800 0.014652
v 0.017436 0.050800 -0.013832
v 0.017493 0.050800 -0.019052
v 0.017496 0.050800 -0.019335
v 0.017497 0.050800 -0.019441
v 0.017483 0.050800 -0.018128
v 0.017493 0.050800 -0.019052
v 0.017495 0.050800 -0.019231
v 0.017064 0.050800 0.020071
v 0.017067 0.050800 0.019843
v 0.017072 0.050800 0.019407
v 0.017068 0.050800 0.019724
v 0.017069 0.050800 0.019608
v 0.017064 0.050800 0.020071
v 0.017053 0.050800 0.021081
v 0.017069 0.050800 0.019608
v 0.017071 0.050800 0.019501
v 0.017354 0.050800 -0.006408
v 0.017162 0.050800 0.011113
v 0.017164 0.050800 0.011014
v 0.017154 0.050800 0.011883
v 0.017162 0.050800 0.011113
v 0.017154 0.050800 0.011883
v 0.017155 0.050800 0.011781
v 0.017233 0.050800 0.004703
v 0.021066 0.050800 -0.017280
v 0.019930 0.050800 -0.017293
v 0.024651 0.050800 -0.017239
v 0.023898 0.050800 -0.017248
v 0.019891 0.050800 -0.017293
v 0.023339 0.050800 -0.017254
v 0.022234 0.050800 -0.017267
v 0.019793 0.050800 -0.017295
v 0.018424 0.050800 -0.017310
v 0.024651 0.050800 -0.017239
v 0.019737 0.050800 -0.017295
v 0.026246 0.050800 -0.017221
v 0.019891 0.050800 -0.017293
v 0.019681 0.050800 -0.017296
v 0.023339 0.050800 -0.017254
v 0.026246 0.050800 -0.017221
v 0.024693 0.050800 -0.017238
v 0.024807 0.050800 -0.017237
v 0.024693 0.050800 -0.017238
v 0.023898 0.050800 -0.017248
v 0.024775 0.050800 -0.017237
v 0.024807 0.050800 -0.017237
v 0.024745 0.050800 -0.017238
v 0.024775 0.050800 -0.017237
v 0.024745 0.050800 -0.017238
v -0.010844 0.050800 -0.017645
v 0.022234 0.050800 -0.017267
v 0.019930 0.050800 -0.017293
v 0.021066 0.050800 -0.017280
v 0.019574 0.050800 -0.017297
v 0.019737 0.050800 -0.017295
v 0.019793 0.050800 -0.017295
v 0.018424 0.050800 -0.017310
v 0.019574 0.050800 -0.017297
v 0.019681 0.050800 -0.017296
v 0.017474 0.050800 -0.017321
v 0.024711 0.050800 0.017303
v 0.022120 0.050800 0.017374
v 0.019394 0.050800 0.017449
v 0.020907 0.050800 0.017407
v 0.024685 0.050800 0.017304
v 0.019450 0.050800 0.017447
v 0.019574 0.050800 0.017444
v 0.023242 0.050800 0.017343
v 0.035126 0.050800 0.017018
v 0.019635 0.050800 0.017442
v 0.024711 0.050800 0.017303
v 0.035126 0.050800 0.017018
v 0.024685 0.050800 0.017304
v -0.010455 0.050800 0.018266
v 0.024203 0.050800 0.017317
v 0.023242 0.050800 0.017343
v 0.020936 0.050800 0.017407
v 0.022120 0.050800 0.017374
v 0.024203 0.050800 0.017317
v 0.020936 0.050800 0.017407
v 0.019743 0.050800 0.017439
v 0.019635 0.050800 0.017442
v 0.019394 0.050800 0.017449
v 0.019574 0.050800 0.017444
v 0.019511 0.050800 0.017446
v 0.019743 0.050800 0.017439
v 0.020907 0.050800 0.017407
v 0.019511 0.050800 0.017446
v 0.019450 0.050800 0.017447
v 0.017092 0.050800 0.017512
vn -0.0000 1.0000 -0.0000
s 0
f 38//1 39//1 268//1
f 272//1 274//1 10//1
f 266//1 14//1 275//1
f 121//1 99//1 66//1
f 70//1 42//1 62//1
f 293//1 17//1 305//1
f 225//1 223//1 65//1
f 217//1 215//1 21//1 34//1
f 273//1 15//1 281//1
f 303//1 304//1 16//1
f 280//1 41//1 40//1 279//1
f 278//1 36//1 35//1 277//1
f 164//1 165//1 50//1
f 118//1 67//1 121//1
f 222//1 61//1 64//1 211//1
f 116//1 59//1 60//1 88//1
f 221//1 55//1 57//1 199//1
f 219//1 220//1 54//1 52//1
f 248//1 120//1 119//1 247//1
f 246//1 118//1 121//1 66//1 224//1
f 244//1 114//1 113//1 243//1
f 241//1 111//1 110//1 240//1
f 239//1 109//1 108//1 238//1
f 236//1 106//1 105//1 235//1
f 153//1 103//1 102//1 152//1
f 256//1 162//1 214//1
f 232//1 96//1 100//1 213//1
f 292//1 282//1 91//1 231//1
f 61//1 89//1 117//1 64//1
f 245//1 116//1 88//1 204//1
f 151//1 86//1 92//1 139//1
f 230//1 84//1 83//1 229//1
f 234//1 104//1 82//1 201//1
f 150//1 80//1 154//1
f 196//1 24//1 81//1 200//1
f 55//1 78//1 115//1 57//1
f 149//1 77//1 76//1 148//1
f 322//1 306//1 112//1 242//1
f 226//1 72//1 75//1 195//1
f 52//1 54//1 73//1 71//1
f 188//1 153//1 152//1 187//1
f 185//1 150//1 154//1 166//1
f 184//1 149//1 148//1 183//1
f 181//1 143//1 146//1 163//1
f 233//1 97//1 101//1 145//1 249//1
f 180//1 182//1 144//1 142//1
f 179//1 141//1 140//1 178//1
f 186//1 151//1 139//1 160//1
f 176//1 137//1 136//1 175//1
f 174//1 177//1 138//1 134//1
f 172//1 132//1 135//1 159//1
f 192//1 173//1 190//1
f 189//1 191//1 128//1
f 169//1 127//1 126//1 168//1
f 167//1 122//1 125//1 157//1
f 255//1 188//1 187//1 254//1
f 251//1 184//1 183//1 250//1
f 252//1 185//1 166//1 79//1 228//1
f 249//1 145//1 162//1 256//1
f 253//1 186//1 160//1 207//1
f 154//1 131//1 158//1 166//1
f 124//1 156//1 155//1 123//1
f 165//1 192//1 190//1 133//1 130//1 50//1
f 171//1 129//1 191//1 189//1 170//1
f 321//1 248//1 247//1 320//1
f 317//1 244//1 243//1 316//1
f 314//1 241//1 240//1 313//1
f 291//1 239//1 238//1 290//1
f 288//1 236//1 235//1 287//1
f 289//1 237//1 292//1
f 315//1 322//1 242//1
f 319//1 246//1 224//1 312//1
f 297//1 18//1 311//1
f 307//1 308//1 220//1 219//1
f 285//1 283//1 215//1 217//1
f 310//1 222//1 211//1 300//1
f 94//1 98//1 212//1 210//1
f 30//1 208//1 218//1
f 29//1 205//1 216//1 31//1
f 318//1 245//1 204//1 296//1
f 87//1 93//1 209//1 203//1
f 85//1 90//1 206//1 202//1
f 286//1 234//1 201//1 265//1
f 309//1 221//1 199//1 294//1
f 26//1 198//1 197//1 25//1
f 261//1 196//1 200//1 264//1
f 20//1 194//1 193//1 19//1
f 237//1 107//1 282//1 292//1
f 12//1 280//1 279//1
f 11//1 278//1 277//1
f 33//1 273//1 281//1 47//1 49//1
f 44//1 46//1 274//1 272//1
f 208//1 271//1 276//1 32//1 218//1
f 205//1 269//1 284//1 216//1
f 202//1 206//1 270//1 267//1
f 27//1 266//1 275//1 28//1
f 9//1 38//1 268//1
f 198//1 263//1 262//1 197//1
f 23//1 260//1 259//1 22//1
f 194//1 258//1 257//1 193//1
f 227//1 74//1 306//1 322//1
f 69//1 45//1 48//1 304//1 303//1 68//1
f 210//1 212//1 302//1 299//1
f 63//1 297//1 311//1 223//1 225//1
f 203//1 209//1 298//1 295//1
f 56//1 293//1 305//1 58//1
l 259 13
l 37 3
l 301 1
l 147 51
l 110 53
l 65 95
l 51 161
l 43 301
l 8 307
