# Blender 4.0.2
# www.blender.org
o index_L1_visuals_index_mesh_1
v -0.028156 0.008548 -0.004587
v -0.028217 0.008528 -0.003697
v -0.027295 0.008201 -0.004894
v -0.027434 0.008204 -0.003697
v -0.028312 0.008521 -0.002308
v -0.028408 0.008537 -0.000918
v -0.027434 0.008311 -0.002308
v -0.027434 0.008441 -0.000918
v -0.026045 0.008002 -0.005024
v -0.026045 0.007990 -0.003697
v -0.024655 0.008018 -0.005006
v -0.024655 0.008089 -0.003697
v -0.026045 0.008157 -0.002308
v -0.026045 0.008355 -0.000918
v -0.024655 0.008195 -0.002308
v -0.024655 0.008334 -0.000918
v -0.023265 0.007997 -0.004985
v -0.023265 0.008150 -0.003697
v -0.022015 0.008212 -0.004795
v -0.021876 0.008344 -0.003697
v -0.023265 0.008263 -0.002308
v -0.023265 0.008322 -0.000918
v -0.021876 0.008358 -0.002308
v -0.021876 0.008319 -0.000918
v -0.028503 0.008539 0.000471
v -0.028599 0.008527 0.001861
v -0.027434 0.008489 0.000471
v -0.027434 0.008455 0.001861
v -0.028694 0.008516 0.003251
v -0.028796 0.008479 0.004797
v -0.027434 0.008422 0.003251
v -0.027434 0.008428 0.004778
v -0.026045 0.008438 0.000471
v -0.026045 0.008404 0.001861
v -0.024655 0.008397 0.000471
v -0.024655 0.008386 0.001861
v -0.026045 0.008378 0.003251
v -0.026045 0.008400 0.004758
v -0.024655 0.008383 0.003251
v -0.024655 0.008389 0.004736
v -0.023265 0.008340 0.000471
v -0.023265 0.008318 0.001861
v -0.021876 0.008266 0.000471
v -0.021876 0.008200 0.001861
v -0.023265 0.008321 0.003251
v -0.023265 0.008351 0.004715
v -0.021876 0.008159 0.003251
v -0.021876 0.008243 0.004693
v -0.028496 0.008801 -0.004538
v -0.028651 0.009077 -0.003697
v -0.027434 0.008779 -0.004672
v -0.027434 0.009312 -0.003697
v -0.028702 0.009457 -0.002216
v -0.029093 0.009337 -0.001134
v -0.028295 0.009948 -0.001630
v -0.028784 0.009996 -0.001039
v -0.027434 0.009784 -0.002362
v -0.027434 0.009953 -0.001667
v -0.027434 0.010017 -0.000918
v -0.026045 0.008757 -0.004645
v -0.026045 0.009285 -0.003697
v -0.024655 0.008734 -0.004618
v -0.024655 0.009257 -0.003697
v -0.026045 0.009779 -0.002381
v -0.026045 0.009958 -0.001686
v -0.026045 0.010024 -0.000918
v -0.024655 0.009775 -0.002361
v -0.024655 0.009957 -0.001666
v -0.024655 0.010026 -0.000918
v -0.023265 0.008711 -0.004587
v -0.023265 0.009230 -0.003697
v -0.021876 0.008687 -0.004548
v -0.021876 0.009209 -0.003697
v -0.023265 0.009771 -0.002341
v -0.023265 0.009953 -0.001646
v -0.023265 0.010024 -0.000918
v -0.021876 0.009773 -0.002337
v -0.021876 0.009952 -0.001643
v -0.021876 0.010028 -0.000918
v -0.029198 0.008805 0.000471
v -0.028993 0.009369 0.001833
v -0.028824 0.010017 0.000471
v -0.028824 0.009955 0.001291
v -0.027434 0.009859 0.002065
v -0.027434 0.010022 0.000471
v -0.027434 0.009959 0.001370
v -0.028969 0.009199 0.003251
v -0.028930 0.008841 0.004411
v -0.027434 0.009521 0.003251
v -0.027434 0.008913 0.004500
v -0.026045 0.009855 0.002141
v -0.026045 0.010030 0.000471
v -0.026045 0.009964 0.001447
v -0.024655 0.009849 0.002148
v -0.024655 0.010039 0.000471
v -0.024655 0.009970 0.001453
v -0.026045 0.009509 0.003251
v -0.026045 0.008906 0.004470
v -0.024655 0.009482 0.003251
v -0.024655 0.008884 0.004437
v -0.023265 0.009844 0.002125
v -0.023265 0.010048 0.000471
v -0.023265 0.009977 0.001430
v -0.021876 0.009838 0.002101
v -0.021876 0.010059 0.000471
v -0.021876 0.009983 0.001406
v -0.023265 0.009450 0.003251
v -0.023265 0.008857 0.004405
v -0.021876 0.009417 0.003251
v -0.021876 0.008830 0.004372
v -0.020486 0.008549 -0.004518
v -0.020486 0.008502 -0.003697
v -0.019097 0.008551 -0.004507
v -0.019097 0.008515 -0.003697
v -0.020486 0.008422 -0.002308
v -0.020486 0.008342 -0.000918
v -0.019097 0.008452 -0.002308
v -0.019097 0.008390 -0.000918
v -0.017707 0.008553 -0.004505
v -0.017707 0.008527 -0.003697
v -0.016317 0.008554 -0.004503
v -0.016317 0.008539 -0.003697
v -0.017707 0.008482 -0.002308
v -0.017707 0.008437 -0.000918
v -0.016317 0.008512 -0.002308
v -0.016317 0.008485 -0.000918
v -0.014928 0.008556 -0.004499
v -0.014928 0.008551 -0.003697
v -0.014928 0.008542 -0.002308
v -0.014928 0.008533 -0.000918
v -0.020486 0.008260 0.000471
v -0.020486 0.008177 0.001861
v -0.019097 0.008322 0.000471
v -0.019097 0.008250 0.001861
v -0.020486 0.008112 0.003251
v -0.020486 0.008162 0.004664
v -0.019097 0.008195 0.003251
v -0.019097 0.008158 0.004642
v -0.017707 0.008363 0.000471
v -0.017707 0.008260 0.001861
v -0.016317 0.008383 0.000471
v -0.016317 0.008207 0.001861
v -0.017707 0.008185 0.003251
v -0.017707 0.008137 0.004634
v -0.016317 0.008059 0.003251
v -0.016317 0.008072 0.004628
v -0.014928 0.008475 0.000471
v -0.014928 0.008369 0.001861
v -0.014928 0.008262 0.003251
v -0.015067 0.008236 0.004479
v -0.020486 0.008676 -0.004518
v -0.020486 0.009204 -0.003697
v -0.019097 0.008680 -0.004507
v -0.019097 0.009217 -0.003697
v -0.020486 0.009780 -0.002402
v -0.020486 0.009964 -0.001708
v -0.020486 0.010053 -0.000918
v -0.019097 0.009788 -0.002521
v -0.019097 0.009986 -0.001826
v -0.019097 0.010096 -0.000918
v -0.017707 0.008685 -0.004505
v -0.017707 0.009234 -0.003697
v -0.016317 0.008684 -0.004503
v -0.016317 0.009236 -0.003697
v -0.017707 0.009800 -0.002614
v -0.017707 0.010007 -0.001920
v -0.017707 0.010136 -0.000918
v -0.016317 0.009803 -0.002665
v -0.016317 0.010021 -0.001970
v -0.016317 0.010160 -0.000918
v -0.014928 0.008682 -0.004499
v -0.014928 0.008956 -0.003697
v -0.014944 0.009497 -0.002318
v -0.015419 0.009999 -0.001862
v -0.020486 0.009847 0.002131
v -0.020486 0.010084 0.000471
v -0.020486 0.009994 0.001436
v -0.019097 0.009864 0.002224
v -0.019097 0.010119 0.000471
v -0.019097 0.010009 0.001530
v -0.020486 0.009403 0.003251
v -0.020486 0.008808 0.004329
v -0.019097 0.009412 0.003251
v -0.019097 0.008799 0.004295
v -0.017707 0.009870 0.002322
v -0.017707 0.010151 0.000471
v -0.017707 0.010022 0.001627
v -0.016317 0.009869 0.002367
v -0.016317 0.010172 0.000471
v -0.016317 0.010033 0.001672
v -0.017707 0.009418 0.003251
v -0.017707 0.008800 0.004283
v -0.016317 0.009415 0.003251
v -0.016317 0.008798 0.004274
v -0.014928 0.009409 0.003251
v -0.014928 0.008792 0.004265
vn -0.3846 -0.9220 -0.0440
vn -0.1622 -0.9857 0.0461
vn -0.3056 -0.9519 0.0235
vn 0.0413 -0.9989 0.0223
vn 0.0061 -0.9927 0.1203
vn 0.1447 -0.9834 0.1092
vn 0.0335 -0.9994 0.0071
vn 0.0138 -0.9962 0.0859
vn 0.0198 -0.9973 0.0708
vn 0.0491 -0.9940 0.0979
vn 0.1037 -0.9936 0.0452
vn 0.0461 -0.9958 0.0785
vn -0.1554 -0.9878 -0.0117
vn -0.0856 -0.9894 0.1170
vn -0.1310 -0.9866 0.0972
vn -0.0543 -0.9984 -0.0184
vn -0.0554 -0.9984 -0.0120
vn -0.0686 -0.9975 -0.0180
vn -0.0209 -0.9996 -0.0163
vn -0.0022 -1.0000 0.0094
vn -0.0689 -0.9971 -0.0317
vn -0.0965 -0.9946 0.0392
vn -0.0450 -0.9989 -0.0120
vn -0.0356 -0.9993 0.0122
vn -0.0045 -0.9999 -0.0103
vn -0.1005 -0.9948 -0.0135
vn -0.0466 -0.9989 0.0002
vn -0.0369 -0.9990 -0.0246
vn -0.0256 -0.9996 0.0095
vn -0.0341 -0.9992 -0.0211
vn -0.1086 0.9046 -0.4122
vn -0.6960 0.6331 -0.3387
vn -0.0082 0.9962 -0.0865
vn -0.1746 0.8967 -0.4067
vn -0.2270 0.9310 -0.2858
vn 0.0205 0.8713 -0.4903
vn 0.0005 0.9960 -0.0888
vn 0.0054 0.9679 -0.2512
vn 0.0209 0.8579 -0.5133
vn -0.0007 0.9949 -0.1010
vn 0.0005 0.9679 -0.2514
vn 0.0213 0.8662 -0.4992
vn 0.0026 0.9955 -0.0945
vn 0.0064 0.9674 -0.2533
vn 0.0132 0.9342 -0.3564
vn 0.0071 0.9263 -0.3767
vn 0.0130 0.9306 -0.3658
vn 0.0201 0.8754 -0.4830
vn -0.0050 0.9963 -0.0856
vn -0.0035 0.9701 -0.2429
vn 0.0082 0.9395 -0.3425
vn -0.0054 0.9973 0.0728
vn -0.1935 0.8688 0.4557
vn -0.1301 0.9197 0.3704
vn -0.2624 0.9467 0.1869
vn -0.0057 0.9976 0.0689
vn -0.0011 0.9866 0.1632
vn 0.0208 0.8944 0.4468
vn -0.0056 0.9970 0.0776
vn 0.0031 0.9805 0.1963
vn 0.0244 0.8876 0.4600
vn -0.0049 0.9974 0.0721
vn 0.0028 0.9837 0.1798
vn 0.0244 0.8910 0.4533
vn 0.0104 0.9517 0.3068
vn 0.0158 0.9413 0.3372
vn 0.0158 0.9462 0.3232
vn -0.0067 0.9976 0.0694
vn -0.0088 0.9889 0.1485
vn 0.0109 0.8977 0.4404
vn -0.0027 0.9584 0.2856
vn 0.0056 -0.9987 -0.0516
vn 0.0281 -0.9983 -0.0511
vn 0.0048 -0.9997 -0.0258
vn 0.0279 -0.9993 -0.0257
vn 0.0050 -0.9992 -0.0387
vn 0.0280 -0.9989 -0.0385
vn 0.0156 -0.9986 -0.0513
vn 0.0150 -0.9996 -0.0258
vn 0.0152 -0.9991 -0.0386
vn 0.0048 -0.9999 -0.0129
vn 0.0278 -0.9995 -0.0129
vn 0.0150 -0.9998 -0.0129
vn 0.0484 -0.9973 -0.0558
vn 0.0287 -0.9996 0.0049
vn -0.0117 -0.9949 -0.1001
vn -0.0686 -0.9976 -0.0125
vn 0.0184 -0.9978 -0.0630
vn -0.0116 -0.9995 -0.0304
vn 0.0562 -0.9975 -0.0431
vn -0.0639 -0.9947 -0.0801
vn -0.0003 -0.9989 -0.0468
vn 0.0902 -0.9908 -0.1007
vn 0.1381 -0.9904 0.0023
vn 0.1297 -0.9874 -0.0905
vn -0.0030 0.8372 -0.5470
vn -0.0283 0.9927 -0.1170
vn -0.0332 0.9638 -0.2645
vn -0.0002 0.8260 -0.5636
vn -0.0161 0.9915 -0.1290
vn -0.0166 0.9561 -0.2927
vn -0.0059 0.8302 -0.5574
vn -0.0260 0.9919 -0.1241
vn -0.0303 0.9597 -0.2794
vn -0.0250 0.9069 -0.4207
vn -0.0105 0.8814 -0.4723
vn -0.0242 0.8929 -0.4495
vn 0.0908 0.8857 -0.4553
vn 0.2160 0.8654 -0.4522
vn 0.2383 0.8831 -0.4041
vn -0.0213 0.9949 0.0983
vn -0.0251 0.9783 0.2057
vn 0.0059 0.8691 0.4946
vn -0.0134 0.9935 0.1126
vn -0.0107 0.9749 0.2224
vn 0.0034 0.8571 0.5152
vn -0.0198 0.9940 0.1073
vn -0.0214 0.9777 0.2091
vn 0.0001 0.8602 0.5099
vn -0.0217 0.9227 0.3850
vn -0.0059 0.8947 0.4467
vn -0.0186 0.9076 0.4194
vn 0.0056 0.8553 0.5181
vn 0.1640 -0.9860 0.0315
vn 0.0308 -0.9986 -0.0428
vn 0.0790 -0.9966 -0.0237
vn -0.0103 -0.9985 -0.0537
vn -0.0455 -0.9978 0.0473
vn -0.0251 -0.9990 -0.0383
vn 0.0106 0.8468 -0.5317
vn -0.0159 0.9940 -0.1086
vn -0.0184 0.9674 -0.2528
vn -0.0101 0.9189 -0.3943
vn -0.0136 0.9961 0.0868
vn -0.0114 0.9785 0.2061
vn 0.0187 0.8807 0.4733
vn -0.0021 0.9345 0.3560
vn -0.7186 -0.6953 0.0137
vn -0.1795 0.2096 -0.9612
vn -0.8296 -0.5266 -0.1856
vn -0.8739 -0.4857 0.0184
vn 0.0152 0.4622 -0.8866
vn 0.0417 0.4728 -0.8802
vn 0.0243 0.4818 -0.8759
vn -0.0014 0.4108 -0.9117
vn 0.0080 -0.0000 -1.0000
vn 0.0016 -0.0000 -1.0000
vn 0.0025 -0.0000 -1.0000
vn -0.7055 -0.6889 0.1663
vn -0.9186 -0.3875 -0.0781
vn -0.0239 0.6140 0.7890
vn -0.9143 -0.4021 -0.0490
vn 0.0228 0.5064 0.8620
vn 0.0411 0.4997 0.8652
vn 0.0287 0.5198 0.8538
vn 0.0221 0.4965 0.8677
vn 0.0201 0.4682 0.8834
vn 0.0159 0.4522 0.8918
vn 0.0098 0.4715 0.8818
vn 0.0307 0.4020 0.9151
vn -0.0706 -0.9974 0.0154
vn -0.0223 -0.9984 0.0524
vn -0.0275 -0.9995 -0.0124
vn -0.0249 -0.9993 0.0295
vn -0.0494 -0.9977 0.0467
vn -0.0092 0.9999 -0.0090
vn -0.0037 1.0000 -0.0070
vn -0.0053 0.9998 -0.0199
vn -0.0027 0.9999 -0.0135
vn -0.0055 1.0000 -0.0042
vn 0.0395 -0.9978 -0.0534
vn 0.0243 -0.9977 -0.0630
vn 0.0319 -0.9982 -0.0508
vn 0.0499 -0.9971 -0.0571
vn -0.0283 0.9994 -0.0193
vn -0.0164 0.9998 -0.0097
vn -0.0254 0.9996 -0.0137
vn -0.5841 -0.7917 -0.1791
vn 0.0060 -0.9988 -0.0483
vn -0.0179 0.9996 -0.0223
vn 0.0566 0.3674 -0.9283
vn 0.0401 0.4697 0.8819
s 0
f 1//1 3//1 4//1 2//1
f 5//2 7//2 8//2 6//2
f 2//3 4//3 7//3 5//3
f 9//4 11//4 12//4 10//4
f 13//5 15//5 16//5 14//5
f 17//6 19//6 20//6 18//6
f 21//7 23//7 24//7 22//7
f 11//8 17//8 18//8 12//8
f 15//9 21//9 22//9 16//9
f 10//10 12//10 15//10 13//10
f 18//11 20//11 23//11 21//11
f 12//12 18//12 21//12 15//12
f 3//13 9//13 10//13 4//13
f 7//14 13//14 14//14 8//14
f 4//15 10//15 13//15 7//15
f 25//16 27//16 28//16 26//16
f 29//17 31//17 32//17 30//17
f 26//18 28//18 31//18 29//18
f 33//19 35//19 36//19 34//19
f 37//20 39//20 40//20 38//20
f 41//21 43//21 44//21 42//21
f 45//22 47//22 48//22 46//22
f 35//23 41//23 42//23 36//23
f 39//24 45//24 46//24 40//24
f 34//25 36//25 39//25 37//25
f 42//26 44//26 47//26 45//26
f 36//27 42//27 45//27 39//27
f 27//28 33//28 34//28 28//28
f 31//29 37//29 38//29 32//29
f 28//30 34//30 37//30 31//30
f 50//31 52//31 51//31 49//31
f 53//32 54//32 56//32 55//32
f 56//33 59//33 58//33 55//33
f 53//34 55//34 58//34 57//34
f 53//35 57//35 52//35 50//35
f 61//36 63//36 62//36 60//36
f 66//37 69//37 68//37 65//37
f 64//38 65//38 68//38 67//38
f 71//39 73//39 72//39 70//39
f 76//40 79//40 78//40 75//40
f 74//41 75//41 78//41 77//41
f 63//42 71//42 70//42 62//42
f 69//43 76//43 75//43 68//43
f 67//44 68//44 75//44 74//44
f 64//45 67//45 63//45 61//45
f 74//46 77//46 73//46 71//46
f 67//47 74//47 71//47 63//47
f 52//48 61//48 60//48 51//48
f 59//49 66//49 65//49 58//49
f 57//50 58//50 65//50 64//50
f 57//51 64//51 61//51 52//51
f 83//52 86//52 85//52 82//52
f 84//53 86//53 83//53 81//53
f 88//54 90//54 89//54 87//54
f 87//55 89//55 84//55 81//55
f 93//56 96//56 95//56 92//56
f 94//57 96//57 93//57 91//57
f 98//58 100//58 99//58 97//58
f 103//59 106//59 105//59 102//59
f 104//60 106//60 103//60 101//60
f 108//61 110//61 109//61 107//61
f 96//62 103//62 102//62 95//62
f 101//63 103//63 96//63 94//63
f 100//64 108//64 107//64 99//64
f 97//65 99//65 94//65 91//65
f 107//66 109//66 104//66 101//66
f 99//67 107//67 101//67 94//67
f 86//68 93//68 92//68 85//68
f 91//69 93//69 86//69 84//69
f 90//70 98//70 97//70 89//70
f 89//71 97//71 91//71 84//71
f 111//72 113//72 114//72 112//72
f 115//73 117//73 118//73 116//73
f 119//74 121//74 122//74 120//74
f 123//75 125//75 126//75 124//75
f 113//76 119//76 120//76 114//76
f 117//77 123//77 124//77 118//77
f 112//78 114//78 117//78 115//78
f 120//79 122//79 125//79 123//79
f 114//80 120//80 123//80 117//80
f 121//81 127//81 128//81 122//81
f 125//82 129//82 130//82 126//82
f 122//83 128//83 129//83 125//83
f 131//84 133//84 134//84 132//84
f 135//85 137//85 138//85 136//85
f 139//86 141//86 142//86 140//86
f 143//87 145//87 146//87 144//87
f 133//88 139//88 140//88 134//88
f 137//89 143//89 144//89 138//89
f 132//90 134//90 137//90 135//90
f 140//91 142//91 145//91 143//91
f 134//92 140//92 143//92 137//92
f 141//93 147//93 148//93 142//93
f 145//94 149//94 150//94 146//94
f 142//95 148//95 149//95 145//95
f 152//96 154//96 153//96 151//96
f 157//97 160//97 159//97 156//97
f 155//98 156//98 159//98 158//98
f 162//99 164//99 163//99 161//99
f 167//100 170//100 169//100 166//100
f 165//101 166//101 169//101 168//101
f 154//102 162//102 161//102 153//102
f 160//103 167//103 166//103 159//103
f 158//104 159//104 166//104 165//104
f 155//105 158//105 154//105 152//105
f 165//106 168//106 164//106 162//106
f 158//107 165//107 162//107 154//107
f 164//108 172//108 171//108 163//108
f 168//109 169//109 174//109 173//109
f 168//110 173//110 172//110 164//110
f 177//111 180//111 179//111 176//111
f 178//112 180//112 177//112 175//112
f 182//113 184//113 183//113 181//113
f 187//114 190//114 189//114 186//114
f 188//115 190//115 187//115 185//115
f 192//116 194//116 193//116 191//116
f 180//117 187//117 186//117 179//117
f 185//118 187//118 180//118 178//118
f 184//119 192//119 191//119 183//119
f 181//120 183//120 178//120 175//120
f 191//121 193//121 188//121 185//121
f 183//122 191//122 185//122 178//122
f 194//123 196//123 195//123 193//123
f 19//124 111//124 112//124 20//124
f 23//125 115//125 116//125 24//125
f 20//126 112//126 115//126 23//126
f 43//127 131//127 132//127 44//127
f 47//128 135//128 136//128 48//128
f 44//129 132//129 135//129 47//129
f 73//130 152//130 151//130 72//130
f 79//131 157//131 156//131 78//131
f 77//132 78//132 156//132 155//132
f 77//133 155//133 152//133 73//133
f 106//134 177//134 176//134 105//134
f 175//135 177//135 106//135 104//135
f 110//136 182//136 181//136 109//136
f 109//137 181//137 175//137 104//137
f 1//138 2//138 50//138 49//138
f 1//139 49//139 51//139 3//139
f 5//140 6//140 54//140 53//140
f 2//141 5//141 53//141 50//141
f 9//142 60//142 62//142 11//142
f 17//143 70//143 72//143 19//143
f 11//144 62//144 70//144 17//144
f 3//145 51//145 60//145 9//145
f 111//146 151//146 153//146 113//146
f 119//147 161//147 163//147 121//147
f 113//147 153//147 161//147 119//147
f 121//148 163//148 171//148 127//148
f 25//149 26//149 81//149 80//149
f 29//150 30//150 88//150 87//150
f 32//151 90//151 88//151 30//151
f 26//152 29//152 87//152 81//152
f 40//153 100//153 98//153 38//153
f 48//154 110//154 108//154 46//154
f 46//155 108//155 100//155 40//155
f 38//156 98//156 90//156 32//156
f 138//157 184//157 182//157 136//157
f 146//158 194//158 192//158 144//158
f 144//159 192//159 184//159 138//159
f 150//160 196//160 194//160 146//160
f 6//161 8//161 27//161 25//161
f 14//162 16//162 35//162 33//162
f 22//163 24//163 43//163 41//163
f 16//164 22//164 41//164 35//164
f 8//165 14//165 33//165 27//165
f 82//166 85//166 59//166 56//166
f 92//167 95//167 69//167 66//167
f 102//168 105//168 79//168 76//168
f 95//169 102//169 76//169 69//169
f 85//170 92//170 66//170 59//170
f 116//171 118//171 133//171 131//171
f 124//172 126//172 141//172 139//172
f 118//173 124//173 139//173 133//173
f 126//174 130//174 147//174 141//174
f 176//175 179//175 160//175 157//175
f 186//176 189//176 170//176 167//176
f 179//177 186//177 167//177 160//177
f 6//178 25//178 80//178 54//178
f 24//179 116//179 131//179 43//179
f 105//180 176//180 157//180 79//180
f 19//181 72//181 151//181 111//181
f 136//182 182//182 110//182 48//182
