# Blender 4.0.2
# www.blender.org
o index_link1_HIPER_Finger_Link1_001
v -0.012168 0.001531 0.044829
v -0.005573 -0.011474 0.047933
v -0.009634 -0.008390 0.031260
v -0.012058 -0.003387 0.033710
v -0.011636 -0.003981 0.045362
v -0.009050 -0.008564 0.047297
v -0.002914 -0.012653 0.046544
v -0.006820 -0.011021 -0.002641
v -0.007946 -0.009111 -0.002348
v -0.000621 -0.009497 0.068836
v 0.002050 -0.009340 0.069754
v 0.000704 -0.010506 0.068730
v 0.001485 -0.013277 0.042816
v 0.001012 -0.013234 -0.004531
v 0.002769 -0.011924 -0.006422
v 0.002256 -0.009500 -0.008113
v 0.004583 -0.009437 -0.007024
v -0.001067 -0.012053 -0.006780
v -0.000807 -0.009287 -0.008468
v -0.003494 -0.012828 -0.003625
v -0.004552 -0.011582 -0.005548
v -0.004034 -0.009393 -0.007374
v -0.006390 -0.009181 -0.005447
v 0.005190 -0.012054 -0.003745
v 0.006727 -0.009344 -0.004951
v 0.007636 -0.009561 -0.003064
v 0.013556 -0.011131 0.040030
v 0.012037 -0.011476 0.056273
v 0.009974 -0.010757 0.064099
v 0.009891 -0.009650 0.065509
v 0.009881 0.009643 0.065521
v 0.009955 0.010755 0.064122
v 0.002010 0.009341 0.069760
v -0.000638 0.009503 0.068803
v 0.000704 0.010506 0.068730
v 0.012038 0.011471 0.056314
v -0.001818 0.012960 0.045607
v -0.005410 0.011537 0.048125
v 0.013622 0.011116 0.040096
v 0.014754 0.009834 0.035388
v 0.002318 0.013212 0.043221
v -0.007473 0.010140 0.047161
v -0.010100 0.007155 0.046736
v -0.011316 0.005534 0.032930
v -0.012440 0.000775 0.033994
v -0.009260 0.008708 0.031627
v -0.006358 0.011329 -0.003357
v -0.007856 0.009362 -0.002660
v 0.002766 0.011925 -0.006423
v 0.004449 0.009464 -0.007090
v 0.002183 0.009565 -0.008118
v 0.002030 0.013051 -0.004342
v -0.001142 0.010986 -0.007699
v -0.000826 0.013184 -0.004869
v -0.003872 0.010020 -0.007321
v -0.004136 0.012623 -0.003972
v -0.005963 0.009154 -0.005945
v -0.000318 0.008973 -0.008525
v 0.005201 0.012050 -0.003736
v 0.006655 0.009373 -0.005048
v 0.007602 0.009595 -0.003149
v 0.014647 -0.010041 0.047893
v 0.013215 -0.010339 0.057374
v 0.011757 -0.009753 0.063305
v 0.014746 -0.009848 0.035400
v 0.013970 0.010350 0.053571
v 0.011766 0.009810 0.063276
vn -0.2681 -0.4421 0.8560
vn -0.2680 -0.4419 0.8561
vn -0.2680 -0.4421 0.8560
vn 0.3838 -0.4725 -0.7934
vn 0.0965 -0.5560 -0.8255
vn 0.0965 -0.5561 -0.8255
vn 0.0964 -0.5561 -0.8255
vn -0.1533 -0.9260 -0.3449
vn -0.1533 -0.9261 -0.3448
vn -0.1532 -0.9260 -0.3449
vn -0.5181 -0.8192 -0.2459
vn -0.5181 -0.8192 -0.2458
vn -0.7158 -0.5284 -0.4565
vn -0.7159 -0.5284 -0.4564
vn -0.2651 -0.8693 -0.4172
vn 0.0619 -0.5239 -0.8495
vn 0.3132 -0.8917 -0.3267
vn 0.5850 -0.5671 -0.5797
vn 0.5882 -0.5830 -0.5605
vn 0.7055 -0.5804 -0.4067
vn 0.7055 -0.5805 -0.4066
vn -0.2812 0.4390 0.8533
vn -0.2812 0.4389 0.8534
vn -0.2813 0.4391 0.8533
vn -0.9728 0.2316 0.0083
vn 0.3810 0.4755 -0.7929
vn 0.1227 0.8903 -0.4386
vn 0.1227 0.8902 -0.4387
vn 0.1225 0.8902 -0.4387
vn -0.7732 0.4222 -0.4732
vn -0.7732 0.4221 -0.4733
vn 0.0546 0.3979 -0.9158
vn -0.2301 0.2865 -0.9300
vn -0.2303 0.2865 -0.9300
vn -0.2305 0.2865 -0.9299
vn -0.6046 0.5619 -0.5646
vn 0.0112 0.7893 -0.6139
vn 0.5843 0.5904 -0.5568
vn 0.5767 0.5566 -0.5980
vn 0.3423 0.8717 -0.3506
vn 0.6977 0.5831 -0.4162
vn 0.4132 0.0013 -0.9106
vn 0.7242 -0.6896 -0.0049
vn 0.9995 0.0126 0.0286
vn 0.5582 0.8248 -0.0899
vn 0.5598 0.8239 -0.0885
vn 0.5583 0.8248 -0.0898
vn 0.3077 0.9507 -0.0389
vn 0.2772 -0.9602 -0.0327
vn 0.7243 0.6754 -0.1386
vn 0.1812 0.9834 -0.0038
vn 0.1811 0.9835 -0.0044
vn -0.3431 -0.5525 -0.7596
vn -0.3431 -0.5522 -0.7599
vn -0.3430 -0.5523 -0.7598
vn 0.1740 -0.9847 -0.0047
vn 0.1744 -0.9847 -0.0026
vn 0.0465 0.9989 -0.0031
vn 0.0463 0.9989 -0.0038
vn 0.0463 0.9989 -0.0036
vn 0.7256 -0.6739 -0.1391
vn 0.7660 0.0006 0.6428
vn 0.9888 -0.0087 0.1490
vn -0.0582 0.9983 0.0032
vn -0.0587 0.9983 0.0038
vn -0.0582 0.9983 0.0030
vn 0.5294 0.8203 0.2164
vn 0.6840 0.7031 0.1945
vn 0.0407 0.9940 0.1020
vn 0.5498 -0.8072 0.2149
vn 0.5620 -0.7970 0.2214
vn 0.0397 -0.9940 0.1019
vn 0.0266 -0.9939 0.1071
vn 0.2676 0.7890 0.5531
vn 0.6794 0.0022 -0.7337
vn 0.0266 0.9939 0.1071
vn 0.6552 -0.7517 0.0753
vn 0.6551 -0.7518 0.0749
vn 0.6552 -0.7517 0.0751
vn 0.1347 0.5562 -0.8201
vn 0.1345 0.5564 -0.8200
vn 0.1347 0.5563 -0.8200
vn 0.5737 0.6262 0.5280
vn 0.9713 0.0083 0.2379
vn 0.2668 -0.7911 0.5504
vn 0.2669 -0.7912 0.5503
vn 0.5827 -0.6225 0.5224
vn 0.5373 0.8427 0.0341
vn -0.6333 -0.0066 -0.7739
vn -0.6331 -0.0063 -0.7741
vn -0.0518 -0.9932 0.1046
vn -0.9923 0.0027 -0.1235
vn 0.1147 -0.0062 -0.9934
vn -0.1669 0.9860 0.0011
vn -0.3193 0.0056 -0.9477
vn -0.8657 0.0066 -0.5005
vn -0.8662 0.0076 -0.4997
vn -0.3399 0.0013 0.9405
vn -0.3252 -0.0010 0.9457
vn -0.1359 -0.9907 0.0049
vn -0.1358 -0.9907 0.0050
vn -0.6488 -0.7256 0.2295
vn -0.3370 -0.9303 0.1450
vn -0.8978 -0.4403 0.0102
vn -0.8979 -0.4401 0.0098
vn -0.8978 -0.4403 0.0101
vn -0.9012 -0.0001 0.4334
vn -0.2841 0.9497 0.1318
vn -0.6151 0.7570 0.2204
vn -0.6152 0.7570 0.2204
vn -0.3212 0.0052 -0.9470
vn -0.9085 -0.0475 0.4152
vn -0.8754 -0.3559 0.3272
vn -0.6428 -0.7659 0.0149
vn -0.6428 -0.7659 0.0150
vn -0.4021 -0.9156 0.0078
vn -0.4767 -0.8790 0.0039
vn -0.5293 0.6492 -0.5462
vn -0.3620 0.9321 0.0106
vn -0.7438 0.6186 0.2531
vn -0.9067 0.2084 0.3667
vn -0.3402 0.7293 -0.5936
vn -0.9424 0.3315 0.0441
vn -0.6266 -0.7793 0.0085
vn -0.9951 -0.0934 0.0315
vn -0.5628 0.8265 0.0070
vn -0.5025 0.8646 0.0057
vn -0.5023 0.8646 0.0061
vn -0.5025 0.8646 0.0059
vn -0.7519 0.6588 0.0264
vn -0.7517 0.6590 0.0258
vn -0.7521 0.6585 0.0267
vn -0.8371 0.5470 0.0097
vn -0.8371 0.5470 0.0098
vn -0.8371 0.5470 0.0096
vn -0.6450 0.7642 0.0037
vn -0.9062 -0.4212 -0.0365
vn 0.4741 0.0007 0.8805
vn -0.8437 0.5363 -0.0228
vn -0.8429 0.5375 -0.0251
vn -0.8428 0.5376 -0.0246
vn -0.8632 -0.5038 -0.0326
vn -0.9743 0.2135 -0.0718
vn -0.9743 0.2136 -0.0715
vn -0.9743 0.2138 -0.0713
vn -0.7989 0.6010 -0.0213
vn -0.9915 -0.0841 -0.0997
vn 0.8948 0.0011 -0.4465
vn 0.4238 -0.0002 -0.9058
vn 0.9833 0.0002 -0.1821
vn -0.5951 -0.4273 -0.6806
vn -0.5954 -0.4272 -0.6805
vn -0.5955 -0.4269 -0.6805
vn 0.5666 -0.8233 0.0355
vn -0.2664 -0.4834 -0.8339
vn -0.2664 -0.4835 -0.8338
vn 0.7632 -0.0000 0.6462
vn 0.1604 0.0003 -0.9871
vn 0.0772 -0.8517 -0.5183
vn -0.8937 -0.0032 -0.4486
vn 0.2818 0.7439 0.6060
vn 0.0004 0.9944 0.1055
vn 0.9751 -0.0001 0.2216
vn 0.2811 -0.7471 0.6024
vn 0.2810 -0.7469 0.6027
vn 0.2809 -0.7469 0.6027
vn -0.0912 -0.9958 -0.0001
vn -0.0912 -0.9958 -0.0004
vn -0.0899 -0.9959 -0.0014
vn -0.5518 0.0068 -0.8340
vn -0.5846 -0.7876 0.1947
vn -0.8152 -0.4191 -0.3997
vn 0.6955 -0.0010 -0.7185
vn 0.6956 -0.0010 -0.7185
vn 0.6951 -0.0016 -0.7189
vn 0.9008 -0.0003 -0.4342
vn -0.5788 0.7890 0.2060
vn -0.8756 -0.4822 0.0268
vn -0.8756 -0.4822 0.0266
vn -0.8756 -0.4823 0.0263
vn -0.2848 0.7722 -0.5679
vn 0.5517 -0.8294 -0.0879
vn -0.9952 -0.0929 0.0313
vn 0.4761 -0.0003 0.8794
vn 0.7776 0.6286 0.0157
s 0
f 11//1 10//2 12//3
f 15//4 16//4 17//4
f 16//5 15//6 18//7
f 18//8 14//9 20//10
f 21//11 20//12 8//11
f 23//13 21//14 8//13
f 20//15 21//15 18//15
f 18//16 19//16 16//16
f 24//17 14//17 15//17
f 15//18 17//18 25//18
f 25//19 24//19 15//19
f 26//20 24//20 25//21
f 35//22 34//23 33//24
f 1//25 44//25 45//25
f 50//26 51//26 49//26
f 52//27 49//28 54//29
f 57//30 48//31 47//31
f 53//32 51//32 58//32
f 53//33 58//34 55//35
f 57//36 47//36 55//36
f 53//37 54//37 49//37
f 49//38 59//38 60//38
f 60//39 50//39 49//39
f 49//40 52//40 59//40
f 60//41 59//41 61//41
f 50//42 16//42 51//42
f 27//43 65//43 62//43
f 62//44 65//44 40//44 66//44
f 40//45 59//46 39//47
f 59//48 52//48 39//48
f 14//49 24//49 27//49
f 61//50 59//50 40//50
f 41//51 36//51 39//51
f 52//52 41//52 39//52
f 22//53 18//54 21//55
f 28//56 13//56 27//56
f 13//57 14//57 27//57
f 41//58 52//59 54//60
f 24//61 26//61 65//61
f 31//62 64//62 67//62
f 63//63 62//63 66//63
f 41//64 54//65 37//66
f 32//67 67//67 36//67
f 67//68 66//68 36//68
f 41//69 32//69 36//69
f 64//70 29//70 63//70
f 29//71 28//71 63//71
f 29//72 13//72 28//72
f 29//73 12//73 13//73
f 31//74 35//74 33//74
f 17//75 50//75 60//75
f 35//76 32//76 41//76
f 63//77 28//78 62//79
f 51//80 53//81 49//82
f 31//83 67//83 32//83
f 66//84 64//84 63//84
f 12//85 30//86 11//85
f 30//87 29//87 64//87
f 66//88 39//88 36//88
f 57//89 22//90 23//90
f 12//91 7//91 13//91
f 45//92 48//92 9//92
f 16//93 19//93 58//93
f 56//94 37//94 54//94
f 58//95 19//95 55//95
f 57//96 23//97 48//96
f 33//98 34//98 10//98
f 33//99 10//99 11//99
f 7//100 20//101 13//100
f 6//102 2//102 12//102
f 2//103 7//103 12//103
f 3//104 5//105 4//106
f 1//107 10//107 34//107
f 38//108 35//108 37//108
f 38//109 42//109 35//110
f 55//111 19//111 22//111
f 1//112 5//112 10//112
f 5//113 6//113 10//113
f 3//114 2//114 6//115
f 7//116 2//116 20//116
f 2//117 8//117 20//117
f 56//118 55//118 47//118
f 56//119 38//119 37//119
f 42//120 43//120 34//120
f 43//121 1//121 34//121
f 56//122 53//122 55//122
f 44//123 1//123 43//123
f 8//124 2//124 3//124
f 4//125 1//125 45//125
f 42//126 38//126 47//126
f 38//127 56//128 47//129
f 42//130 46//131 43//132
f 46//133 44//134 43//135
f 42//136 47//136 46//136
f 4//137 9//137 3//137
f 11//138 31//138 33//138
f 48//139 44//140 46//141
f 3//142 9//142 8//142
f 48//143 45//144 44//145
f 48//146 46//146 47//146
f 9//147 4//147 45//147
f 25//148 60//148 61//148
f 50//149 17//149 16//149
f 26//150 61//150 40//150 65//150
f 23//151 22//152 21//153
f 62//154 28//154 27//154
f 22//155 19//156 18//156
f 31//157 30//157 64//157
f 16//158 58//158 51//158
f 18//159 15//159 14//159
f 23//160 9//160 48//160
f 31//161 32//161 35//161
f 35//162 41//162 37//162
f 66//163 67//163 64//163
f 12//164 29//165 30//166
f 20//167 14//168 13//169
f 57//170 55//170 22//170
f 6//171 12//171 10//171
f 9//172 23//172 8//172
f 25//173 17//174 60//175
f 26//176 25//176 61//176
f 34//177 35//177 42//177
f 6//178 5//179 3//180
f 56//181 54//181 53//181
f 65//182 27//182 24//182
f 4//183 5//183 1//183
f 11//184 30//184 31//184
f 39//185 66//185 40//185
