# Blender 3.6.2
# www.blender.org
o index_finger_proximal_visuals_mesh_0
v -0.006197 -0.007610 0.014000
v -0.003567 -0.008615 0.018558
v 0.000004 -0.009690 0.022445
v -0.001769 -0.009590 0.022630
v -0.003555 -0.009230 0.023119
v -0.003567 -0.008615 0.018558
v -0.001769 -0.009590 0.022630
v 0.000004 -0.008845 0.018222
v 0.000004 -0.009690 0.022445
v -0.003567 -0.008615 0.018558
v -0.003555 -0.009230 0.023119
v -0.004591 -0.008804 0.023599
v -0.003567 -0.008615 0.018558
v 0.003558 -0.009230 0.023119
v 0.003571 -0.008615 0.018558
v 0.004594 -0.008804 0.023599
v 0.000004 -0.008845 0.018222
v 0.003571 -0.008615 0.018558
v 0.000004 -0.009690 0.022445
v 0.003558 -0.009230 0.023119
v 0.001773 -0.009590 0.022630
v 0.003571 -0.008615 0.018558
v 0.003571 -0.008615 0.018558
v 0.001773 -0.009590 0.022630
v 0.000004 -0.009690 0.022445
v -0.006197 -0.007610 0.014000
v -0.006197 -0.007610 0.014000
v -0.006197 -0.007610 0.014000
v -0.005010 -0.007964 0.014001
v -0.005010 -0.007964 0.014001
v 0.005014 -0.007964 0.014001
v 0.005014 -0.007964 0.014001
v 0.000004 -0.008001 0.013998
v 0.004004 -0.008001 0.010000
v 0.003583 -0.008001 0.013998
v 0.000004 -0.010001 0.029523
v 0.003435 -0.009481 0.029130
v 0.001453 -0.009895 0.025999
v 0.003491 -0.009373 0.025999
v 0.003435 -0.009481 0.029130
v 0.000002 -0.010000 0.025999
v 0.001453 -0.009895 0.025999
v 0.000004 -0.010001 0.029523
v 0.000002 -0.010000 0.025999
v 0.003435 -0.009481 0.029130
v 0.003435 -0.009481 0.029130
v 0.000004 -0.010001 0.029523
v 0.004395 -0.009103 0.025999
v 0.003435 -0.009481 0.029130
v 0.003491 -0.009373 0.025999
v 0.003435 -0.009481 0.029130
v 0.004395 -0.009103 0.025999
v 0.005374 -0.008437 0.025999
v 0.003435 -0.009481 0.029130
v 0.004395 -0.009103 0.025999
v 0.003435 -0.009481 0.029130
v 0.003435 -0.009481 0.029130
v 0.005374 -0.008437 0.025999
v 0.001453 -0.009895 0.025999
v 0.000004 -0.009690 0.022445
v 0.001773 -0.009590 0.022630
v 0.000002 -0.010000 0.025999
v 0.000004 -0.009690 0.022445
v 0.001453 -0.009895 0.025999
v 0.003491 -0.009373 0.025999
v 0.001773 -0.009590 0.022630
v 0.003558 -0.009230 0.023119
v 0.003491 -0.009373 0.025999
v 0.001453 -0.009895 0.025999
v 0.001773 -0.009590 0.022630
v 0.005720 -0.008206 0.023999
v 0.005374 -0.008437 0.025999
v 0.005720 -0.008206 0.023999
v 0.005374 -0.008437 0.025999
v 0.004594 -0.008804 0.023599
v 0.005720 -0.008206 0.023999
v 0.004395 -0.009103 0.025999
v 0.004594 -0.008804 0.023599
v 0.005374 -0.008437 0.025999
v 0.004395 -0.009103 0.025999
v 0.003558 -0.009230 0.023119
v 0.004594 -0.008804 0.023599
v 0.003491 -0.009373 0.025999
v 0.003558 -0.009230 0.023119
v 0.004395 -0.009103 0.025999
v -0.003487 -0.009373 0.025999
v -0.004391 -0.009103 0.025999
v -0.003555 -0.009230 0.023119
v -0.004391 -0.009103 0.025999
v -0.004591 -0.008804 0.023599
v -0.003555 -0.009230 0.023119
v -0.004391 -0.009103 0.025999
v -0.005370 -0.008437 0.025999
v -0.004591 -0.008804 0.023599
v -0.005370 -0.008437 0.025999
v -0.005716 -0.008206 0.023999
v -0.004591 -0.008804 0.023599
v -0.006462 -0.007632 0.023999
v -0.005370 -0.008437 0.025999
v -0.005716 -0.008206 0.023999
v -0.006462 -0.007632 0.023999
v -0.005716 -0.008206 0.023999
v -0.003487 -0.009373 0.025999
v -0.001769 -0.009590 0.022630
v -0.001449 -0.009895 0.025999
v -0.003487 -0.009373 0.025999
v -0.003555 -0.009230 0.023119
v -0.001769 -0.009590 0.022630
v 0.000002 -0.010000 0.025999
v -0.001449 -0.009895 0.025999
v 0.000004 -0.009690 0.022445
v -0.001449 -0.009895 0.025999
v -0.001769 -0.009590 0.022630
v 0.000004 -0.009690 0.022445
v -0.005370 -0.008437 0.025999
v -0.003431 -0.009481 0.029130
v -0.003431 -0.009481 0.029130
v -0.003431 -0.009481 0.029130
v -0.004391 -0.009103 0.025999
v -0.005370 -0.008437 0.025999
v -0.004391 -0.009103 0.025999
v -0.003431 -0.009481 0.029130
v -0.004391 -0.009103 0.025999
v -0.003487 -0.009373 0.025999
v -0.003431 -0.009481 0.029130
v -0.003431 -0.009481 0.029130
v 0.000004 -0.010001 0.029523
v 0.000004 -0.010001 0.029523
v -0.003431 -0.009481 0.029130
v 0.000002 -0.010000 0.025999
v -0.003431 -0.009481 0.029130
v -0.001449 -0.009895 0.025999
v 0.000002 -0.010000 0.025999
v -0.003431 -0.009481 0.029130
v -0.003487 -0.009373 0.025999
v -0.001449 -0.009895 0.025999
v 0.000004 -0.010001 0.029523
v 0.004004 -0.008001 0.010000
v 0.004004 -0.008001 0.010000
v -0.004000 -0.008001 0.010000
v -0.004000 -0.008001 0.010000
v 0.004004 -0.008001 0.010000
v 0.000004 -0.008001 0.013998
v 0.004004 -0.008001 0.010000
v -0.004000 -0.008001 0.010000
v -0.006197 -0.007610 0.014000
v -0.004000 -0.008001 0.010000
v 0.004004 -0.008001 0.010000
v -0.004000 -0.008001 0.010000
v 0.000004 -0.008001 0.013998
v -0.003579 -0.008001 0.013998
v 0.005014 -0.007964 0.014001
v 0.004004 -0.008001 0.010000
v 0.003583 -0.008001 0.013998
v 0.004004 -0.008001 0.010000
v 0.005014 -0.007964 0.014001
v 0.005014 -0.007964 0.014001
v 0.005014 -0.007964 0.014001
v 0.003583 -0.008001 0.013998
v 0.000004 -0.008845 0.018222
v 0.000004 -0.008001 0.013998
v 0.003571 -0.008615 0.018558
v 0.000004 -0.008845 0.018222
v 0.003583 -0.008001 0.013998
v 0.005720 -0.008206 0.023999
v 0.005014 -0.007964 0.014001
v 0.005720 -0.008206 0.023999
v 0.005014 -0.007964 0.014001
v 0.005720 -0.008206 0.023999
v 0.004594 -0.008804 0.023599
v 0.005014 -0.007964 0.014001
v 0.003571 -0.008615 0.018558
v 0.003583 -0.008001 0.013998
v 0.005014 -0.007964 0.014001
v 0.004594 -0.008804 0.023599
v 0.003571 -0.008615 0.018558
v -0.005010 -0.007964 0.014001
v -0.003567 -0.008615 0.018558
v -0.004591 -0.008804 0.023599
v -0.005010 -0.007964 0.014001
v -0.003579 -0.008001 0.013998
v -0.003567 -0.008615 0.018558
v -0.005010 -0.007964 0.014001
v -0.004591 -0.008804 0.023599
v -0.005716 -0.008206 0.023999
v -0.005010 -0.007964 0.014001
v -0.005716 -0.008206 0.023999
v -0.006197 -0.007610 0.014000
v -0.006197 -0.007610 0.014000
v -0.005716 -0.008206 0.023999
v -0.006462 -0.007632 0.023999
v -0.006197 -0.007610 0.014000
v -0.006462 -0.007632 0.023999
v -0.006462 -0.007632 0.023999
v -0.003567 -0.008615 0.018558
v -0.003579 -0.008001 0.013998
v 0.000004 -0.008845 0.018222
v -0.003579 -0.008001 0.013998
v 0.000004 -0.008001 0.013998
v 0.000004 -0.008845 0.018222
v -0.005010 -0.007964 0.014001
v -0.005010 -0.007964 0.014001
v -0.006197 -0.007610 0.014000
v -0.003579 -0.008001 0.013998
v -0.005010 -0.007964 0.014001
v -0.004000 -0.008001 0.010000
v -0.004000 -0.008001 0.010000
v -0.005010 -0.007964 0.014001
vn -0.0759 -0.9768 -0.2003
vn -0.2300 -0.9646 -0.1294
vn -0.0813 -0.9773 -0.1955
vn -0.4243 -0.8976 -0.1198
vn 0.4243 -0.8976 -0.1198
vn 0.0815 -0.9773 -0.1955
vn 0.2300 -0.9646 -0.1294
vn 0.0761 -0.9768 -0.2002
vn -0.0000 -1.0000 -0.0000
vn 0.2480 -0.9683 -0.0290
vn 0.0718 -0.9937 0.0859
vn 0.1496 -0.9887 -0.0003
vn 0.2864 -0.9577 -0.0280
vn 0.0649 -0.9944 -0.0839
vn 0.0717 -0.9937 -0.0866
vn 0.2090 -0.9769 -0.0437
vn 0.2476 -0.9667 -0.0640
vn 0.4746 -0.8800 -0.0193
vn 0.5616 -0.8255 -0.0559
vn 0.4099 -0.9087 -0.0789
vn 0.2863 -0.9573 -0.0409
vn -0.2863 -0.9573 -0.0409
vn -0.4099 -0.9087 -0.0789
vn -0.5616 -0.8255 -0.0559
vn -0.4746 -0.8800 -0.0193
vn -0.2476 -0.9667 -0.0640
vn -0.2090 -0.9769 -0.0437
vn -0.0717 -0.9936 -0.0867
vn -0.0647 -0.9944 -0.0839
vn -0.2864 -0.9577 -0.0280
vn -0.1494 -0.9888 -0.0001
vn -0.0717 -0.9937 0.0859
vn -0.2481 -0.9683 -0.0290
vn 0.0254 -0.9997 0.0027
vn -0.0000 -0.9806 -0.1961
vn 0.0763 -0.9882 -0.1330
vn 0.4839 -0.8734 -0.0553
vn 0.0254 -0.9907 -0.1335
vn 0.1981 -0.9772 -0.0769
vn -0.1981 -0.9772 -0.0769
vn -0.0254 -0.9907 -0.1335
vn -0.4839 -0.8734 -0.0553
vn -0.2860 -0.9573 -0.0434
vn -0.6095 -0.7926 -0.0180
vn -0.0762 -0.9882 -0.1330
vn -0.0254 -0.9997 0.0027
s 0
f 2//1 3//1 4//1
f 5//2 6//2 7//2
f 8//3 9//3 10//3
f 11//4 12//4 13//4
f 14//5 15//5 16//5
f 17//6 18//6 19//6
f 20//7 21//7 22//7
f 23//8 24//8 25//8
f 33//9 34//9 35//9
f 37//10 38//10 39//10
f 40//11 41//11 42//11
f 43//12 44//12 45//12
f 48//13 49//13 50//13
f 59//14 60//14 61//14
f 62//15 63//15 64//15
f 65//16 66//16 67//16
f 68//17 69//17 70//17
f 74//18 75//18 76//18
f 77//19 78//19 79//19
f 80//20 81//20 82//20
f 83//21 84//21 85//21
f 86//22 87//22 88//22
f 89//23 90//23 91//23
f 92//24 93//24 94//24
f 95//25 96//25 97//25
f 103//26 104//26 105//26
f 106//27 107//27 108//27
f 109//28 110//28 111//28
f 112//29 113//29 114//29
f 123//30 124//30 125//30
f 128//31 129//31 130//31
f 131//32 132//32 133//32
f 134//33 135//33 136//33
f 141//9 142//9 143//9
f 149//9 150//9 151//9
f 154//34 155//34 156//34
f 159//35 160//35 161//35
f 162//36 163//36 164//36
f 168//37 169//37 170//37
f 171//38 172//38 173//38
f 174//39 175//39 176//39
f 177//40 178//40 179//40
f 180//41 181//41 182//41
f 183//42 184//42 185//42
f 186//43 187//43 188//43
f 189//44 190//44 191//44
f 195//45 196//45 197//45
f 198//35 199//35 200//35
f 204//46 205//46 206//46
l 126 127
l 120 121
l 52 53
l 192 193
l 54 55
l 166 167
l 202 203
l 99 100
l 118 119
l 207 208
l 147 148
l 46 47
l 72 73
l 152 153
l 101 102
