# Blender 3.6.2
# www.blender.org
mtllib index_finger_distal_visuals_mesh_0.mtl
o index_finger_distal_visuals_mesh_0
v -0.001571 -0.004817 0.025379
v -0.002077 -0.006044 0.020885
v 0.001571 -0.004817 0.025379
v 0.002077 -0.006044 0.020885
v 0.001571 -0.004817 0.025379
v -0.002077 -0.006044 0.020885
v -0.002077 -0.006044 0.020885
v -0.002353 -0.006592 0.018016
v 0.002077 -0.006044 0.020885
v 0.002353 -0.006592 0.018016
v 0.002077 -0.006044 0.020885
v -0.002353 -0.006592 0.018016
v -0.002353 -0.006592 0.018016
v -0.002967 -0.007477 0.010466
v 0.002353 -0.006592 0.018016
v 0.002967 -0.007477 0.010466
v 0.002353 -0.006592 0.018016
v -0.002967 -0.007477 0.010466
v -0.002967 -0.007477 0.010466
v -0.003479 -0.007566 0.007050
v 0.002967 -0.007477 0.010466
v 0.003184 -0.007594 0.007077
v 0.002967 -0.007477 0.010466
v -0.003479 -0.007566 0.007050
v -0.001524 0.000140 0.029528
v 0.001524 0.000140 0.029528
v -0.001524 0.000140 0.029528
v -0.001524 0.000140 0.029528
v -0.001528 -0.001183 0.029202
v 0.001524 0.000140 0.029528
v 0.001528 -0.001183 0.029202
v 0.001524 0.000140 0.029528
v -0.001528 -0.001183 0.029202
v -0.001528 -0.001183 0.029202
v -0.001535 -0.002398 0.028586
v 0.001528 -0.001183 0.029202
v 0.001535 -0.002398 0.028586
v 0.001528 -0.001183 0.029202
v -0.001535 -0.002398 0.028586
v -0.001535 -0.002398 0.028586
v -0.001544 -0.003362 0.027779
v 0.001535 -0.002398 0.028586
v 0.001544 -0.003362 0.027779
v 0.001535 -0.002398 0.028586
v -0.001544 -0.003362 0.027779
v -0.001544 -0.003362 0.027779
v -0.001557 -0.004263 0.026624
v 0.001544 -0.003362 0.027779
v 0.001557 -0.004263 0.026624
v 0.001544 -0.003362 0.027779
v -0.001557 -0.004263 0.026624
v -0.001557 -0.004263 0.026624
v -0.001571 -0.004817 0.025379
v 0.001557 -0.004263 0.026624
v 0.001557 -0.004263 0.026624
v -0.001571 -0.004817 0.025379
v 0.001571 -0.004817 0.025379
v 0.007259 -0.003544 0.017975
v 0.007909 -0.004396 0.010674
v 0.007909 -0.004396 0.010674
v 0.007909 -0.004396 0.010674
v 0.007259 -0.003544 0.017975
v 0.005352 -0.003210 0.025375
v 0.007259 -0.003544 0.017975
v 0.005740 -0.005417 0.018156
v 0.007259 -0.003544 0.017975
v 0.005352 -0.003210 0.025375
v 0.007259 -0.003544 0.017975
v 0.005740 -0.005417 0.018156
v 0.007909 -0.004396 0.010674
v 0.007909 -0.004396 0.010674
v 0.007909 -0.004396 0.010674
v 0.005352 -0.003210 0.025375
v 0.004236 -0.004047 0.025491
v 0.005740 -0.005417 0.018156
v 0.005349 -0.006961 0.010618
v 0.007909 -0.004396 0.010674
v 0.005740 -0.005417 0.018156
v 0.007909 -0.004396 0.010674
v 0.005349 -0.006961 0.010618
v 0.005740 -0.005417 0.018156
v 0.004710 -0.006066 0.018166
v 0.005349 -0.006961 0.010618
v 0.004710 -0.006066 0.018166
v 0.005740 -0.005417 0.018156
v 0.004236 -0.004047 0.025491
v 0.005349 -0.006961 0.010618
v 0.004710 -0.006066 0.018166
v 0.004236 -0.004047 0.025491
v 0.002948 -0.004595 0.025492
v 0.004193 -0.007370 0.010552
v 0.003184 -0.007594 0.007077
v 0.005349 -0.006961 0.010618
v 0.004193 -0.007370 0.010552
v 0.004193 -0.007370 0.010552
v 0.005349 -0.006961 0.010618
v 0.004710 -0.006066 0.018166
v 0.004710 -0.006066 0.018166
v 0.002948 -0.004595 0.025492
v 0.001571 -0.004817 0.025379
v 0.004710 -0.006066 0.018166
v 0.001571 -0.004817 0.025379
v 0.002077 -0.006044 0.020885
v 0.002353 -0.006592 0.018016
v 0.004710 -0.006066 0.018166
v 0.002077 -0.006044 0.020885
v 0.004193 -0.007370 0.010552
v 0.002967 -0.007477 0.010466
v 0.003184 -0.007594 0.007077
v 0.004193 -0.007370 0.010552
v 0.002353 -0.006592 0.018016
v 0.002967 -0.007477 0.010466
v 0.005352 -0.003210 0.025375
v 0.005787 -0.001644 0.026655
v 0.004527 -0.000580 0.028466
v 0.005787 -0.001644 0.026655
v 0.004594 -0.002501 0.027340
v 0.005787 -0.001644 0.026655
v 0.004527 -0.000580 0.028466
v 0.005787 -0.001644 0.026655
v 0.004594 -0.002501 0.027340
v 0.005352 -0.003210 0.025375
v 0.004236 -0.004047 0.025491
v 0.005352 -0.003210 0.025375
v 0.004594 -0.002501 0.027340
v 0.004527 -0.000580 0.028466
v 0.004527 -0.000580 0.028466
v 0.003091 -0.000846 0.029078
v 0.004594 -0.002501 0.027340
v 0.003091 -0.000846 0.029078
v 0.004527 -0.000580 0.028466
v 0.003138 -0.003093 0.027728
v 0.004594 -0.002501 0.027340
v 0.003091 -0.000846 0.029078
v 0.004594 -0.002501 0.027340
v 0.003138 -0.003093 0.027728
v 0.004236 -0.004047 0.025491
v 0.002948 -0.004595 0.025492
v 0.004236 -0.004047 0.025491
v 0.003138 -0.003093 0.027728
v 0.001528 -0.001183 0.029202
v 0.003091 -0.000846 0.029078
v 0.001524 0.000140 0.029528
v 0.003091 -0.000846 0.029078
v 0.001528 -0.001183 0.029202
v 0.003138 -0.003093 0.027728
v 0.003138 -0.003093 0.027728
v 0.001528 -0.001183 0.029202
v 0.001535 -0.002398 0.028586
v 0.001544 -0.003362 0.027779
v 0.003138 -0.003093 0.027728
v 0.001535 -0.002398 0.028586
v 0.003138 -0.003093 0.027728
v 0.001544 -0.003362 0.027779
v 0.002948 -0.004595 0.025492
v 0.002948 -0.004595 0.025492
v 0.001544 -0.003362 0.027779
v 0.001557 -0.004263 0.026624
v 0.001571 -0.004817 0.025379
v 0.002948 -0.004595 0.025492
v 0.001557 -0.004263 0.026624
v 0.003184 -0.007594 0.007077
v 0.003184 -0.007594 0.007077
v -0.003479 -0.007566 0.007050
v -0.003479 -0.007566 0.007050
v 0.004527 -0.000580 0.028466
v 0.007259 -0.003544 0.017975
v 0.007259 -0.003544 0.017975
v 0.007259 -0.003544 0.017975
v 0.002353 -0.006592 0.018016
v 0.004193 -0.007370 0.010552
v 0.004710 -0.006066 0.018166
v 0.001524 0.000140 0.029528
v 0.003091 -0.000846 0.029078
v 0.001524 0.000140 0.029528
v -0.001524 0.000140 0.029528
v -0.001524 0.000140 0.029528
v -0.003091 -0.000846 0.029078
v -0.002353 -0.006592 0.018016
v -0.004710 -0.006066 0.018166
v -0.004193 -0.007370 0.010552
v -0.007259 -0.003544 0.017975
v -0.007259 -0.003544 0.017975
v -0.007259 -0.003544 0.017975
v -0.004527 -0.000580 0.028466
v -0.003479 -0.007566 0.007050
v -0.001571 -0.004817 0.025379
v -0.001557 -0.004263 0.026624
v -0.002948 -0.004595 0.025492
v -0.002948 -0.004595 0.025492
v -0.001557 -0.004263 0.026624
v -0.001544 -0.003362 0.027779
v -0.003138 -0.003093 0.027728
v -0.002948 -0.004595 0.025492
v -0.001544 -0.003362 0.027779
v -0.001544 -0.003362 0.027779
v -0.001535 -0.002398 0.028586
v -0.003138 -0.003093 0.027728
v -0.003138 -0.003093 0.027728
v -0.001535 -0.002398 0.028586
v -0.001528 -0.001183 0.029202
v -0.003091 -0.000846 0.029078
v -0.003138 -0.003093 0.027728
v -0.001528 -0.001183 0.029202
v -0.001528 -0.001183 0.029202
v -0.001524 0.000140 0.029528
v -0.003091 -0.000846 0.029078
v -0.002948 -0.004595 0.025492
v -0.003138 -0.003093 0.027728
v -0.004236 -0.004047 0.025491
v -0.004594 -0.002501 0.027340
v -0.004236 -0.004047 0.025491
v -0.003138 -0.003093 0.027728
v -0.003138 -0.003093 0.027728
v -0.003091 -0.000846 0.029078
v -0.004594 -0.002501 0.027340
v -0.003091 -0.000846 0.029078
v -0.004527 -0.000580 0.028466
v -0.004527 -0.000580 0.028466
v -0.004594 -0.002501 0.027340
v -0.003091 -0.000846 0.029078
v -0.004527 -0.000580 0.028466
v -0.004236 -0.004047 0.025491
v -0.004594 -0.002501 0.027340
v -0.005352 -0.003210 0.025375
v -0.005787 -0.001644 0.026655
v -0.005352 -0.003210 0.025375
v -0.004594 -0.002501 0.027340
v -0.004594 -0.002501 0.027340
v -0.004527 -0.000580 0.028466
v -0.005787 -0.001644 0.026655
v -0.005787 -0.001644 0.026655
v -0.004527 -0.000580 0.028466
v -0.005352 -0.003210 0.025375
v -0.005787 -0.001644 0.026655
v -0.004193 -0.007370 0.010552
v -0.002967 -0.007477 0.010466
v -0.002353 -0.006592 0.018016
v -0.004193 -0.007370 0.010552
v -0.003479 -0.007566 0.007050
v -0.002967 -0.007477 0.010466
v -0.002353 -0.006592 0.018016
v -0.002077 -0.006044 0.020885
v -0.004710 -0.006066 0.018166
v -0.002077 -0.006044 0.020885
v -0.001571 -0.004817 0.025379
v -0.004710 -0.006066 0.018166
v -0.004710 -0.006066 0.018166
v -0.001571 -0.004817 0.025379
v -0.002948 -0.004595 0.025492
v -0.004193 -0.007370 0.010552
v -0.004710 -0.006066 0.018166
v -0.005349 -0.006961 0.010618
v -0.005349 -0.006961 0.010618
v -0.004193 -0.007370 0.010552
v -0.004193 -0.007370 0.010552
v -0.003479 -0.007566 0.007050
v -0.004710 -0.006066 0.018166
v -0.002948 -0.004595 0.025492
v -0.004236 -0.004047 0.025491
v -0.005349 -0.006961 0.010618
v -0.004710 -0.006066 0.018166
v -0.004236 -0.004047 0.025491
v -0.005740 -0.005417 0.018156
v -0.005740 -0.005417 0.018156
v -0.005349 -0.006961 0.010618
v -0.004710 -0.006066 0.018166
v -0.007909 -0.004396 0.010674
v -0.005349 -0.006961 0.010618
v -0.005349 -0.006961 0.010618
v -0.005740 -0.005417 0.018156
v -0.007909 -0.004396 0.010674
v -0.005352 -0.003210 0.025375
v -0.005740 -0.005417 0.018156
v -0.004236 -0.004047 0.025491
v -0.007909 -0.004396 0.010674
v -0.007909 -0.004396 0.010674
v -0.007259 -0.003544 0.017975
v -0.007909 -0.004396 0.010674
v -0.005740 -0.005417 0.018156
v -0.005740 -0.005417 0.018156
v -0.005352 -0.003210 0.025375
v -0.007259 -0.003544 0.017975
v -0.007259 -0.003544 0.017975
v -0.005352 -0.003210 0.025375
v -0.007909 -0.004396 0.010674
v -0.007259 -0.003544 0.017975
v -0.007909 -0.004396 0.010674
v -0.007909 -0.004396 0.010674
v -0.007259 -0.003544 0.017975
v -0.005787 -0.001644 0.026655
v -0.005787 -0.001644 0.026655
v 0.005787 -0.001644 0.026655
v 0.005787 -0.001644 0.026655
vn -0.0000 -0.9647 0.2632
vn -0.0000 -0.9822 0.1878
vn -0.0000 -0.9932 0.1164
vn -0.0000 -0.9997 0.0261
vn -0.0043 -0.9994 0.0343
vn -0.0000 -0.2393 0.9710
vn -0.0000 -0.4523 0.8919
vn -0.0000 -0.6420 0.7667
vn -0.0000 -0.7882 0.6154
vn -0.0000 -0.9136 0.4066
vn 0.7672 -0.6007 0.2249
vn 0.7754 -0.6155 0.1409
vn 0.5965 -0.7580 0.2638
vn 0.7024 -0.7036 0.1077
vn 0.5291 -0.8363 0.1439
vn 0.5173 -0.8159 0.2584
vn 0.3771 -0.8863 0.2687
vn 0.3232 -0.9362 0.1383
vn 0.1371 -0.9643 0.2266
vn 0.2832 -0.9167 0.2820
vn 0.2009 -0.9584 0.2027
vn 0.0841 -0.9957 0.0398
vn 0.0778 -0.9894 0.1222
vn 0.6478 -0.3682 0.6669
vn 0.6771 -0.5693 0.4664
vn 0.5622 -0.6847 0.4637
vn 0.4195 -0.4481 0.7895
vn 0.3996 -0.4660 0.7894
vn 0.4367 -0.7299 0.5259
vn 0.3381 -0.7942 0.5049
vn 0.1275 -0.2370 0.9631
vn 0.1758 -0.5044 0.8454
vn 0.2716 -0.4341 0.8590
vn 0.1316 -0.6357 0.7607
vn 0.1567 -0.8259 0.5416
vn 0.3004 -0.7502 0.5890
vn 0.1132 -0.9073 0.4050
vn 0.2061 -0.9667 0.1515
vn -0.2061 -0.9667 0.1515
vn -0.1132 -0.9073 0.4050
vn -0.3004 -0.7502 0.5890
vn -0.1567 -0.8259 0.5416
vn -0.1316 -0.6357 0.7607
vn -0.2716 -0.4341 0.8590
vn -0.1758 -0.5044 0.8454
vn -0.1275 -0.2370 0.9631
vn -0.3381 -0.7942 0.5049
vn -0.4367 -0.7299 0.5259
vn -0.3996 -0.4660 0.7894
vn -0.4195 -0.4481 0.7895
vn -0.5622 -0.6847 0.4637
vn -0.6771 -0.5693 0.4664
vn -0.6478 -0.3682 0.6669
vn -0.0778 -0.9894 0.1222
vn -0.0842 -0.9957 0.0387
vn -0.2009 -0.9584 0.2027
vn -0.2832 -0.9167 0.2820
vn -0.1371 -0.9643 0.2266
vn -0.3232 -0.9362 0.1383
vn -0.3771 -0.8863 0.2687
vn -0.5173 -0.8159 0.2584
vn -0.5291 -0.8363 0.1439
vn -0.7024 -0.7036 0.1077
vn -0.5965 -0.7580 0.2638
vn -0.7754 -0.6155 0.1409
vn -0.7672 -0.6007 0.2249
s 0
f 1//1 2//1 3//1
f 4//1 5//1 6//1
f 7//2 8//2 9//2
f 10//2 11//2 12//2
f 13//3 14//3 15//3
f 16//3 17//3 18//3
f 19//4 20//4 21//4
f 22//5 23//5 24//5
f 28//6 29//6 30//6
f 31//6 32//6 33//6
f 34//7 35//7 36//7
f 37//7 38//7 39//7
f 40//8 41//8 42//8
f 43//8 44//8 45//8
f 46//9 47//9 48//9
f 49//9 50//9 51//9
f 52//10 53//10 54//10
f 55//10 56//10 57//10
f 65//11 66//11 67//11
f 68//12 69//12 70//12
f 73//13 74//13 75//13
f 76//14 77//14 78//14
f 81//15 82//15 83//15
f 84//16 85//16 86//16
f 88//17 89//17 90//17
f 95//18 96//18 97//18
f 98//19 99//19 100//19
f 101//20 102//20 103//20
f 104//21 105//21 106//21
f 107//22 108//22 109//22
f 110//23 111//23 112//23
f 117//24 118//24 119//24
f 120//25 121//25 122//25
f 123//26 124//26 125//26
f 127//27 128//27 129//27
f 132//28 133//28 134//28
f 135//29 136//29 137//29
f 138//30 139//30 140//30
f 141//31 142//31 143//31
f 144//32 145//32 146//32
f 147//33 148//33 149//33
f 150//34 151//34 152//34
f 153//35 154//35 155//35
f 156//36 157//36 158//36
f 159//37 160//37 161//37
f 170//38 171//38 172//38
f 179//39 180//39 181//39
f 187//40 188//40 189//40
f 190//41 191//41 192//41
f 193//42 194//42 195//42
f 196//43 197//43 198//43
f 199//44 200//44 201//44
f 202//45 203//45 204//45
f 205//46 206//46 207//46
f 208//47 209//47 210//47
f 211//48 212//48 213//48
f 214//49 215//49 216//49
f 219//50 220//50 221//50
f 223//51 224//51 225//51
f 226//52 227//52 228//52
f 229//53 230//53 231//53
f 236//54 237//54 238//54
f 239//55 240//55 241//55
f 242//56 243//56 244//56
f 245//57 246//57 247//57
f 248//58 249//58 250//58
f 251//59 252//59 253//59
f 258//60 259//60 260//60
f 262//61 263//61 264//61
f 265//62 266//62 267//62
f 270//63 271//63 272//63
f 273//64 274//64 275//64
f 278//65 279//65 280//65
f 281//66 282//66 283//66
l 254 255
l 284 285
l 91 92
l 217 218
l 26 27
l 61 62
l 177 178
l 79 80
l 173 174
l 113 114
l 268 269
l 93 94
l 232 233
l 115 116
l 130 131
l 256 257
l 63 64
l 286 287
l 234 235
l 163 164
