# Blender 3.6.2
# www.blender.org
o thumb_distal_visuals_mesh_0
v -0.004682 -0.003336 0.032813
v -0.007256 0.001950 0.029022
v -0.007255 -0.001950 0.029022
v -0.007256 0.001950 0.029022
v -0.008652 0.003870 0.022591
v -0.007255 -0.001950 0.029022
v -0.008649 -0.003869 0.022605
v -0.007255 -0.001950 0.029022
v -0.008652 0.003870 0.022591
v -0.008652 0.003870 0.022591
v -0.009643 0.002835 0.015660
v -0.008649 -0.003869 0.022605
v -0.009643 -0.002835 0.015660
v -0.008649 -0.003869 0.022605
v -0.009643 0.002835 0.015660
v -0.009643 0.002835 0.015660
v -0.009709 0.003939 0.011084
v -0.009643 -0.002835 0.015660
v -0.009643 -0.002835 0.015660
v -0.009709 0.003939 0.011084
v -0.002880 -0.009737 0.022009
v -0.002880 -0.009737 0.022009
v -0.001241 0.009813 0.022921
v -0.002120 0.010304 0.015797
v -0.001241 0.009813 0.022921
v -0.002120 0.010304 0.015797
v -0.005045 0.006634 0.028844
v -0.001241 0.009813 0.022921
v -0.005021 0.009725 0.015963
v -0.002120 0.010304 0.015797
v -0.002120 0.010304 0.015797
v -0.005021 0.009725 0.015963
v -0.001241 0.009813 0.022921
v -0.005021 0.009725 0.015963
v -0.008364 0.006967 0.016020
v -0.005021 0.009725 0.015963
v -0.001241 0.009813 0.022921
v -0.007826 0.007158 0.022756
v -0.005045 0.006634 0.028844
v -0.008364 0.006967 0.016020
v -0.007256 0.001950 0.029022
v -0.005045 0.006634 0.028844
v -0.007826 0.007158 0.022756
v -0.008652 0.003870 0.022591
v -0.007256 0.001950 0.029022
v -0.007826 0.007158 0.022756
v -0.008652 0.003870 0.022591
v -0.007826 0.007158 0.022756
v -0.008364 0.006967 0.016020
v -0.008364 0.006967 0.016020
v -0.009709 0.003939 0.011084
v -0.009643 0.002835 0.015660
v -0.008364 0.006967 0.016020
v -0.009709 0.003939 0.011084
v -0.008364 0.006967 0.016020
v -0.009643 0.002835 0.015660
v -0.008652 0.003870 0.022591
v -0.002167 0.006146 0.032465
v -0.000633 0.002897 0.034852
v -0.004405 0.004149 0.032732
v -0.000633 0.002897 0.034852
v -0.002167 0.006146 0.032465
v -0.002167 0.006146 0.032465
v -0.002167 0.006146 0.032465
v -0.005045 0.006634 0.028844
v -0.004405 0.004149 0.032732
v -0.002167 0.006146 0.032465
v -0.005045 0.006634 0.028844
v -0.005045 0.006634 0.028844
v -0.007256 0.001950 0.029022
v -0.004405 0.004149 0.032732
v -0.003366 -0.005895 0.032304
v -0.000593 -0.003083 0.034949
v -0.000593 -0.003083 0.034949
v -0.000633 0.002897 0.034852
v -0.004405 0.004149 0.032732
v -0.004682 -0.003336 0.032813
v -0.000593 -0.003083 0.034949
v -0.004405 0.004149 0.032732
v -0.000593 -0.003083 0.034949
v -0.004682 -0.003336 0.032813
v -0.003366 -0.005895 0.032304
v -0.004405 0.004149 0.032732
v -0.007256 0.001950 0.029022
v -0.004682 -0.003336 0.032813
v -0.005632 -0.006530 0.028956
v -0.002880 -0.009737 0.022009
v -0.005020 -0.009725 0.015976
v -0.002880 -0.009737 0.022009
v -0.005020 -0.009725 0.015976
v -0.005020 -0.009725 0.015976
v -0.008363 -0.006966 0.016034
v -0.005020 -0.009725 0.015976
v -0.002880 -0.009737 0.022009
v -0.005020 -0.009725 0.015976
v -0.008363 -0.006966 0.016034
v -0.007534 -0.006540 0.022607
v -0.002880 -0.009737 0.022009
v -0.005632 -0.006530 0.028956
v -0.002880 -0.009737 0.022009
v -0.007534 -0.006540 0.022607
v -0.008363 -0.006966 0.016034
v -0.008363 -0.006966 0.016034
v -0.005632 -0.006530 0.028956
v -0.007255 -0.001950 0.029022
v -0.007534 -0.006540 0.022607
v -0.007534 -0.006540 0.022607
v -0.008649 -0.003869 0.022605
v -0.008363 -0.006966 0.016034
v -0.008649 -0.003869 0.022605
v -0.007534 -0.006540 0.022607
v -0.007255 -0.001950 0.029022
v -0.009643 -0.002835 0.015660
v -0.008363 -0.006966 0.016034
v -0.009643 -0.002835 0.015660
v -0.009643 -0.002835 0.015660
v -0.008363 -0.006966 0.016034
v -0.008649 -0.003869 0.022605
v -0.000593 -0.003083 0.034949
v -0.000633 0.002897 0.034852
v -0.000593 -0.003083 0.034949
v -0.000633 0.002897 0.034852
v -0.005632 -0.006530 0.028956
v -0.003366 -0.005895 0.032304
v -0.005632 -0.006530 0.028956
v -0.003366 -0.005895 0.032304
v -0.004682 -0.003336 0.032813
v -0.005632 -0.006530 0.028956
v -0.004682 -0.003336 0.032813
v -0.007255 -0.001950 0.029022
v -0.005632 -0.006530 0.028956
v -0.009709 0.003939 0.011084
v -0.009709 0.003939 0.011084
v -0.005021 0.009725 0.015963
v -0.008364 0.006967 0.016020
v -0.007826 0.007158 0.022756
v -0.001241 0.009813 0.022921
v -0.005021 0.009725 0.015963
v -0.007826 0.007158 0.022756
vn -0.8275 -0.0002 0.5615
vn -0.9773 -0.0002 0.2120
vn -0.9772 -0.0000 0.2122
vn -0.9899 -0.0001 0.1416
vn -0.9899 -0.0000 0.1418
vn -0.9999 -0.0000 0.0142
vn -0.1897 0.9776 0.0908
vn -0.3678 0.8970 0.2452
vn -0.8192 0.4023 0.4089
vn -0.9371 0.2218 0.2696
vn -0.9683 0.2396 0.0705
vn -0.9540 0.2881 0.0831
vn -0.9533 0.2870 0.0935
vn -0.3131 0.4617 0.8299
vn -0.5355 0.6689 0.5156
vn -0.8252 0.4045 0.3943
vn -0.4871 0.0109 0.8733
vn -0.4641 0.0267 0.8854
vn -0.4106 -0.3763 0.8305
vn -0.8027 0.0361 0.5953
vn -0.6189 -0.7546 0.2180
vn -0.5441 -0.8228 0.1643
vn -0.5512 -0.8253 0.1230
vn -0.9058 -0.3249 0.2719
vn -0.9138 -0.3813 0.1399
vn -0.8801 -0.3671 0.3010
vn -0.9533 -0.2870 0.0938
vn -0.6896 -0.4651 0.5550
vn -0.8364 -0.3029 0.4569
vn -0.6359 0.7712 0.0289
vn -0.3712 0.9089 0.1902
s 0
f 1//1 2//1 3//1
f 4//2 5//2 6//2
f 7//3 8//3 9//3
f 10//4 11//4 12//4
f 13//5 14//5 15//5
f 16//6 17//6 18//6
f 31//7 32//7 33//7
f 37//8 38//8 39//8
f 41//9 42//9 43//9
f 44//10 45//10 46//10
f 47//11 48//11 49//11
f 52//12 53//12 54//12
f 55//13 56//13 57//13
f 60//14 61//14 62//14
f 66//15 67//15 68//15
f 69//16 70//16 71//16
f 74//17 75//17 76//17
f 77//18 78//18 79//18
f 80//19 81//19 82//19
f 83//20 84//20 85//20
f 92//21 93//21 94//21
f 97//22 98//22 99//22
f 100//23 101//23 102//23
f 104//24 105//24 106//24
f 107//25 108//25 109//25
f 110//26 111//26 112//26
f 116//27 117//27 118//27
f 126//28 127//28 128//28
f 129//29 130//29 131//29
f 134//30 135//30 136//30
f 137//31 138//31 139//31
l 24 25
l 50 51
l 120 121
l 29 30
l 86 87
l 27 28
l 35 36
l 58 59
l 64 65
l 72 73
l 19 20
l 124 125
l 88 89
l 95 96
l 114 115
