# Blender 3.6.2
# www.blender.org
o index_link_3_collisions_mesh_0
v -0.007727 0.006153 -0.013450
v -0.008563 0.005727 -0.013450
v -0.007727 0.006153 0.013450
v 0.009800 -0.007700 0.013450
v 0.009628 -0.005510 -0.013450
v 0.009628 -0.005510 0.013450
v 0.009800 -0.015700 0.013450
v -0.009800 -0.015700 -0.013450
v 0.009800 -0.015700 -0.013450
v 0.007126 0.000529 -0.013450
v 0.008274 -0.001344 0.013450
v 0.008274 -0.001344 -0.013450
v -0.002010 0.006128 -0.013450
v -0.008563 0.005727 -0.013450
v -0.004200 0.006300 -0.013450
v 0.009800 -0.007700 -0.013450
v 0.009800 -0.007700 0.013450
v 0.009800 -0.015700 -0.013450
v -0.009800 -0.015700 0.013450
v -0.009800 0.003300 0.013450
v -0.009800 -0.015700 -0.013450
v -0.009800 -0.015700 0.013450
v -0.008563 0.005727 0.013450
v -0.009800 0.003300 0.013450
v 0.009628 -0.005510 -0.013450
v -0.008563 0.005727 -0.013450
v 0.009115 -0.003374 -0.013450
v -0.009800 -0.015700 0.013450
v -0.009800 -0.015700 -0.013450
v 0.009800 -0.015700 0.013450
v 0.009628 -0.005510 0.013450
v -0.008563 0.005727 0.013450
v 0.009800 -0.007700 0.013450
v 0.009115 -0.003374 0.013450
v 0.009628 -0.005510 -0.013450
v 0.009115 -0.003374 -0.013450
v 0.005699 0.002199 0.013450
v -0.008563 0.005727 0.013450
v 0.007126 0.000529 0.013450
v -0.009800 -0.015700 -0.013450
v -0.009800 0.003300 0.013450
v -0.009800 0.003300 -0.013450
v -0.009800 0.003300 -0.013450
v -0.009653 0.004227 0.013450
v -0.009653 0.004227 -0.013450
v 0.005699 0.002199 0.013450
v 0.007126 0.000529 -0.013450
v 0.005699 0.002199 -0.013450
v 0.009800 -0.007700 -0.013450
v -0.008563 0.005727 -0.013450
v 0.009628 -0.005510 -0.013450
v 0.008274 -0.001344 -0.013450
v 0.008274 -0.001344 0.013450
v 0.009115 -0.003374 -0.013450
v 0.009800 -0.015700 0.013450
v -0.008563 0.005727 0.013450
v -0.009800 -0.015700 0.013450
v 0.009115 -0.003374 0.013450
v -0.008563 0.005727 0.013450
v 0.009628 -0.005510 0.013450
v -0.009653 0.004227 -0.013450
v -0.009653 0.004227 0.013450
v -0.009227 0.005063 -0.013450
v 0.009800 -0.015700 -0.013450
v 0.009800 -0.007700 0.013450
v 0.009800 -0.015700 0.013450
v -0.002010 0.006128 -0.013450
v -0.002010 0.006128 0.013450
v 0.000126 0.005615 -0.013450
v 0.004029 0.003626 -0.013450
v 0.002156 0.004774 0.013450
v 0.004029 0.003626 0.013450
v -0.002010 0.006128 0.013450
v -0.008563 0.005727 0.013450
v 0.000126 0.005615 0.013450
v 0.009628 -0.005510 0.013450
v 0.009628 -0.005510 -0.013450
v 0.009115 -0.003374 0.013450
v -0.006800 0.006300 -0.013450
v -0.008563 0.005727 -0.013450
v -0.007727 0.006153 -0.013450
v -0.006800 0.006300 0.013450
v -0.004200 0.006300 -0.013450
v -0.006800 0.006300 -0.013450
v -0.004200 0.006300 0.013450
v -0.004200 0.006300 -0.013450
v -0.006800 0.006300 0.013450
v -0.004200 0.006300 0.013450
v -0.002010 0.006128 0.013450
v -0.004200 0.006300 -0.013450
v 0.009800 -0.007700 -0.013450
v 0.009628 -0.005510 -0.013450
v 0.009800 -0.007700 0.013450
v 0.007126 0.000529 0.013450
v 0.007126 0.000529 -0.013450
v 0.005699 0.002199 0.013450
v -0.004200 0.006300 0.013450
v -0.008563 0.005727 0.013450
v -0.002010 0.006128 0.013450
v 0.009115 -0.003374 -0.013450
v 0.008274 -0.001344 0.013450
v 0.009115 -0.003374 0.013450
v -0.009800 -0.015700 -0.013450
v -0.008563 0.005727 -0.013450
v 0.009800 -0.015700 -0.013450
v 0.008274 -0.001344 -0.013450
v -0.008563 0.005727 -0.013450
v 0.007126 0.000529 -0.013450
v 0.002156 0.004774 -0.013450
v 0.002156 0.004774 0.013450
v 0.004029 0.003626 -0.013450
v 0.000126 0.005615 -0.013450
v -0.002010 0.006128 0.013450
v 0.000126 0.005615 0.013450
v 0.007126 0.000529 0.013450
v -0.008563 0.005727 0.013450
v 0.008274 -0.001344 0.013450
v -0.006800 0.006300 -0.013450
v -0.007727 0.006153 -0.013450
v -0.006800 0.006300 0.013450
v 0.005699 0.002199 -0.013450
v 0.004029 0.003626 -0.013450
v 0.005699 0.002199 0.013450
v -0.007727 0.006153 0.013450
v -0.008563 0.005727 -0.013450
v -0.008563 0.005727 0.013450
v -0.009227 0.005063 0.013450
v -0.008563 0.005727 -0.013450
v -0.009227 0.005063 -0.013450
v -0.009800 0.003300 0.013450
v -0.009653 0.004227 0.013450
v -0.009800 0.003300 -0.013450
v -0.004200 0.006300 -0.013450
v -0.008563 0.005727 -0.013450
v -0.006800 0.006300 -0.013450
v -0.006800 0.006300 0.013450
v -0.007727 0.006153 -0.013450
v -0.007727 0.006153 0.013450
v 0.009800 -0.007700 0.013450
v -0.008563 0.005727 0.013450
v 0.009800 -0.015700 0.013450
v -0.004200 0.006300 -0.013450
v -0.002010 0.006128 0.013450
v -0.002010 0.006128 -0.013450
v 0.007126 0.000529 0.013450
v 0.008274 -0.001344 0.013450
v 0.007126 0.000529 -0.013450
v -0.007727 0.006153 0.013450
v -0.008563 0.005727 0.013450
v -0.006800 0.006300 0.013450
v 0.009115 -0.003374 -0.013450
v -0.008563 0.005727 -0.013450
v 0.008274 -0.001344 -0.013450
v 0.007126 0.000529 -0.013450
v -0.008563 0.005727 -0.013450
v 0.005699 0.002199 -0.013450
v 0.005699 0.002199 0.013450
v 0.004029 0.003626 -0.013450
v 0.004029 0.003626 0.013450
v -0.006800 0.006300 0.013450
v -0.008563 0.005727 0.013450
v -0.004200 0.006300 0.013450
v -0.008563 0.005727 0.013450
v -0.008563 0.005727 -0.013450
v -0.009227 0.005063 0.013450
v 0.008274 -0.001344 0.013450
v -0.008563 0.005727 0.013450
v 0.009115 -0.003374 0.013450
v -0.009653 0.004227 -0.013450
v -0.008563 0.005727 -0.013450
v -0.009800 0.003300 -0.013450
v -0.009227 0.005063 -0.013450
v -0.008563 0.005727 -0.013450
v -0.009653 0.004227 -0.013450
v 0.000126 0.005615 -0.013450
v 0.002156 0.004774 0.013450
v 0.002156 0.004774 -0.013450
v 0.000126 0.005615 0.013450
v 0.002156 0.004774 0.013450
v 0.000126 0.005615 -0.013450
v -0.009227 0.005063 -0.013450
v -0.009653 0.004227 0.013450
v -0.009227 0.005063 0.013450
v 0.002156 0.004774 -0.013450
v -0.008563 0.005727 -0.013450
v 0.000126 0.005615 -0.013450
v 0.004029 0.003626 -0.013450
v -0.008563 0.005727 -0.013450
v 0.002156 0.004774 -0.013450
v 0.004029 0.003626 0.013450
v -0.008563 0.005727 0.013450
v 0.005699 0.002199 0.013450
v 0.009800 -0.015700 -0.013450
v -0.008563 0.005727 -0.013450
v 0.009800 -0.007700 -0.013450
v -0.009800 0.003300 -0.013450
v -0.008563 0.005727 -0.013450
v -0.009800 -0.015700 -0.013450
v -0.009800 0.003300 0.013450
v -0.008563 0.005727 0.013450
v -0.009653 0.004227 0.013450
v -0.009653 0.004227 0.013450
v -0.008563 0.005727 0.013450
v -0.009227 0.005063 0.013450
v 0.000126 0.005615 -0.013450
v -0.008563 0.005727 -0.013450
v -0.002010 0.006128 -0.013450
v 0.005699 0.002199 -0.013450
v -0.008563 0.005727 -0.013450
v 0.004029 0.003626 -0.013450
v 0.002156 0.004774 0.013450
v -0.008563 0.005727 0.013450
v 0.004029 0.003626 0.013450
v 0.000126 0.005615 0.013450
v -0.008563 0.005727 0.013450
v 0.002156 0.004774 0.013450
vn -0.4540 0.8910 -0.0000
vn 0.9969 0.0785 -0.0000
vn -0.0000 -1.0000 -0.0000
vn 0.8526 0.5225 -0.0000
vn -0.0000 -0.0000 -1.0000
vn 1.0000 -0.0000 -0.0000
vn -1.0000 -0.0000 -0.0000
vn -0.0000 -0.0000 1.0000
vn 0.9724 0.2334 -0.0000
vn -0.9877 0.1564 -0.0000
vn 0.7604 0.6495 -0.0000
vn 0.9239 0.3827 -0.0000
vn -0.8910 0.4540 -0.0000
vn 0.2334 0.9724 -0.0000
vn 0.5225 0.8526 -0.0000
vn -0.0000 1.0000 -0.0000
vn 0.0785 0.9969 -0.0000
vn -0.1564 0.9877 -0.0000
vn 0.6495 0.7604 -0.0000
vn -0.7071 0.7071 -0.0000
vn 0.3827 0.9239 -0.0000
s 0
f 1//1 2//1 3//1
f 4//2 5//2 6//2
f 7//3 8//3 9//3
f 10//4 11//4 12//4
f 13//5 14//5 15//5
f 16//6 17//6 18//6
f 19//7 20//7 21//7
f 22//8 23//8 24//8
f 25//5 26//5 27//5
f 28//3 29//3 30//3
f 31//8 32//8 33//8
f 34//9 35//9 36//9
f 37//8 38//8 39//8
f 40//7 41//7 42//7
f 43//10 44//10 45//10
f 46//11 47//11 48//11
f 49//5 50//5 51//5
f 52//12 53//12 54//12
f 55//8 56//8 57//8
f 58//8 59//8 60//8
f 61//13 62//13 63//13
f 64//6 65//6 66//6
f 67//14 68//14 69//14
f 70//15 71//15 72//15
f 73//8 74//8 75//8
f 76//9 77//9 78//9
f 79//5 80//5 81//5
f 82//16 83//16 84//16
f 85//16 86//16 87//16
f 88//17 89//17 90//17
f 91//2 92//2 93//2
f 94//11 95//11 96//11
f 97//8 98//8 99//8
f 100//12 101//12 102//12
f 103//5 104//5 105//5
f 106//5 107//5 108//5
f 109//15 110//15 111//15
f 112//14 113//14 114//14
f 115//8 116//8 117//8
f 118//18 119//18 120//18
f 121//19 122//19 123//19
f 124//1 125//1 126//1
f 127//20 128//20 129//20
f 130//10 131//10 132//10
f 133//5 134//5 135//5
f 136//18 137//18 138//18
f 139//8 140//8 141//8
f 142//17 143//17 144//17
f 145//4 146//4 147//4
f 148//8 149//8 150//8
f 151//5 152//5 153//5
f 154//5 155//5 156//5
f 157//19 158//19 159//19
f 160//8 161//8 162//8
f 163//20 164//20 165//20
f 166//8 167//8 168//8
f 169//5 170//5 171//5
f 172//5 173//5 174//5
f 175//21 176//21 177//21
f 178//21 179//21 180//21
f 181//13 182//13 183//13
f 184//5 185//5 186//5
f 187//5 188//5 189//5
f 190//8 191//8 192//8
f 193//5 194//5 195//5
f 196//5 197//5 198//5
f 199//8 200//8 201//8
f 202//8 203//8 204//8
f 205//5 206//5 207//5
f 208//5 209//5 210//5
f 211//8 212//8 213//8
f 214//8 215//8 216//8
