# Blender 4.2.3 LTS
# www.blender.org
mtllib index_link_1_collisions_xform_collisions.mtl
o index_link_1_collisions_xform_collisions
v -0.003000 -0.011900 0.014250
v -0.003000 -0.014391 0.014212
v 0.057000 -0.014200 -0.014250
v 0.057000 -0.011900 0.014250
v 0.057000 -0.014662 -0.013941
v -0.003000 -0.014700 -0.013750
v -0.003000 -0.014662 -0.013941
v -0.003000 -0.014200 -0.014250
v -0.003000 -0.014200 0.014250
v 0.057000 -0.014391 0.014212
v -0.003000 -0.014700 0.013750
v 0.057000 -0.014700 0.013750
v 0.057000 -0.014700 -0.013750
v 0.032074 -0.001314 -0.014250
v 0.021926 -0.001314 -0.014250
v -0.003000 -0.011900 -0.014250
v 0.057000 -0.014200 0.014250
v 0.031500 -0.001200 0.014250
v 0.032074 -0.001314 0.014250
v 0.021926 -0.001314 0.014250
v 0.022500 -0.001200 0.014250
v 0.057000 -0.011900 -0.014250
v 0.031500 -0.001200 -0.014250
v 0.022500 -0.001200 -0.014250
v 0.057800 0.009800 -0.010800
v 0.062800 0.004800 -0.010800
v 0.043778 0.008957 -0.013500
v 0.041975 0.009704 -0.013500
v 0.041000 0.009800 -0.013500
v 0.044536 0.008336 -0.013500
v 0.042913 0.009419 -0.013500
v 0.058775 0.009704 -0.010800
v 0.059713 0.009419 -0.010800
v 0.060578 0.008957 -0.010800
v 0.061336 0.008336 -0.010800
v 0.061957 0.007578 -0.010800
v 0.062419 0.006713 -0.010800
v 0.062704 0.005775 -0.010800
v 0.062800 -0.004800 -0.010800
v 0.062704 -0.005775 -0.010800
v 0.062419 -0.006713 -0.010800
v 0.061957 -0.007578 -0.010800
v 0.057800 0.009800 0.011000
v 0.058775 0.009704 0.011000
v 0.062704 0.005775 0.011000
v 0.062419 0.006713 0.011000
v 0.061957 0.007578 0.011000
v 0.062800 -0.004800 0.011000
v 0.061957 -0.007578 0.011000
v 0.061336 0.008336 0.011000
v 0.060578 0.008957 0.011000
v 0.059713 0.009419 0.011000
v 0.062800 0.004800 0.011000
v 0.062419 -0.006713 0.011000
v 0.062704 -0.005775 0.011000
v 0.042913 0.009419 0.013500
v 0.044536 0.008336 0.013500
v 0.041000 0.009800 0.013500
v 0.041975 0.009704 0.013500
v 0.043778 0.008957 0.013500
v -0.003800 0.009800 0.011000
v -0.007957 -0.007578 0.011000
v -0.008800 0.004800 0.011000
v -0.004775 0.009704 0.011000
v -0.005713 0.009419 0.011000
v -0.006578 0.008957 0.011000
v -0.007336 0.008336 0.011000
v -0.007957 0.007578 0.011000
v -0.008419 0.006713 0.011000
v -0.008704 0.005775 0.011000
v 0.011087 0.009419 0.013500
v 0.010222 0.008957 0.013500
v 0.013000 0.009800 0.013500
v 0.009464 0.008336 0.013500
v 0.012025 0.009704 0.013500
v -0.008800 -0.004800 0.011000
v -0.008704 -0.005775 0.011000
v -0.008419 -0.006713 0.011000
v -0.003800 0.009800 -0.010800
v -0.007336 0.008336 -0.010800
v -0.006578 0.008957 -0.010800
v -0.008800 0.004800 -0.010800
v -0.008800 -0.004800 -0.010800
v -0.008704 -0.005775 -0.010800
v 0.009464 0.008336 -0.013500
v 0.010222 0.008957 -0.013500
v 0.011087 0.009419 -0.013500
v 0.012025 0.009704 -0.013500
v 0.013000 0.009800 -0.013500
v -0.008704 0.005775 -0.010800
v -0.008419 0.006713 -0.010800
v -0.007957 0.007578 -0.010800
v -0.005713 0.009419 -0.010800
v -0.004775 0.009704 -0.010800
v -0.007957 -0.007578 -0.010800
v -0.008419 -0.006713 -0.010800
vn -0.0000 -0.0000 -1.0000
vn -0.7920 -0.3394 -0.5075
vn -0.7211 -0.2191 -0.6572
vn -0.5768 -0.0568 -0.8149
vn -0.5112 -0.0000 -0.8594
vn -0.0000 -0.9808 -0.1951
vn -0.0000 -0.8312 0.5559
vn -0.8363 -0.5378 -0.1070
vn -0.8378 -0.4475 -0.3130
vn -0.8821 -0.4711 -0.0000
vn -0.9568 -0.2907 -0.0000
vn -0.9952 -0.0980 -0.0000
vn -1.0000 -0.0000 -0.0000
vn -0.0000 -1.0000 -0.0000
vn -0.4201 0.0414 -0.9065
vn -0.2962 0.0900 -0.9509
vn -0.2177 0.1163 -0.9691
vn -0.1613 0.1322 -0.9780
vn -0.1573 0.1331 -0.9785
vn -0.0610 0.0745 -0.9954
vn -0.0290 0.0543 -0.9981
vn -0.0207 0.0488 -0.9986
vn 0.5112 -0.0000 -0.8594
vn 0.5768 -0.0568 -0.8149
vn 0.7211 -0.2191 -0.6572
vn 0.7920 -0.3394 -0.5075
vn 0.8208 -0.5713 -0.0000
vn -0.9952 0.0980 -0.0000
vn 0.8378 -0.4475 -0.3130
vn 0.8363 -0.5378 -0.1070
vn -0.8294 -0.4430 0.3404
vn -0.7044 -0.2140 0.6768
vn -0.6463 -0.1489 0.7484
vn -0.5539 -0.0545 0.8308
vn -0.9568 0.2907 -0.0000
vn -0.4888 -0.0000 0.8724
vn -0.8821 0.4711 -0.0000
vn -0.7735 0.6337 -0.0000
vn -0.6337 0.7735 -0.0000
vn 1.0000 -0.0000 -0.0000
vn -0.1521 0.2848 -0.9464
vn -0.1407 0.4629 -0.8752
vn 0.0115 0.0577 -0.9983
vn 0.0290 0.0543 -0.9981
vn 0.0610 0.0745 -0.9954
vn 0.1573 0.1331 -0.9785
vn 0.1613 0.1322 -0.9780
vn 0.2177 0.1163 -0.9691
vn 0.2962 0.0900 -0.9509
vn 0.4201 0.0414 -0.9065
vn 0.0207 0.0488 -0.9986
vn 0.9952 -0.0980 -0.0000
vn 0.9568 -0.2907 -0.0000
vn 0.8821 -0.4711 -0.0000
vn -0.0000 -0.1951 0.9808
vn -0.8325 -0.4605 0.3080
vn -0.8208 -0.5713 -0.0000
vn -0.0115 0.0577 0.9983
vn -0.4711 0.8821 -0.0000
vn -0.0000 -0.0000 1.0000
vn -0.3998 0.0394 0.9158
vn -0.2806 0.0852 0.9560
vn -0.2057 0.1099 0.9724
vn -0.1524 0.1248 0.9804
vn -0.1460 0.1263 0.9812
vn -0.1449 0.1768 0.9735
vn -0.2907 0.9568 -0.0000
vn 0.6337 0.7735 -0.0000
vn -0.0062 0.0627 -0.9980
vn -0.0837 0.8497 -0.5206
vn -0.0000 0.0680 -0.9977
vn 0.1521 0.2848 -0.9464
vn 0.0162 0.0534 0.9984
vn 0.1407 0.4629 -0.8752
vn 0.1558 0.1902 -0.9693
vn 0.1558 0.1901 -0.9693
vn 0.7735 0.6337 -0.0000
vn 0.8821 0.4711 -0.0000
vn 0.9568 0.2907 -0.0000
vn 0.9952 0.0980 -0.0000
vn -0.0980 0.9952 -0.0000
vn 0.5539 -0.0545 0.8308
vn 0.4888 -0.0000 0.8724
vn 0.6464 -0.1489 0.7484
vn 0.7044 -0.2140 0.6768
vn 0.8294 -0.4430 0.3404
vn 0.8325 -0.4605 0.3080
vn -0.0290 0.0543 0.9981
vn -0.0610 0.0745 0.9954
vn -0.0207 0.0488 0.9986
vn -0.1419 0.2657 0.9536
vn -0.1325 0.4360 0.8902
vn 0.4711 0.8821 -0.0000
vn -0.0000 1.0000 -0.0000
vn 0.0062 0.0627 -0.9980
vn 0.2907 0.9568 -0.0000
vn 0.0980 0.9952 -0.0000
vn 0.0837 0.8497 -0.5206
vn 0.1449 0.1768 0.9735
vn 0.1460 0.1263 0.9812
vn 0.1524 0.1248 0.9804
vn 0.2057 0.1099 0.9724
vn 0.2806 0.0852 0.9560
vn 0.3998 0.0394 0.9158
vn -0.0162 0.0534 -0.9984
vn 0.0610 0.0745 0.9954
vn 0.0290 0.0543 0.9981
vn 0.0207 0.0488 0.9986
vn -0.0818 0.8312 0.5500
vn 0.1325 0.4360 0.8902
vn 0.1419 0.2657 0.9536
vn -0.0000 -0.5559 -0.8312
vn -0.0062 0.0627 0.9980
vn -0.0000 0.0680 0.9977
vn 0.0818 0.8312 0.5500
vn 0.0062 0.0627 0.9980
vn -0.1558 0.1902 -0.9693
vn 0.0162 0.0534 -0.9984
vn -0.0162 0.0534 0.9984
vn 0.0115 0.0577 0.9983
vn -0.0115 0.0577 -0.9983
s 0
f 8//1 22//1 3//1
f 7//2 96//2 8//2
f 96//3 84//3 8//3
f 84//4 83//4 8//4
f 83//5 82//5 16//5
f 83//5 16//5 8//5
f 16//1 15//1 24//1
f 16//1 24//1 23//1
f 16//1 23//1 14//1
f 16//1 14//1 22//1
f 7//6 13//6 6//6
f 11//7 10//7 2//7
f 6//8 95//8 7//8
f 95//9 96//9 7//9
f 96//10 62//10 78//10
f 96//11 77//11 84//11
f 84//12 76//12 83//12
f 83//13 63//13 82//13
f 6//14 12//14 11//14
f 82//15 90//15 16//15
f 90//16 91//16 16//16
f 91//17 92//17 16//17
f 92//18 80//18 16//18
f 80//19 85//19 16//19
f 85//20 86//20 16//20
f 86//21 87//21 16//21
f 87//22 15//22 16//22
f 22//23 26//23 39//23
f 22//23 39//23 3//23
f 39//24 40//24 3//24
f 40//25 41//25 3//25
f 41//26 5//26 3//26
f 12//27 42//27 49//27
f 82//28 70//28 90//28
f 41//29 42//29 5//29
f 42//30 13//30 5//30
f 62//31 2//31 78//31
f 2//32 77//32 78//32
f 2//33 9//33 77//33
f 9//34 76//34 77//34
f 90//35 69//35 91//35
f 9//36 1//36 63//36
f 9//36 63//36 76//36
f 91//37 68//37 92//37
f 92//38 67//38 80//38
f 80//39 66//39 81//39
f 39//40 53//40 48//40
f 81//41 93//41 87//41
f 81//41 87//41 86//41
f 93//42 94//42 88//42
f 93//42 88//42 87//42
f 28//43 14//43 23//43
f 31//44 27//44 22//44
f 27//45 30//45 22//45
f 30//46 35//46 22//46
f 35//47 36//47 22//47
f 36//48 37//48 22//48
f 37//49 38//49 22//49
f 38//50 26//50 22//50
f 14//51 31//51 22//51
f 39//52 55//52 40//52
f 40//53 54//53 41//53
f 41//54 49//54 42//54
f 2//55 17//55 9//55
f 2//56 62//56 11//56
f 95//57 11//57 62//57
f 75//58 20//58 21//58
f 81//59 65//59 93//59
f 17//60 4//60 19//60
f 17//60 19//60 18//60
f 17//60 18//60 21//60
f 17//60 21//60 20//60
f 17//60 20//60 1//60
f 17//60 1//60 9//60
f 1//61 70//61 63//61
f 1//62 69//62 70//62
f 1//63 68//63 69//63
f 1//64 67//64 68//64
f 1//65 74//65 67//65
f 74//66 72//66 66//66
f 74//66 66//66 67//66
f 93//67 64//67 94//67
f 35//68 51//68 50//68
f 89//69 24//69 88//69
f 94//70 79//70 89//70
f 94//70 89//70 88//70
f 89//71 29//71 23//71
f 89//71 23//71 24//71
f 33//72 34//72 27//72
f 33//72 27//72 31//72
f 59//73 19//73 56//73
f 28//74 32//74 33//74
f 28//74 33//74 31//74
f 34//75 35//75 30//75
f 34//76 30//76 27//76
f 35//77 47//77 36//77
f 36//78 46//78 37//78
f 37//79 45//79 38//79
f 38//80 53//80 26//80
f 94//81 61//81 79//81
f 17//82 55//82 48//82
f 53//83 4//83 17//83
f 53//83 17//83 48//83
f 17//84 10//84 55//84
f 10//85 54//85 55//85
f 10//86 49//86 54//86
f 49//87 10//87 12//87
f 71//88 72//88 1//88
f 72//89 74//89 1//89
f 20//90 71//90 1//90
f 72//91 71//91 65//91
f 72//91 65//91 66//91
f 71//92 75//92 64//92
f 71//92 64//92 65//92
f 33//93 51//93 34//93
f 79//94 61//94 73//94
f 79//94 73//94 58//94
f 79//94 58//94 43//94
f 79//94 43//94 25//94
f 79//94 25//94 29//94
f 79//94 29//94 89//94
f 29//95 28//95 23//95
f 33//96 44//96 52//96
f 32//97 43//97 44//97
f 29//98 25//98 32//98
f 29//98 32//98 28//98
f 51//99 60//99 57//99
f 51//99 57//99 50//99
f 57//100 4//100 50//100
f 4//101 47//101 50//101
f 4//102 46//102 47//102
f 4//103 45//103 46//103
f 4//104 53//104 45//104
f 88//105 15//105 87//105
f 57//106 60//106 4//106
f 60//107 56//107 4//107
f 56//108 19//108 4//108
f 75//109 73//109 61//109
f 75//109 61//109 64//109
f 44//110 59//110 56//110
f 44//110 56//110 52//110
f 56//111 60//111 51//111
f 56//111 51//111 52//111
f 8//112 5//112 7//112
f 21//113 73//113 75//113
f 18//114 58//114 73//114
f 18//114 73//114 21//114
f 43//115 58//115 59//115
f 43//115 59//115 44//115
f 59//116 58//116 18//116
f 80//117 81//117 86//117
f 80//117 86//117 85//117
f 8//1 16//1 22//1
f 7//6 5//6 13//6
f 11//7 12//7 10//7
f 96//10 95//10 62//10
f 96//11 78//11 77//11
f 84//12 77//12 76//12
f 83//13 76//13 63//13
f 6//14 13//14 12//14
f 12//27 13//27 42//27
f 82//28 63//28 70//28
f 90//35 70//35 69//35
f 91//37 69//37 68//37
f 92//38 68//38 67//38
f 80//39 67//39 66//39
f 39//40 26//40 53//40
f 28//118 31//118 14//118
f 39//52 48//52 55//52
f 40//53 55//53 54//53
f 41//54 54//54 49//54
f 2//55 10//55 17//55
f 95//57 6//57 11//57
f 75//119 71//119 20//119
f 81//59 66//59 65//59
f 93//67 65//67 64//67
f 35//68 34//68 51//68
f 59//120 18//120 19//120
f 35//77 50//77 47//77
f 36//78 47//78 46//78
f 37//79 46//79 45//79
f 38//80 45//80 53//80
f 94//81 64//81 61//81
f 33//93 52//93 51//93
f 33//96 32//96 44//96
f 32//97 25//97 43//97
f 88//121 24//121 15//121
f 8//112 3//112 5//112
