# Blender 4.0.2
# www.blender.org
o index_link_2_visuals_xform_visuals
v 0.014400 0.009800 -0.006100
v 0.014400 0.009800 -0.006100
v 0.042200 0.009800 -0.006100
v 0.042200 0.009800 -0.006100
v 0.042200 0.009800 -0.006100
v 0.014400 0.009800 -0.006100
v 0.014400 0.009800 -0.006100
v 0.014400 0.009800 -0.006100
v 0.042200 0.009800 0.006300
v 0.042200 0.009800 0.006300
v 0.042200 0.009800 0.006300
v 0.042200 0.009800 0.006300
v 0.014400 0.009800 0.006300
v 0.014400 0.009800 0.006300
v 0.014400 0.009800 0.006300
v 0.014400 0.009800 0.006300
v 0.042200 0.009800 -0.006100
v 0.042200 0.009800 -0.006100
v 0.042200 0.009800 0.006300
v 0.042200 0.009800 -0.006100
v 0.014400 0.009800 -0.006100
v 0.042200 0.009800 0.006300
v 0.014400 0.009800 -0.006100
v 0.014400 0.009800 0.006300
v 0.042200 0.009800 0.006300
v 0.014400 0.009800 0.006300
v 0.014400 0.009800 -0.006100
v 0.014400 0.009800 0.006300
v 0.014400 0.009800 0.006300
v 0.042200 0.009800 0.006300
v 0.014400 0.009800 0.006300
v 0.014400 0.009800 0.006300
v 0.042200 0.009800 0.006300
v 0.042200 0.009800 0.006300
v 0.042200 0.009800 0.006300
v 0.042200 0.009800 0.006300
v 0.014400 0.009800 0.006300
v 0.014400 0.009800 0.006300
v 0.042200 0.009800 0.006300
v 0.042200 0.009800 0.006300
v 0.042200 0.009800 0.006300
v 0.014400 0.009800 0.006300
v 0.014400 0.009800 0.006300
v 0.014400 0.009800 0.006300
v 0.042200 0.009800 -0.006100
v 0.014400 0.009800 -0.006100
v 0.014400 0.009800 -0.006100
v 0.014400 0.009800 -0.006100
v 0.014400 0.009800 -0.006100
v 0.014400 0.009800 -0.006100
v 0.014400 0.009800 -0.006100
v 0.042200 0.009800 -0.006100
v 0.042200 0.009800 -0.006100
v 0.014400 0.009800 -0.006100
v 0.042200 0.009800 -0.006100
v 0.042200 0.009800 -0.006100
v 0.014400 0.009800 -0.006100
v 0.016888 0.009800 0.009357
v 0.042200 0.009800 0.010061
v 0.016888 0.009800 0.009357
v 0.029972 0.009800 0.009721
v 0.015627 0.009800 0.009321
v 0.014400 0.009800 0.009287
v 0.014400 0.009800 0.009287
v 0.015627 0.009800 0.009321
v 0.042200 0.009800 0.010061
v 0.029972 0.009800 0.009721
v 0.014400 0.009800 -0.010548
v 0.015551 0.009800 -0.010529
v 0.042200 0.009800 -0.010091
v 0.042200 0.009800 -0.010091
v 0.024424 0.009800 -0.010383
v 0.015551 0.009800 -0.010529
v 0.038380 0.009800 -0.010154
v 0.014400 0.009800 -0.010548
v 0.038380 0.009800 -0.010154
v 0.024424 0.009800 -0.010383
vn -0.0000 1.0000 -0.0000
s 0
f 20//1 21//1 22//1
f 23//1 24//1 25//1
f 66//1 33//1 67//1
f 76//1 77//1 47//1
f 68//1 48//1 69//1
f 32//1 64//1 65//1
f 34//1 60//1 61//1
f 30//1 31//1 62//1 58//1
f 49//1 72//1 73//1
f 45//1 70//1 74//1 46//1
l 63 29
l 71 52
l 38 39
l 18 19
l 26 27
l 53 54
l 12 13
l 2 3
l 36 59
l 51 75
