# Blender 4.0.2
# www.blender.org
o palm_link_visuals_xform_visuals
v 0.031775 -0.007421 0.000000
v 0.030719 0.059337 -0.000000
v 0.031208 0.028415 -0.000000
v 0.031774 -0.007375 0.000000
v 0.031775 -0.007421 0.000000
v 0.031776 -0.007478 0.000000
v 0.031751 -0.005876 0.000000
v 0.031754 -0.006070 0.000000
v 0.031778 -0.007616 0.000000
v 0.031882 -0.014200 0.000000
v 0.031213 0.028116 -0.000000
v 0.032128 -0.029749 0.000000
v 0.031754 -0.006070 0.000000
v 0.031774 -0.007343 0.000000
v 0.031776 -0.007478 0.000000
v 0.031213 0.028116 -0.000000
v 0.031777 -0.007544 0.000000
v 0.031747 -0.005679 0.000000
v 0.030719 0.059337 -0.000000
v 0.031774 -0.007343 0.000000
v 0.031208 0.028415 -0.000000
v 0.031777 -0.007544 0.000000
v 0.031778 -0.007616 0.000000
v 0.031774 -0.007375 0.000000
v 0.032128 -0.029749 0.000000
v 0.031747 -0.005679 0.000000
v 0.031882 -0.014200 0.000000
v 0.031751 -0.005876 0.000000
v -0.013538 0.010427 -0.000000
v -0.012163 0.010255 -0.000000
v 0.010309 0.007448 -0.000000
v 0.008229 0.007708 -0.000000
v -0.012163 0.010255 -0.000000
v -0.013538 0.010427 -0.000000
v -0.012585 0.010307 -0.000000
v -0.012585 0.010307 -0.000000
v -0.013062 0.010367 -0.000000
v -0.012281 0.010269 -0.000000
v -0.013062 0.010367 -0.000000
v -0.012281 0.010269 -0.000000
v 0.008229 0.007708 -0.000000
v 0.012131 0.007220 -0.000000
v 0.012131 0.007220 -0.000000
v 0.010309 0.007448 -0.000000
v 0.031582 0.004791 -0.000000
v -0.038230 0.032228 -0.000000
v -0.037742 0.050347 -0.000000
v -0.038088 0.037522 -0.000000
v -0.038159 0.034876 -0.000000
v -0.038299 0.029693 -0.000000
v -0.037920 0.043742 -0.000000
v -0.038233 0.032142 -0.000000
v -0.038233 0.032142 -0.000000
v -0.037742 0.050347 -0.000000
v -0.038231 0.032204 -0.000000
v -0.038231 0.032204 -0.000000
v -0.037819 0.047480 -0.000000
v -0.037920 0.043742 -0.000000
v -0.037819 0.047480 -0.000000
v -0.038299 0.029693 -0.000000
v -0.038230 0.032228 -0.000000
v -0.038235 0.032043 -0.000000
v -0.038235 0.032043 -0.000000
v -0.038159 0.034876 -0.000000
v -0.038016 0.040196 -0.000000
v -0.038016 0.040196 -0.000000
v -0.038088 0.037522 -0.000000
v -0.038733 0.013573 -0.000000
v 0.030755 0.057048 -0.000000
v -0.037754 0.049916 -0.000000
v 0.005564 -0.039130 0.000000
v -0.001622 -0.038540 0.000000
v -0.001622 -0.038540 0.000000
v 0.005564 -0.039130 0.000000
v 0.029363 -0.041082 0.000000
v 0.029363 -0.041082 0.000000
v 0.032311 -0.041324 0.000000
v -0.000934 0.003894 -0.000000
v -0.000994 0.003593 -0.000000
v -0.001253 0.002290 -0.000000
v -0.004494 -0.013991 0.000000
v -0.001157 0.002774 -0.000000
v -0.001253 0.002290 -0.000000
v -0.000994 0.003593 -0.000000
v 0.005368 0.035552 -0.000000
v -0.001069 0.003214 -0.000000
v 0.005064 0.034026 -0.000000
v -0.000892 0.004105 -0.000000
v -0.001069 0.003214 -0.000000
v -0.001157 0.002774 -0.000000
v -0.000892 0.004105 -0.000000
v 0.005368 0.035552 -0.000000
v -0.000934 0.003894 -0.000000
v 0.000703 0.012116 -0.000000
v 0.001164 0.014432 -0.000000
v 0.001164 0.014432 -0.000000
v 0.000933 0.013274 -0.000000
v 0.000029 0.008732 -0.000000
v 0.009549 0.056557 -0.000000
v 0.000933 0.013274 -0.000000
v 0.000703 0.012116 -0.000000
v 0.005064 0.034026 -0.000000
v 0.009549 0.056557 -0.000000
v 0.009200 0.054804 -0.000000
v -0.004494 -0.013991 0.000000
v -0.001180 0.055148 -0.000000
v -0.003300 0.015905 -0.000000
v -0.003375 0.014504 -0.000000
v -0.002232 0.035675 -0.000000
v -0.001180 0.055148 -0.000000
v -0.002127 0.037622 -0.000000
v -0.002232 0.035675 -0.000000
v -0.002127 0.037622 -0.000000
v -0.003375 0.014504 -0.000000
v -0.003224 0.017317 -0.000000
v -0.003224 0.017317 -0.000000
v -0.003300 0.015905 -0.000000
v -0.003662 0.009193 -0.000000
v -0.001257 0.053715 -0.000000
vn -0.0000 -0.0000 1.0000
s 0
f 45//1 42//1 18//1
f 43//1 44//1 28//1 26//1
f 76//1 25//1 27//1 74//1
f 91//1 93//1 24//1 20//1
f 89//1 90//1 17//1 15//1
f 98//1 88//1 14//1 13//1 41//1
f 75//1 77//1 12//1
f 85//1 87//1 11//1 3//1
f 84//1 86//1 6//1 1//1
f 96//1 97//1 44//1 43//1
f 94//1 98//1 41//1
f 7//1 31//1 32//1 8//1
f 63//1 60//1 29//1 39//1
f 119//1 70//1 59//1 113//1
f 36//1 38//1 55//1 53//1
f 35//1 52//1 62//1 37//1
f 109//1 51//1 65//1 115//1
f 34//1 50//1 68//1
f 107//1 48//1 49//1 108//1
f 40//1 30//1 46//1 56//1
f 110//1 54//1 70//1 119//1
f 19//1 103//1 104//1 69//1
f 31//1 100//1 101//1 32//1
f 116//1 117//1 97//1 96//1
f 16//1 102//1 95//1 42//1 45//1
f 114//1 118//1 98//1 94//1
f 69//1 104//1 92//1 21//1
f 111//1 112//1 87//1 85//1
f 22//1 82//1 83//1 23//1
f 9//1 80//1 105//1 72//1 71//1 10//1
f 4//1 78//1 79//1 5//1
f 66//1 67//1 117//1 116//1
f 61//1 33//1 118//1 114//1 64//1
f 104//1 119//1 113//1 92//1
f 57//1 58//1 112//1 111//1
f 103//1 110//1 119//1 104//1
f 102//1 109//1 115//1 95//1
f 100//1 107//1 108//1 101//1
l 106 47
l 73 81
l 2 99
l 99 106
