# Blender 3.6.2
# www.blender.org
o index_link_1_collisions_xform_collisions
v -0.010361 0.010023 0.037860
v -0.010361 0.009999 0.035369
v 0.011143 -0.008544 0.035560
v 0.011143 0.010023 0.037860
v 0.011143 -0.008342 0.035098
v -0.010361 -0.008218 0.035060
v -0.010361 -0.008342 0.035098
v -0.010361 -0.008544 0.035560
v -0.010361 0.010023 0.035560
v 0.011143 0.009999 0.035369
v -0.010361 0.009698 0.035060
v 0.011143 0.009698 0.035060
v 0.011143 -0.008218 0.035060
v 0.002209 -0.008544 0.048446
v -0.001428 -0.008544 0.048446
v -0.010361 -0.008544 0.037860
v 0.011143 0.010023 0.035560
v 0.002004 0.010023 0.048560
v 0.002209 0.010023 0.048446
v -0.001428 0.010023 0.048446
v -0.001222 0.010023 0.048560
v 0.011143 -0.008544 0.037860
v 0.002004 -0.008544 0.048560
v -0.001222 -0.008544 0.048560
v 0.011430 -0.006296 0.059560
v 0.013222 -0.006296 0.054560
v 0.006404 -0.008055 0.058717
v 0.005758 -0.008055 0.059464
v 0.005408 -0.008055 0.059560
v 0.006676 -0.008055 0.058096
v 0.006094 -0.008055 0.059179
v 0.011779 -0.006296 0.059464
v 0.012115 -0.006296 0.059179
v 0.012425 -0.006296 0.058717
v 0.012697 -0.006296 0.058096
v 0.012919 -0.006296 0.057338
v 0.013085 -0.006296 0.056473
v 0.013187 -0.006296 0.055535
v 0.013222 -0.006296 0.044960
v 0.013187 -0.006296 0.043985
v 0.013085 -0.006296 0.043047
v 0.012919 -0.006296 0.042182
v 0.011430 0.007906 0.059560
v 0.011779 0.007906 0.059464
v 0.013187 0.007906 0.055535
v 0.013085 0.007906 0.056473
v 0.012919 0.007906 0.057338
v 0.013222 0.007906 0.044960
v 0.012919 0.007906 0.042182
v 0.012697 0.007906 0.058096
v 0.012425 0.007906 0.058717
v 0.012115 0.007906 0.059179
v 0.013222 0.007906 0.054560
v 0.013085 0.007906 0.043047
v 0.013187 0.007906 0.043985
v 0.006094 0.009535 0.059179
v 0.006676 0.009535 0.058096
v 0.005408 0.009535 0.059560
v 0.005758 0.009535 0.059464
v 0.006404 0.009535 0.058717
v -0.010648 0.007906 0.059560
v -0.012138 0.007906 0.042182
v -0.012440 0.007906 0.054560
v -0.010997 0.007906 0.059464
v -0.011334 0.007906 0.059179
v -0.011644 0.007906 0.058717
v -0.011915 0.007906 0.058096
v -0.012138 0.007906 0.057338
v -0.012303 0.007906 0.056473
v -0.012406 0.007906 0.055535
v -0.005312 0.009535 0.059179
v -0.005622 0.009535 0.058717
v -0.004627 0.009535 0.059560
v -0.005894 0.009535 0.058096
v -0.004976 0.009535 0.059464
v -0.012440 0.007906 0.044960
v -0.012406 0.007906 0.043985
v -0.012303 0.007906 0.043047
v -0.010648 -0.006296 0.059560
v -0.011915 -0.006296 0.058096
v -0.011644 -0.006296 0.058717
v -0.012440 -0.006296 0.054560
v -0.012440 -0.006296 0.044960
v -0.012406 -0.006296 0.043985
v -0.005894 -0.008055 0.058096
v -0.005622 -0.008055 0.058717
v -0.005312 -0.008055 0.059179
v -0.004976 -0.008055 0.059464
v -0.004627 -0.008055 0.059560
v -0.012406 -0.006296 0.055535
v -0.012303 -0.006296 0.056473
v -0.012138 -0.006296 0.057338
v -0.011334 -0.006296 0.059179
v -0.010997 -0.006296 0.059464
v -0.012138 -0.006296 0.042182
v -0.012303 -0.006296 0.043047
vn -0.0000 -1.0000 -0.0000
vn -0.9334 -0.3290 -0.1434
vn -0.8897 -0.4461 -0.0969
vn -0.7892 -0.6135 -0.0279
vn -0.7341 -0.6790 -0.0000
vn -0.0000 -0.2921 -0.9564
vn -0.0000 0.7163 -0.6978
vn -0.9722 -0.0684 -0.2240
vn -0.9627 -0.1979 -0.1843
vn -0.9822 -0.0000 -0.1880
vn -0.9941 -0.0000 -0.1083
vn -0.9994 -0.0000 -0.0353
vn -1.0000 -0.0000 -0.0000
vn -0.0000 -0.0000 -1.0000
vn -0.6441 -0.7646 0.0227
vn -0.4920 -0.8689 0.0536
vn -0.3770 -0.9234 0.0722
vn -0.2862 -0.9545 0.0840
vn -0.2794 -0.9564 0.0848
vn -0.1106 -0.9927 0.0484
vn -0.0527 -0.9980 0.0353
vn -0.0377 -0.9988 0.0318
vn 0.7341 -0.6790 -0.0000
vn 0.7892 -0.6135 -0.0279
vn 0.8897 -0.4461 -0.0969
vn 0.9334 -0.3290 -0.1434
vn 0.9703 -0.0000 -0.2420
vn -0.9994 -0.0000 0.0353
vn 0.9628 -0.1979 -0.1843
vn 0.9722 -0.0684 -0.2240
vn -0.9589 0.2165 -0.1836
vn -0.8800 0.4652 -0.0958
vn -0.8414 0.5360 -0.0695
vn -0.7710 0.6362 -0.0272
vn -0.9941 -0.0000 0.1083
vn -0.7136 0.7006 -0.0000
vn -0.9822 -0.0000 0.1880
vn -0.9595 -0.0000 0.2817
vn -0.9162 -0.0000 0.4008
vn 1.0000 -0.0000 -0.0000
vn -0.2756 -0.9433 0.1849
vn -0.2662 -0.9113 0.3140
vn 0.0208 -0.9991 0.0376
vn 0.0527 -0.9980 0.0353
vn 0.1106 -0.9927 0.0484
vn 0.2794 -0.9564 0.0848
vn 0.2862 -0.9545 0.0840
vn 0.3770 -0.9234 0.0722
vn 0.4920 -0.8689 0.0536
vn 0.6441 -0.7646 0.0227
vn 0.0377 -0.9988 0.0318
vn 0.9994 -0.0000 -0.0353
vn 0.9941 -0.0000 -0.1083
vn 0.9822 -0.0000 -0.1880
vn -0.0000 0.9917 -0.1285
vn -0.9619 0.1958 -0.1907
vn -0.9703 -0.0000 -0.2420
vn -0.0208 0.9991 0.0376
vn -0.8304 -0.0000 0.5572
vn -0.0000 1.0000 -0.0000
vn -0.6215 0.7831 0.0219
vn -0.4701 0.8812 0.0512
vn -0.3581 0.9312 0.0686
vn -0.2710 0.9593 0.0796
vn -0.2603 0.9622 0.0807
vn -0.2594 0.9591 0.1135
vn -0.6467 -0.0000 0.7628
vn 0.9162 -0.0000 0.4008
vn -0.0112 -0.9991 0.0409
vn -0.1962 -0.6718 0.7143
vn -0.1962 -0.6717 0.7143
vn -0.0000 -0.9990 0.0444
vn 0.2756 -0.9433 0.1849
vn 0.0295 0.9990 0.0348
vn 0.2662 -0.9113 0.3140
vn 0.2783 -0.9527 0.1218
vn 0.9595 -0.0000 0.2817
vn 0.9822 -0.0000 0.1880
vn 0.9941 -0.0000 0.1083
vn 0.9994 -0.0000 0.0353
vn -0.2649 -0.0000 0.9643
vn 0.7710 0.6362 -0.0272
vn 0.7136 0.7006 -0.0000
vn 0.8414 0.5359 -0.0695
vn 0.8800 0.4652 -0.0958
vn 0.9589 0.2165 -0.1836
vn 0.9619 0.1958 -0.1907
vn -0.0527 0.9980 0.0353
vn -0.1106 0.9927 0.0484
vn -0.0377 0.9988 0.0318
vn -0.2572 0.9508 0.1726
vn -0.2495 0.9225 0.2943
vn -0.2495 0.9225 0.2944
vn 0.8304 -0.0000 0.5572
vn -0.0000 -0.0000 1.0000
vn 0.0112 -0.9991 0.0409
vn 0.6467 -0.0000 0.7628
vn 0.2649 -0.0000 0.9643
vn 0.1962 -0.6717 0.7143
vn 0.2594 0.9591 0.1135
vn 0.2603 0.9622 0.0807
vn 0.2710 0.9593 0.0796
vn 0.3581 0.9312 0.0686
vn 0.4701 0.8812 0.0512
vn 0.6215 0.7831 0.0219
vn -0.0295 -0.9990 0.0348
vn 0.1106 0.9927 0.0484
vn 0.0527 0.9980 0.0353
vn 0.0377 0.9988 0.0318
vn -0.1893 0.6997 0.6889
vn 0.2495 0.9225 0.2944
vn 0.2572 0.9508 0.1726
vn -0.0000 -0.9168 -0.3995
vn -0.0112 0.9991 0.0409
vn -0.0000 0.9990 0.0444
vn 0.1893 0.6997 0.6889
vn 0.0112 0.9991 0.0409
vn -0.2783 -0.9527 0.1218
vn -0.0000 0.7163 -0.6977
vn 0.0295 -0.9990 0.0348
vn -0.0295 0.9990 0.0348
vn 0.0208 0.9991 0.0376
vn -0.0208 -0.9991 0.0376
s 0
f 8//1 3//1 22//1
f 7//2 8//2 96//2
f 96//3 8//3 84//3
f 84//4 8//4 83//4
f 83//5 16//5 82//5
f 83//5 8//5 16//5
f 16//1 24//1 15//1
f 16//1 23//1 24//1
f 16//1 14//1 23//1
f 16//1 22//1 14//1
f 7//6 6//6 13//6
f 11//7 2//7 10//7
f 6//8 7//8 95//8
f 95//9 7//9 96//9
f 96//10 78//10 62//10
f 96//11 84//11 77//11
f 84//12 83//12 76//12
f 83//13 82//13 63//13
f 6//14 11//14 12//14
f 82//15 16//15 90//15
f 90//16 16//16 91//16
f 91//17 16//17 92//17
f 92//18 16//18 80//18
f 80//19 16//19 85//19
f 85//20 16//20 86//20
f 86//21 16//21 87//21
f 87//22 16//22 15//22
f 22//23 39//23 26//23
f 22//23 3//23 39//23
f 39//24 3//24 40//24
f 40//25 3//25 41//25
f 41//26 3//26 5//26
f 12//27 49//27 42//27
f 82//28 90//28 70//28
f 41//29 5//29 42//29
f 42//30 5//30 13//30
f 62//31 78//31 2//31
f 2//32 78//32 77//32
f 2//33 77//33 9//33
f 9//34 77//34 76//34
f 90//35 91//35 69//35
f 9//36 63//36 1//36
f 9//36 76//36 63//36
f 91//37 92//37 68//37
f 92//38 80//38 67//38
f 80//39 81//39 66//39
f 39//40 48//40 53//40
f 81//41 87//41 93//41
f 81//41 86//41 87//41
f 93//42 88//42 94//42
f 93//42 87//42 88//42
f 28//43 23//43 14//43
f 31//44 22//44 27//44
f 27//45 22//45 30//45
f 30//46 22//46 35//46
f 35//47 22//47 36//47
f 36//48 22//48 37//48
f 37//49 22//49 38//49
f 38//50 22//50 26//50
f 14//51 22//51 31//51
f 39//52 40//52 55//52
f 40//53 41//53 54//53
f 41//54 42//54 49//54
f 2//55 9//55 17//55
f 2//56 11//56 62//56
f 95//57 62//57 11//57
f 75//58 21//58 20//58
f 81//59 93//59 65//59
f 17//60 19//60 4//60
f 17//60 18//60 19//60
f 17//60 21//60 18//60
f 17//60 20//60 21//60
f 17//60 1//60 20//60
f 17//60 9//60 1//60
f 1//61 63//61 70//61
f 1//62 70//62 69//62
f 1//63 69//63 68//63
f 1//64 68//64 67//64
f 1//65 67//65 74//65
f 74//66 66//66 72//66
f 74//66 67//66 66//66
f 93//67 94//67 64//67
f 35//68 50//68 51//68
f 89//69 88//69 24//69
f 94//70 89//70 79//70
f 94//71 88//71 89//71
f 89//72 23//72 29//72
f 89//72 24//72 23//72
f 33//73 27//73 34//73
f 33//73 31//73 27//73
f 59//74 56//74 19//74
f 28//75 33//75 32//75
f 28//75 31//75 33//75
f 34//76 30//76 35//76
f 34//76 27//76 30//76
f 35//77 36//77 47//77
f 36//78 37//78 46//78
f 37//79 38//79 45//79
f 38//80 26//80 53//80
f 94//81 79//81 61//81
f 17//82 48//82 55//82
f 53//83 17//83 4//83
f 53//83 48//83 17//83
f 17//84 55//84 10//84
f 10//85 55//85 54//85
f 10//86 54//86 49//86
f 49//87 12//87 10//87
f 71//88 1//88 72//88
f 72//89 1//89 74//89
f 20//90 1//90 71//90
f 72//91 65//91 71//91
f 72//91 66//91 65//91
f 71//92 64//92 75//92
f 71//93 65//93 64//93
f 33//94 34//94 51//94
f 79//95 73//95 61//95
f 79//95 58//95 73//95
f 79//95 43//95 58//95
f 79//95 25//95 43//95
f 79//95 29//95 25//95
f 79//95 89//95 29//95
f 29//96 23//96 28//96
f 33//97 52//97 44//97
f 32//98 44//98 43//98
f 29//99 32//99 25//99
f 29//99 28//99 32//99
f 51//100 57//100 60//100
f 51//100 50//100 57//100
f 57//101 50//101 4//101
f 4//102 50//102 47//102
f 4//103 47//103 46//103
f 4//104 46//104 45//104
f 4//105 45//105 53//105
f 88//106 87//106 15//106
f 57//107 4//107 60//107
f 60//108 4//108 56//108
f 56//109 4//109 19//109
f 75//110 61//110 73//110
f 75//110 64//110 61//110
f 44//111 56//111 59//111
f 44//111 52//111 56//111
f 56//112 51//112 60//112
f 56//112 52//112 51//112
f 8//113 7//113 5//113
f 21//114 75//114 73//114
f 18//115 73//115 58//115
f 18//115 21//115 73//115
f 43//116 59//116 58//116
f 43//116 44//116 59//116
f 59//117 18//117 58//117
f 80//118 86//118 81//118
f 80//118 85//118 86//118
f 8//1 22//1 16//1
f 7//6 13//6 5//6
f 11//119 10//119 12//119
f 96//10 62//10 95//10
f 96//11 77//11 78//11
f 84//12 76//12 77//12
f 83//13 63//13 76//13
f 6//14 12//14 13//14
f 12//27 42//27 13//27
f 82//28 70//28 63//28
f 90//35 69//35 70//35
f 91//37 68//37 69//37
f 92//38 67//38 68//38
f 80//39 66//39 67//39
f 39//40 53//40 26//40
f 28//120 14//120 31//120
f 39//52 55//52 48//52
f 40//53 54//53 55//53
f 41//54 49//54 54//54
f 2//55 17//55 10//55
f 95//57 11//57 6//57
f 75//121 20//121 71//121
f 81//59 65//59 66//59
f 93//67 64//67 65//67
f 35//68 51//68 34//68
f 59//122 19//122 18//122
f 35//77 47//77 50//77
f 36//78 46//78 47//78
f 37//79 45//79 46//79
f 38//80 53//80 45//80
f 94//81 61//81 64//81
f 33//94 51//94 52//94
f 33//97 44//97 32//97
f 32//98 43//98 25//98
f 88//123 15//123 24//123
f 8//113 5//113 3//113
