# Blender 4.4.0
# www.blender.org
mtllib thumb_link_1_collisions_xform_collisions.mtl
o index_link_1_collisions_xform_collisions
v -0.010419 -0.008295 0.036098
v -0.010502 -0.007280 0.035839
v -0.010491 -0.008350 0.037509
v -0.010504 -0.008303 0.039291
v -0.010826 -0.007280 0.037509
v -0.011061 -0.007280 0.039291
v -0.009410 -0.008357 0.035839
v -0.009410 -0.007280 0.035060
v -0.007628 -0.008357 0.035839
v -0.007628 -0.007280 0.035060
v -0.009410 -0.008536 0.037509
v -0.009410 -0.008488 0.039291
v -0.007628 -0.008544 0.037509
v -0.007628 -0.008543 0.039291
v -0.012164 -0.006486 0.043163
v -0.010425 -0.008224 0.041073
v -0.010332 -0.008180 0.042064
v -0.011204 -0.007280 0.041073
v -0.011207 -0.007307 0.042614
v -0.012212 -0.006535 0.044637
v -0.012219 -0.006535 0.046419
v -0.011193 -0.007321 0.044637
v -0.011193 -0.007242 0.046419
v -0.009410 -0.008394 0.041073
v -0.009499 -0.008290 0.042737
v -0.010152 -0.008127 0.043252
v -0.007628 -0.008528 0.041073
v -0.007628 -0.008486 0.042855
v -0.009051 -0.008284 0.044637
v -0.008780 -0.008239 0.046419
v -0.009942 -0.008066 0.044637
v -0.009671 -0.007987 0.046419
v -0.007628 -0.008431 0.044637
v -0.007628 -0.008357 0.046419
v -0.010526 -0.005498 0.035839
v -0.010526 -0.003716 0.035839
v -0.010972 -0.005498 0.037509
v -0.011417 -0.005498 0.039291
v -0.010972 -0.003716 0.037509
v -0.011417 -0.003716 0.039291
v -0.010526 -0.001934 0.035839
v -0.010526 -0.000152 0.035839
v -0.010972 -0.001934 0.037509
v -0.011417 -0.001934 0.039291
v -0.010972 -0.000152 0.037509
v -0.011417 -0.000152 0.039291
v -0.009410 -0.005498 0.035060
v -0.009410 -0.003716 0.035060
v -0.007628 -0.005498 0.035060
v -0.007628 -0.003716 0.035060
v -0.009410 -0.001934 0.035060
v -0.009410 -0.000152 0.035060
v -0.007628 -0.001934 0.035060
v -0.007628 -0.000152 0.035060
v -0.012218 -0.005498 0.042863
v -0.012232 -0.003716 0.042855
v -0.011860 -0.005498 0.041073
v -0.012082 -0.005498 0.041972
v -0.011861 -0.003716 0.041073
v -0.012084 -0.003716 0.041964
v -0.012375 -0.005498 0.044637
v -0.012397 -0.005498 0.046419
v -0.012410 -0.003716 0.044637
v -0.012440 -0.003716 0.046419
v -0.012232 -0.001934 0.042855
v -0.012232 -0.000152 0.042855
v -0.011861 -0.001934 0.041073
v -0.012084 -0.001934 0.041964
v -0.011861 -0.000152 0.041073
v -0.012084 -0.000152 0.041964
v -0.012410 -0.001934 0.044637
v -0.012440 -0.001934 0.046419
v -0.012410 -0.000152 0.044637
v -0.012440 -0.000152 0.046419
v -0.005846 -0.008357 0.035839
v -0.005846 -0.007280 0.035060
v -0.004064 -0.008357 0.035839
v -0.004064 -0.007280 0.035060
v -0.005846 -0.008544 0.037509
v -0.005846 -0.008544 0.039291
v -0.004064 -0.008544 0.037509
v -0.004064 -0.008544 0.039291
v -0.002282 -0.008357 0.035839
v -0.002282 -0.007280 0.035060
v -0.000500 -0.008357 0.035839
v -0.000500 -0.007280 0.035060
v -0.002282 -0.008544 0.037509
v -0.002282 -0.008544 0.039291
v -0.000500 -0.008544 0.037509
v -0.000500 -0.008544 0.039291
v -0.005846 -0.008544 0.041073
v -0.005846 -0.008531 0.042855
v -0.004064 -0.008544 0.041073
v -0.004064 -0.008544 0.042855
v -0.005846 -0.008494 0.044637
v -0.005846 -0.008442 0.046419
v -0.004064 -0.008534 0.044637
v -0.004064 -0.008502 0.046419
v -0.002282 -0.008544 0.041073
v -0.002282 -0.008544 0.042855
v -0.000500 -0.008544 0.041073
v -0.000500 -0.008544 0.042855
v -0.002282 -0.008544 0.044637
v -0.002282 -0.008537 0.046419
v -0.000500 -0.008544 0.044637
v -0.000500 -0.008544 0.046419
v -0.005846 -0.005498 0.035060
v -0.005846 -0.003716 0.035060
v -0.004064 -0.005498 0.035060
v -0.004064 -0.003716 0.035060
v -0.005846 -0.001934 0.035060
v -0.005846 -0.000152 0.035060
v -0.004064 -0.001934 0.035060
v -0.004064 -0.000152 0.035060
v -0.002282 -0.005498 0.035060
v -0.002282 -0.003716 0.035060
v -0.000500 -0.005498 0.035060
v -0.000500 -0.003716 0.035060
v -0.002282 -0.001934 0.035060
v -0.002282 -0.000152 0.035060
v -0.000500 -0.001934 0.035060
v -0.000500 -0.000152 0.035060
v -0.012219 -0.006535 0.048201
v -0.012219 -0.006535 0.049983
v -0.011193 -0.007163 0.048201
v -0.011193 -0.007084 0.049983
v -0.012219 -0.006528 0.051765
v -0.012214 -0.006494 0.053547
v -0.011193 -0.006998 0.051765
v -0.011193 -0.006885 0.053547
v -0.008603 -0.008195 0.047586
v -0.009282 -0.007943 0.048188
v -0.009410 -0.007747 0.049983
v -0.007749 -0.008258 0.048188
v -0.007348 -0.008233 0.049983
v -0.008423 -0.008143 0.048774
v -0.008239 -0.008089 0.049983
v -0.009410 -0.007589 0.051765
v -0.009410 -0.007431 0.053547
v -0.007078 -0.008204 0.051765
v -0.006874 -0.008184 0.053033
v -0.007969 -0.008010 0.051765
v -0.007532 -0.007971 0.053595
v -0.012156 -0.006432 0.055329
v -0.012097 -0.006394 0.056292
v -0.011193 -0.006744 0.055329
v -0.011279 -0.006579 0.056976
v -0.010743 -0.006518 0.058522
v -0.009410 -0.007273 0.055329
v -0.009410 -0.007115 0.057111
v -0.007628 -0.007794 0.055329
v -0.007628 -0.007636 0.057111
v -0.009410 -0.006712 0.058781
v -0.007628 -0.006973 0.058781
v -0.012397 -0.005498 0.048201
v -0.012397 -0.005498 0.049983
v -0.012440 -0.003716 0.048201
v -0.012440 -0.003716 0.049983
v -0.012397 -0.005498 0.051765
v -0.012392 -0.005498 0.053547
v -0.012440 -0.003716 0.051765
v -0.012440 -0.003716 0.053547
v -0.012440 -0.001934 0.048201
v -0.012440 -0.001934 0.049983
v -0.012440 -0.000152 0.048201
v -0.012440 -0.000152 0.049983
v -0.012440 -0.001934 0.051765
v -0.012440 -0.001934 0.053547
v -0.012440 -0.000152 0.051765
v -0.012440 -0.000152 0.053547
v -0.012307 -0.005498 0.055329
v -0.012156 -0.005498 0.056600
v -0.012385 -0.003716 0.055329
v -0.012207 -0.003716 0.056872
v -0.011934 -0.005498 0.057491
v -0.012013 -0.003716 0.057763
v -0.011043 -0.005498 0.058781
v -0.011122 -0.003716 0.058781
v -0.012385 -0.001934 0.055329
v -0.012207 -0.001934 0.056872
v -0.012385 -0.000152 0.055329
v -0.012207 -0.000152 0.056872
v -0.012013 -0.001934 0.057763
v -0.012013 -0.000152 0.057763
v -0.011122 -0.001934 0.058781
v -0.011122 -0.000152 0.058781
v -0.009410 -0.005498 0.059560
v -0.009410 -0.003716 0.059560
v -0.007628 -0.005498 0.059560
v -0.007628 -0.003716 0.059560
v -0.009410 -0.001934 0.059560
v -0.009410 -0.000152 0.059560
v -0.007628 -0.001934 0.059560
v -0.007628 -0.000152 0.059560
v -0.005846 -0.008385 0.048201
v -0.005846 -0.008328 0.049983
v -0.004064 -0.008452 0.048201
v -0.004064 -0.008395 0.049983
v -0.005846 -0.008271 0.051765
v -0.005926 -0.008209 0.053595
v -0.006573 -0.008158 0.054221
v -0.004064 -0.008339 0.051765
v -0.004064 -0.008280 0.053547
v -0.002282 -0.008509 0.048201
v -0.002282 -0.008455 0.049983
v -0.000500 -0.008532 0.048201
v -0.000500 -0.008481 0.049983
v -0.002282 -0.008387 0.051765
v -0.002282 -0.008317 0.053547
v -0.000500 -0.008402 0.051765
v -0.000500 -0.008322 0.053547
v -0.005385 -0.008187 0.054948
v -0.005926 -0.008123 0.055457
v -0.005846 -0.008015 0.057111
v -0.004200 -0.008209 0.055457
v -0.003696 -0.008182 0.056465
v -0.004884 -0.008168 0.056136
v -0.004200 -0.008147 0.057080
v -0.005846 -0.007175 0.058781
v -0.004064 -0.007252 0.058781
v -0.002282 -0.008243 0.055329
v -0.002282 -0.008187 0.056587
v -0.002282 -0.008148 0.057478
v -0.000500 -0.008243 0.055329
v -0.000500 -0.008187 0.056587
v -0.000500 -0.008148 0.057478
v -0.002282 -0.007257 0.058781
v -0.000500 -0.007257 0.058781
v -0.005846 -0.005498 0.059560
v -0.005846 -0.003716 0.059560
v -0.004064 -0.005498 0.059560
v -0.004064 -0.003716 0.059560
v -0.005846 -0.001934 0.059560
v -0.005846 -0.000152 0.059560
v -0.004064 -0.001934 0.059560
v -0.004064 -0.000152 0.059560
v -0.002282 -0.005498 0.059560
v -0.002282 -0.003716 0.059560
v -0.000500 -0.005498 0.059560
v -0.000500 -0.003716 0.059560
v -0.002282 -0.001934 0.059560
v -0.002282 -0.000152 0.059560
v -0.000500 -0.001934 0.059560
v -0.000500 -0.000152 0.059560
v -0.010526 0.001631 0.035839
v -0.010526 0.003413 0.035839
v -0.010972 0.001631 0.037509
v -0.011417 0.001631 0.039291
v -0.010972 0.003413 0.037509
v -0.011417 0.003413 0.039291
v -0.010526 0.005195 0.035839
v -0.010526 0.006977 0.035839
v -0.010972 0.005195 0.037509
v -0.011417 0.005195 0.039291
v -0.010972 0.006977 0.037509
v -0.011417 0.006977 0.039291
v -0.009410 0.001631 0.035060
v -0.009410 0.003413 0.035060
v -0.007628 0.001631 0.035060
v -0.007628 0.003413 0.035060
v -0.009410 0.005195 0.035060
v -0.009410 0.006977 0.035060
v -0.007628 0.005195 0.035060
v -0.007628 0.006977 0.035060
v -0.012232 0.001631 0.042855
v -0.012232 0.003413 0.042855
v -0.011861 0.001631 0.041073
v -0.012084 0.001631 0.041964
v -0.011861 0.003413 0.041073
v -0.012084 0.003413 0.041964
v -0.012410 0.001631 0.044637
v -0.012440 0.001631 0.046419
v -0.012410 0.003413 0.044637
v -0.012440 0.003413 0.046419
v -0.012232 0.005195 0.042855
v -0.012232 0.006977 0.042855
v -0.011861 0.005195 0.041073
v -0.012084 0.005195 0.041964
v -0.011861 0.006977 0.041073
v -0.012084 0.006977 0.041964
v -0.012410 0.005195 0.044637
v -0.012440 0.005195 0.046419
v -0.012410 0.006977 0.044637
v -0.012440 0.006977 0.046419
v -0.010508 0.008759 0.035839
v -0.010427 0.009774 0.036098
v -0.010838 0.008759 0.037509
v -0.011072 0.008759 0.039291
v -0.010502 0.009829 0.037509
v -0.010514 0.009785 0.039291
v -0.009410 0.008759 0.035060
v -0.009410 0.009836 0.035839
v -0.007628 0.008759 0.035060
v -0.007628 0.009836 0.035839
v -0.009410 0.010016 0.037509
v -0.009410 0.009970 0.039291
v -0.007628 0.010023 0.037509
v -0.007628 0.010022 0.039291
v -0.012182 0.008002 0.043152
v -0.011230 0.008759 0.041073
v -0.011220 0.008808 0.042647
v -0.010450 0.009710 0.041073
v -0.010357 0.009665 0.042143
v -0.012247 0.008068 0.044637
v -0.012262 0.008068 0.046419
v -0.011193 0.008870 0.044637
v -0.011193 0.008795 0.046419
v -0.010173 0.009615 0.043331
v -0.009410 0.009880 0.041073
v -0.009512 0.009772 0.042784
v -0.007628 0.010007 0.041073
v -0.007628 0.009966 0.042855
v -0.009971 0.009560 0.044637
v -0.009695 0.009486 0.046419
v -0.009080 0.009763 0.044637
v -0.008804 0.009719 0.046419
v -0.007628 0.009910 0.044637
v -0.007628 0.009838 0.046419
v -0.005846 0.001631 0.035060
v -0.005846 0.003413 0.035060
v -0.004064 0.001631 0.035060
v -0.004064 0.003413 0.035060
v -0.005846 0.005195 0.035060
v -0.005846 0.006977 0.035060
v -0.004064 0.005195 0.035060
v -0.004064 0.006977 0.035060
v -0.002282 0.001631 0.035060
v -0.002282 0.003413 0.035060
v -0.000500 0.001631 0.035060
v -0.000500 0.003413 0.035060
v -0.002282 0.005195 0.035060
v -0.002282 0.006977 0.035060
v -0.000500 0.005195 0.035060
v -0.000500 0.006977 0.035060
v -0.005846 0.008759 0.035060
v -0.005846 0.009836 0.035839
v -0.004064 0.008759 0.035060
v -0.004064 0.009836 0.035839
v -0.005846 0.010023 0.037509
v -0.005846 0.010023 0.039291
v -0.004064 0.010023 0.037509
v -0.004064 0.010023 0.039291
v -0.002282 0.008759 0.035060
v -0.002282 0.009836 0.035839
v -0.000500 0.008759 0.035060
v -0.000500 0.009836 0.035839
v -0.002282 0.010023 0.037509
v -0.002282 0.010023 0.039291
v -0.000500 0.010023 0.037509
v -0.000500 0.010023 0.039291
v -0.005846 0.010023 0.041073
v -0.005846 0.010010 0.042855
v -0.004064 0.010023 0.041073
v -0.004064 0.010023 0.042855
v -0.005846 0.009973 0.044637
v -0.005846 0.009921 0.046419
v -0.004064 0.010013 0.044637
v -0.004064 0.009981 0.046419
v -0.002282 0.010023 0.041073
v -0.002282 0.010023 0.042855
v -0.000500 0.010023 0.041073
v -0.000500 0.010023 0.042855
v -0.002282 0.010023 0.044637
v -0.002282 0.010016 0.046419
v -0.000500 0.010023 0.044637
v -0.000500 0.010023 0.046419
v -0.012440 0.001631 0.048201
v -0.012440 0.001631 0.049983
v -0.012440 0.003413 0.048201
v -0.012440 0.003413 0.049983
v -0.012440 0.001631 0.051765
v -0.012440 0.001631 0.053547
v -0.012440 0.003413 0.051765
v -0.012440 0.003413 0.053547
v -0.012440 0.005195 0.048201
v -0.012440 0.005195 0.049983
v -0.012440 0.006977 0.048201
v -0.012440 0.006977 0.049983
v -0.012440 0.005195 0.051765
v -0.012440 0.005195 0.053547
v -0.012440 0.006977 0.051765
v -0.012440 0.006977 0.053547
v -0.012385 0.001631 0.055329
v -0.012207 0.001631 0.056872
v -0.012385 0.003413 0.055329
v -0.012207 0.003413 0.056872
v -0.012013 0.001631 0.057763
v -0.012013 0.003413 0.057763
v -0.011122 0.001631 0.058781
v -0.011122 0.003413 0.058781
v -0.012385 0.005195 0.055329
v -0.012207 0.005195 0.056872
v -0.012385 0.006977 0.055329
v -0.012207 0.006977 0.056872
v -0.012013 0.005195 0.057763
v -0.012013 0.006977 0.057763
v -0.011122 0.005195 0.058781
v -0.011122 0.006977 0.058781
v -0.009410 0.001631 0.059560
v -0.009410 0.003413 0.059560
v -0.007628 0.001631 0.059560
v -0.007628 0.003413 0.059560
v -0.009410 0.005195 0.059560
v -0.009410 0.006977 0.059560
v -0.007628 0.005195 0.059560
v -0.007628 0.006977 0.059560
v -0.012262 0.008068 0.048201
v -0.012262 0.008068 0.049983
v -0.011193 0.008721 0.048201
v -0.011193 0.008646 0.049983
v -0.012262 0.008062 0.051765
v -0.012262 0.008030 0.053547
v -0.011193 0.008564 0.051765
v -0.011193 0.008458 0.053547
v -0.009291 0.009445 0.048211
v -0.009410 0.009264 0.049983
v -0.008617 0.009676 0.047624
v -0.008433 0.009626 0.048812
v -0.008251 0.009577 0.049983
v -0.007755 0.009738 0.048211
v -0.007360 0.009712 0.049983
v -0.009410 0.009114 0.051765
v -0.009410 0.008965 0.053547
v -0.007975 0.009503 0.051765
v -0.007534 0.009465 0.053599
v -0.007084 0.009684 0.051765
v -0.006877 0.009663 0.053039
v -0.012234 0.007971 0.055329
v -0.012166 0.007915 0.056655
v -0.011193 0.008325 0.055329
v -0.011343 0.008119 0.057194
v -0.010849 0.008029 0.058522
v -0.009410 0.008816 0.055329
v -0.009410 0.008666 0.057111
v -0.007628 0.009298 0.055329
v -0.007628 0.009148 0.057111
v -0.009410 0.008230 0.058781
v -0.007628 0.008471 0.058781
v -0.005846 0.001631 0.059560
v -0.005846 0.003413 0.059560
v -0.004064 0.001631 0.059560
v -0.004064 0.003413 0.059560
v -0.005846 0.005195 0.059560
v -0.005846 0.006977 0.059560
v -0.004064 0.005195 0.059560
v -0.004064 0.006977 0.059560
v -0.002282 0.001631 0.059560
v -0.002282 0.003413 0.059560
v -0.000500 0.001631 0.059560
v -0.000500 0.003413 0.059560
v -0.002282 0.005195 0.059560
v -0.002282 0.006977 0.059560
v -0.000500 0.005195 0.059560
v -0.000500 0.006977 0.059560
v -0.005846 0.009864 0.048201
v -0.005846 0.009807 0.049983
v -0.004064 0.009931 0.048201
v -0.004064 0.009875 0.049983
v -0.006580 0.009638 0.054228
v -0.005846 0.009751 0.051765
v -0.005930 0.009689 0.053599
v -0.004064 0.009818 0.051765
v -0.004064 0.009760 0.053547
v -0.002282 0.009988 0.048201
v -0.002282 0.009934 0.049983
v -0.000500 0.010011 0.048201
v -0.000500 0.009960 0.049983
v -0.002282 0.009866 0.051765
v -0.002282 0.009797 0.053547
v -0.000500 0.009881 0.051765
v -0.000500 0.009802 0.053547
v -0.005930 0.009604 0.055461
v -0.005846 0.009502 0.057111
v -0.005392 0.009666 0.054955
v -0.004890 0.009647 0.056144
v -0.004203 0.009626 0.057083
v -0.004203 0.009689 0.055461
v -0.003702 0.009661 0.056470
v -0.005846 0.008659 0.058781
v -0.004064 0.008731 0.058781
v -0.002282 0.009627 0.057486
v -0.002282 0.009722 0.055329
v -0.002282 0.009667 0.056595
v -0.000500 0.009627 0.057486
v -0.000500 0.009723 0.055329
v -0.000500 0.009667 0.056595
v -0.002282 0.008736 0.058781
v -0.000500 0.008736 0.058781
v 0.001282 -0.008357 0.035839
v 0.001282 -0.007280 0.035060
v 0.003064 -0.008357 0.035839
v 0.003064 -0.007280 0.035060
v 0.001282 -0.008544 0.037509
v 0.001282 -0.008544 0.039291
v 0.003064 -0.008544 0.037509
v 0.003064 -0.008544 0.039291
v 0.004846 -0.008357 0.035839
v 0.004846 -0.007280 0.035060
v 0.006628 -0.008357 0.035839
v 0.006628 -0.007280 0.035060
v 0.004846 -0.008544 0.037509
v 0.004846 -0.008544 0.039291
v 0.006628 -0.008544 0.037509
v 0.006628 -0.008544 0.039291
v 0.001282 -0.008544 0.041073
v 0.001282 -0.008544 0.042855
v 0.003064 -0.008544 0.041073
v 0.003064 -0.008544 0.042855
v 0.001282 -0.008544 0.044637
v 0.001282 -0.008544 0.046419
v 0.003064 -0.008544 0.044637
v 0.003064 -0.008537 0.046419
v 0.004846 -0.008544 0.041073
v 0.004846 -0.008544 0.042855
v 0.006628 -0.008544 0.041073
v 0.006628 -0.008531 0.042855
v 0.004846 -0.008534 0.044637
v 0.004846 -0.008502 0.046419
v 0.006628 -0.008494 0.044637
v 0.006628 -0.008442 0.046419
v 0.001282 -0.005498 0.035060
v 0.001282 -0.003716 0.035060
v 0.003064 -0.005498 0.035060
v 0.003064 -0.003716 0.035060
v 0.001282 -0.001934 0.035060
v 0.001282 -0.000152 0.035060
v 0.003064 -0.001934 0.035060
v 0.003064 -0.000152 0.035060
v 0.004846 -0.005498 0.035060
v 0.004846 -0.003716 0.035060
v 0.006628 -0.005498 0.035060
v 0.006628 -0.003716 0.035060
v 0.004846 -0.001934 0.035060
v 0.004846 -0.000152 0.035060
v 0.006628 -0.001934 0.035060
v 0.006628 -0.000152 0.035060
v 0.008410 -0.008357 0.035839
v 0.008410 -0.007280 0.035060
v 0.010192 -0.008357 0.035839
v 0.010192 -0.007280 0.035060
v 0.008410 -0.008544 0.037509
v 0.008410 -0.008543 0.039291
v 0.010192 -0.008536 0.037509
v 0.010192 -0.008488 0.039291
v 0.011201 -0.008295 0.036098
v 0.011284 -0.007280 0.035839
v 0.011273 -0.008350 0.037509
v 0.011286 -0.008303 0.039291
v 0.011608 -0.007280 0.037509
v 0.011843 -0.007280 0.039291
v 0.008410 -0.008528 0.041073
v 0.008410 -0.008486 0.042855
v 0.010192 -0.008394 0.041073
v 0.010281 -0.008290 0.042737
v 0.010934 -0.008127 0.043252
v 0.008410 -0.008431 0.044637
v 0.008410 -0.008357 0.046419
v 0.009833 -0.008284 0.044637
v 0.009562 -0.008239 0.046419
v 0.010724 -0.008066 0.044637
v 0.010453 -0.007987 0.046419
v 0.011207 -0.008224 0.041073
v 0.011114 -0.008180 0.042064
v 0.011985 -0.007280 0.041073
v 0.011989 -0.007307 0.042614
v 0.012946 -0.006486 0.043165
v 0.011975 -0.007321 0.044637
v 0.011975 -0.007242 0.046419
v 0.012993 -0.006535 0.044637
v 0.013001 -0.006535 0.046419
v 0.008410 -0.005498 0.035060
v 0.008410 -0.003716 0.035060
v 0.010192 -0.005498 0.035060
v 0.010192 -0.003716 0.035060
v 0.008410 -0.001934 0.035060
v 0.008410 -0.000152 0.035060
v 0.010192 -0.001934 0.035060
v 0.010192 -0.000152 0.035060
v 0.011307 -0.005498 0.035839
v 0.011307 -0.003716 0.035839
v 0.011754 -0.005498 0.037509
v 0.012198 -0.005498 0.039291
v 0.011754 -0.003716 0.037509
v 0.012198 -0.003716 0.039291
v 0.011307 -0.001934 0.035839
v 0.011307 -0.000152 0.035839
v 0.011754 -0.001934 0.037509
v 0.012198 -0.001934 0.039291
v 0.011754 -0.000152 0.037509
v 0.012198 -0.000152 0.039291
v 0.012641 -0.005498 0.041073
v 0.012863 -0.005498 0.041974
v 0.012642 -0.003716 0.041073
v 0.012865 -0.003716 0.041966
v 0.013000 -0.005498 0.042865
v 0.013013 -0.003716 0.042857
v 0.013156 -0.005498 0.044637
v 0.013179 -0.005498 0.046419
v 0.013191 -0.003716 0.044637
v 0.013222 -0.003716 0.046419
v 0.012642 -0.001934 0.041073
v 0.012865 -0.001934 0.041966
v 0.012642 -0.000152 0.041073
v 0.012865 -0.000152 0.041966
v 0.013013 -0.001934 0.042857
v 0.013013 -0.000152 0.042857
v 0.013191 -0.001934 0.044637
v 0.013222 -0.001934 0.046419
v 0.013191 -0.000152 0.044637
v 0.013222 -0.000152 0.046419
v 0.001282 -0.008532 0.048201
v 0.001282 -0.008481 0.049983
v 0.003064 -0.008509 0.048201
v 0.003064 -0.008455 0.049983
v 0.001282 -0.008402 0.051765
v 0.001282 -0.008322 0.053547
v 0.003064 -0.008387 0.051765
v 0.003064 -0.008317 0.053547
v 0.004846 -0.008452 0.048201
v 0.004846 -0.008395 0.049983
v 0.006628 -0.008385 0.048201
v 0.006628 -0.008328 0.049983
v 0.004846 -0.008339 0.051765
v 0.004846 -0.008280 0.053547
v 0.006628 -0.008271 0.051765
v 0.006708 -0.008209 0.053595
v 0.007355 -0.008158 0.054221
v 0.001282 -0.008243 0.055329
v 0.001282 -0.008187 0.056587
v 0.001282 -0.008148 0.057478
v 0.003064 -0.008243 0.055329
v 0.003064 -0.008187 0.056587
v 0.003064 -0.008148 0.057478
v 0.001282 -0.007257 0.058781
v 0.003064 -0.007257 0.058781
v 0.004982 -0.008209 0.055457
v 0.004478 -0.008182 0.056465
v 0.005666 -0.008168 0.056136
v 0.004982 -0.008147 0.057080
v 0.006167 -0.008187 0.054948
v 0.006708 -0.008122 0.055457
v 0.006628 -0.008015 0.057111
v 0.004846 -0.007252 0.058781
v 0.006628 -0.007175 0.058781
v 0.001282 -0.005498 0.059560
v 0.001282 -0.003716 0.059560
v 0.003064 -0.005498 0.059560
v 0.003064 -0.003716 0.059560
v 0.001282 -0.001934 0.059560
v 0.001282 -0.000152 0.059560
v 0.003064 -0.001934 0.059560
v 0.003064 -0.000152 0.059560
v 0.004846 -0.005498 0.059560
v 0.004846 -0.003716 0.059560
v 0.006628 -0.005498 0.059560
v 0.006628 -0.003716 0.059560
v 0.004846 -0.001934 0.059560
v 0.004846 -0.000152 0.059560
v 0.006628 -0.001934 0.059560
v 0.006628 -0.000152 0.059560
v 0.008531 -0.008258 0.048188
v 0.008130 -0.008233 0.049983
v 0.009205 -0.008143 0.048774
v 0.009021 -0.008089 0.049983
v 0.009385 -0.008195 0.047586
v 0.010064 -0.007943 0.048188
v 0.010192 -0.007747 0.049983
v 0.007860 -0.008204 0.051765
v 0.007656 -0.008184 0.053033
v 0.008751 -0.008010 0.051765
v 0.008314 -0.007971 0.053595
v 0.010192 -0.007589 0.051765
v 0.010192 -0.007431 0.053547
v 0.011975 -0.007163 0.048201
v 0.011975 -0.007084 0.049983
v 0.013001 -0.006535 0.048201
v 0.013001 -0.006535 0.049983
v 0.011975 -0.006998 0.051765
v 0.011975 -0.006885 0.053547
v 0.013001 -0.006528 0.051765
v 0.012996 -0.006494 0.053547
v 0.008410 -0.007794 0.055329
v 0.008410 -0.007636 0.057111
v 0.010192 -0.007273 0.055329
v 0.010192 -0.007115 0.057111
v 0.008410 -0.006973 0.058781
v 0.010192 -0.006712 0.058781
v 0.011975 -0.006744 0.055329
v 0.012061 -0.006578 0.056975
v 0.012938 -0.006432 0.055329
v 0.012879 -0.006394 0.056290
v 0.011525 -0.006518 0.058522
v 0.013179 -0.005498 0.048201
v 0.013179 -0.005498 0.049983
v 0.013222 -0.003716 0.048201
v 0.013222 -0.003716 0.049983
v 0.013179 -0.005498 0.051765
v 0.013174 -0.005498 0.053547
v 0.013222 -0.003716 0.051765
v 0.013222 -0.003716 0.053547
v 0.013222 -0.001934 0.048201
v 0.013222 -0.001934 0.049983
v 0.013222 -0.000152 0.048201
v 0.013222 -0.000152 0.049983
v 0.013222 -0.001934 0.051765
v 0.013222 -0.001934 0.053547
v 0.013222 -0.000152 0.051765
v 0.013222 -0.000152 0.053547
v 0.008410 -0.005498 0.059560
v 0.008410 -0.003716 0.059560
v 0.010192 -0.005498 0.059560
v 0.010192 -0.003716 0.059560
v 0.008410 -0.001934 0.059560
v 0.008410 -0.000152 0.059560
v 0.010192 -0.001934 0.059560
v 0.010192 -0.000152 0.059560
v 0.012716 -0.005498 0.057489
v 0.012795 -0.003716 0.057761
v 0.013089 -0.005498 0.055329
v 0.012937 -0.005498 0.056598
v 0.013167 -0.003716 0.055329
v 0.012989 -0.003716 0.056870
v 0.011825 -0.005498 0.058781
v 0.011904 -0.003716 0.058781
v 0.012795 -0.001934 0.057761
v 0.012795 -0.000152 0.057761
v 0.013167 -0.001934 0.055329
v 0.012989 -0.001934 0.056870
v 0.013167 -0.000152 0.055329
v 0.012989 -0.000152 0.056870
v 0.011904 -0.001934 0.058781
v 0.011904 -0.000152 0.058781
v 0.001282 0.001631 0.035060
v 0.001282 0.003413 0.035060
v 0.003064 0.001631 0.035060
v 0.003064 0.003413 0.035060
v 0.001282 0.005195 0.035060
v 0.001282 0.006977 0.035060
v 0.003064 0.005195 0.035060
v 0.003064 0.006977 0.035060
v 0.004846 0.001631 0.035060
v 0.004846 0.003413 0.035060
v 0.006628 0.001631 0.035060
v 0.006628 0.003413 0.035060
v 0.004846 0.005195 0.035060
v 0.004846 0.006977 0.035060
v 0.006628 0.005195 0.035060
v 0.006628 0.006977 0.035060
v 0.001282 0.008759 0.035060
v 0.001282 0.009836 0.035839
v 0.003064 0.008759 0.035060
v 0.003064 0.009836 0.035839
v 0.001282 0.010023 0.037509
v 0.001282 0.010023 0.039291
v 0.003064 0.010023 0.037509
v 0.003064 0.010023 0.039291
v 0.004846 0.008759 0.035060
v 0.004846 0.009836 0.035839
v 0.006628 0.008759 0.035060
v 0.006628 0.009836 0.035839
v 0.004846 0.010023 0.037509
v 0.004846 0.010023 0.039291
v 0.006628 0.010023 0.037509
v 0.006628 0.010023 0.039291
v 0.001282 0.010023 0.041073
v 0.001282 0.010023 0.042855
v 0.003064 0.010023 0.041073
v 0.003064 0.010023 0.042855
v 0.001282 0.010023 0.044637
v 0.001282 0.010023 0.046419
v 0.003064 0.010023 0.044637
v 0.003064 0.010016 0.046419
v 0.004846 0.010023 0.041073
v 0.004846 0.010023 0.042855
v 0.006628 0.010023 0.041073
v 0.006628 0.010010 0.042855
v 0.004846 0.010013 0.044637
v 0.004846 0.009981 0.046419
v 0.006628 0.009973 0.044637
v 0.006628 0.009921 0.046419
v 0.008410 0.001631 0.035060
v 0.008410 0.003413 0.035060
v 0.010192 0.001631 0.035060
v 0.010192 0.003413 0.035060
v 0.008410 0.005195 0.035060
v 0.008410 0.006977 0.035060
v 0.010192 0.005195 0.035060
v 0.010192 0.006977 0.035060
v 0.011307 0.001631 0.035839
v 0.011307 0.003413 0.035839
v 0.011754 0.001631 0.037509
v 0.012198 0.001631 0.039291
v 0.011754 0.003413 0.037509
v 0.012198 0.003413 0.039291
v 0.011307 0.005195 0.035839
v 0.011307 0.006977 0.035839
v 0.011754 0.005195 0.037509
v 0.012198 0.005195 0.039291
v 0.011754 0.006977 0.037509
v 0.012198 0.006977 0.039291
v 0.012642 0.001631 0.041073
v 0.012865 0.001631 0.041966
v 0.012642 0.003413 0.041073
v 0.012865 0.003413 0.041966
v 0.013013 0.001631 0.042857
v 0.013013 0.003413 0.042857
v 0.013191 0.001631 0.044637
v 0.013222 0.001631 0.046419
v 0.013191 0.003413 0.044637
v 0.013222 0.003413 0.046419
v 0.012642 0.005195 0.041073
v 0.012865 0.005195 0.041966
v 0.012642 0.006977 0.041073
v 0.012865 0.006977 0.041966
v 0.013013 0.005195 0.042857
v 0.013013 0.006977 0.042857
v 0.013191 0.005195 0.044637
v 0.013222 0.005195 0.046419
v 0.013191 0.006977 0.044637
v 0.013222 0.006977 0.046419
v 0.008410 0.008759 0.035060
v 0.008410 0.009836 0.035839
v 0.010192 0.008759 0.035060
v 0.010192 0.009836 0.035839
v 0.008410 0.010023 0.037509
v 0.008410 0.010022 0.039291
v 0.010192 0.010016 0.037509
v 0.010192 0.009970 0.039291
v 0.011290 0.008759 0.035839
v 0.011209 0.009774 0.036098
v 0.011619 0.008759 0.037509
v 0.011854 0.008759 0.039291
v 0.011284 0.009829 0.037509
v 0.011296 0.009785 0.039291
v 0.008410 0.010007 0.041073
v 0.008410 0.009966 0.042855
v 0.010955 0.009615 0.043331
v 0.010192 0.009880 0.041073
v 0.010294 0.009772 0.042784
v 0.008410 0.009910 0.044637
v 0.008410 0.009838 0.046419
v 0.010753 0.009560 0.044637
v 0.010477 0.009486 0.046419
v 0.009862 0.009763 0.044637
v 0.009586 0.009719 0.046419
v 0.012011 0.008759 0.041073
v 0.012002 0.008808 0.042648
v 0.011232 0.009710 0.041073
v 0.011139 0.009665 0.042143
v 0.012964 0.008002 0.043153
v 0.011975 0.008870 0.044637
v 0.011975 0.008795 0.046419
v 0.013029 0.008068 0.044637
v 0.013044 0.008068 0.046419
v 0.001282 0.001631 0.059560
v 0.001282 0.003413 0.059560
v 0.003064 0.001631 0.059560
v 0.003064 0.003413 0.059560
v 0.001282 0.005195 0.059560
v 0.001282 0.006977 0.059560
v 0.003064 0.005195 0.059560
v 0.003064 0.006977 0.059560
v 0.004846 0.001631 0.059560
v 0.004846 0.003413 0.059560
v 0.006628 0.001631 0.059560
v 0.006628 0.003413 0.059560
v 0.004846 0.005195 0.059560
v 0.004846 0.006977 0.059560
v 0.006628 0.005195 0.059560
v 0.006628 0.006977 0.059560
v 0.001282 0.010011 0.048201
v 0.001282 0.009960 0.049983
v 0.003064 0.009988 0.048201
v 0.003064 0.009934 0.049983
v 0.001282 0.009881 0.051765
v 0.001282 0.009802 0.053547
v 0.003064 0.009866 0.051765
v 0.003064 0.009797 0.053547
v 0.004846 0.009931 0.048201
v 0.004846 0.009875 0.049983
v 0.006628 0.009864 0.048201
v 0.006628 0.009807 0.049983
v 0.004846 0.009818 0.051765
v 0.004846 0.009760 0.053547
v 0.007362 0.009638 0.054227
v 0.006628 0.009751 0.051765
v 0.006712 0.009689 0.053599
v 0.001282 0.009627 0.057486
v 0.001282 0.009723 0.055329
v 0.001282 0.009667 0.056595
v 0.003064 0.009627 0.057486
v 0.003064 0.009722 0.055329
v 0.003064 0.009667 0.056595
v 0.001282 0.008736 0.058781
v 0.003064 0.008736 0.058781
v 0.005672 0.009647 0.056143
v 0.004985 0.009626 0.057083
v 0.004985 0.009689 0.055461
v 0.004484 0.009661 0.056470
v 0.006712 0.009604 0.055461
v 0.006628 0.009502 0.057111
v 0.006174 0.009666 0.054955
v 0.004846 0.008731 0.058781
v 0.006628 0.008659 0.058781
v 0.013222 0.001631 0.048201
v 0.013222 0.001631 0.049983
v 0.013222 0.003413 0.048201
v 0.013222 0.003413 0.049983
v 0.013222 0.001631 0.051765
v 0.013222 0.001631 0.053547
v 0.013222 0.003413 0.051765
v 0.013222 0.003413 0.053547
v 0.013222 0.005195 0.048201
v 0.013222 0.005195 0.049983
v 0.013222 0.006977 0.048201
v 0.013222 0.006977 0.049983
v 0.013222 0.005195 0.051765
v 0.013222 0.005195 0.053547
v 0.013222 0.006977 0.051765
v 0.013222 0.006977 0.053547
v 0.008410 0.001631 0.059560
v 0.008410 0.003413 0.059560
v 0.010192 0.001631 0.059560
v 0.010192 0.003413 0.059560
v 0.008410 0.005195 0.059560
v 0.008410 0.006977 0.059560
v 0.010192 0.005195 0.059560
v 0.010192 0.006977 0.059560
v 0.012795 0.001631 0.057761
v 0.012795 0.003413 0.057761
v 0.013167 0.001631 0.055329
v 0.012989 0.001631 0.056870
v 0.013167 0.003413 0.055329
v 0.012989 0.003413 0.056870
v 0.011904 0.001631 0.058781
v 0.011904 0.003413 0.058781
v 0.012795 0.005195 0.057761
v 0.012795 0.006977 0.057761
v 0.013167 0.005195 0.055329
v 0.012989 0.005195 0.056870
v 0.013167 0.006977 0.055329
v 0.012989 0.006977 0.056870
v 0.011904 0.005195 0.058781
v 0.011904 0.006977 0.058781
v 0.009215 0.009626 0.048812
v 0.009033 0.009577 0.049983
v 0.008537 0.009738 0.048211
v 0.008142 0.009712 0.049983
v 0.010073 0.009445 0.048211
v 0.010192 0.009264 0.049983
v 0.009399 0.009676 0.047624
v 0.008757 0.009503 0.051765
v 0.008316 0.009465 0.053599
v 0.007866 0.009684 0.051765
v 0.007658 0.009663 0.053039
v 0.010192 0.009114 0.051765
v 0.010192 0.008965 0.053547
v 0.011975 0.008721 0.048201
v 0.011975 0.008646 0.049983
v 0.013044 0.008068 0.048201
v 0.013044 0.008068 0.049983
v 0.011975 0.008564 0.051765
v 0.011975 0.008457 0.053547
v 0.013044 0.008062 0.051765
v 0.013044 0.008029 0.053547
v 0.008410 0.009298 0.055329
v 0.008410 0.009148 0.057111
v 0.010192 0.008816 0.055329
v 0.010192 0.008666 0.057111
v 0.008410 0.008471 0.058781
v 0.010192 0.008230 0.058781
v 0.011975 0.008324 0.055329
v 0.012125 0.008119 0.057193
v 0.013016 0.007971 0.055329
v 0.012948 0.007915 0.056654
v 0.011630 0.008029 0.058522
vn -0.9182 -0.3917 -0.0587
vn -0.0000 -0.5857 -0.8105
vn -0.0175 -0.9998 0.0138
vn -0.4126 -0.4178 -0.8094
vn -0.1686 -0.9853 0.0257
vn -0.9692 -0.2102 -0.1283
vn -0.0021 -0.9941 -0.1088
vn -0.1274 -0.9888 -0.0779
vn -0.7347 -0.6777 0.0308
vn -0.5894 -0.8077 0.0167
vn -0.0913 -0.9950 0.0396
vn -0.2546 -0.9643 0.0723
vn -0.1025 -0.9939 0.0410
vn -0.1692 -0.9840 0.0553
vn -0.5017 -0.8575 0.1141
vn -0.4720 -0.8784 0.0747
vn -0.6339 -0.7732 -0.0200
vn -0.2190 -0.9737 0.0637
vn -0.1049 -0.9941 0.0292
vn -0.5701 -0.8201 0.0489
vn -0.9703 -0.0000 -0.2421
vn -0.0000 -0.0000 -1.0000
vn -0.5726 -0.0000 -0.8199
vn -0.9661 -0.0000 -0.2583
vn -0.9705 -0.0015 -0.2410
vn -0.9875 -0.0050 -0.1575
vn -0.9997 -0.0219 -0.0147
vn -0.9865 -0.0000 -0.1639
vn -0.9999 -0.0000 -0.0169
vn -0.9955 -0.0138 -0.0938
vn -0.9950 -0.0000 -0.0995
vn -0.0000 -1.0000 -0.0000
vn -0.0000 -0.9938 -0.1110
vn -0.0036 -1.0000 0.0036
vn -0.0281 -0.9993 0.0237
vn -0.0021 -1.0000 0.0021
vn -0.0125 -0.9999 0.0110
vn -0.0147 -0.9998 0.0132
vn -0.0028 -1.0000 0.0028
vn -0.0003 -1.0000 0.0003
vn -0.0172 -0.9997 0.0151
vn -0.0413 -0.9985 0.0354
vn -0.0303 -0.9992 0.0259
vn -0.9731 -0.1368 -0.1856
vn -0.9733 -0.0463 -0.2246
vn -0.5767 -0.0038 -0.8170
vn -0.9105 -0.4040 -0.0885
vn -0.8242 -0.4064 -0.3943
vn -0.9867 -0.1624 -0.0082
vn -0.9912 -0.1157 -0.0641
vn -0.8272 -0.5619 -0.0024
vn -0.0528 -0.9981 0.0307
vn -0.1661 -0.9848 0.0515
vn -0.9704 -0.0004 -0.2417
vn -0.9502 -0.2696 -0.1561
vn -0.0049 -1.0000 0.0043
vn -0.4973 -0.8674 0.0192
vn -0.3872 -0.9212 0.0386
vn -0.1432 -0.9882 0.0537
vn -0.2794 -0.9564 0.0848
vn -0.2002 -0.9770 0.0737
vn -0.2306 -0.9708 0.0662
vn -0.2783 -0.9566 0.0857
vn -0.3633 -0.9298 0.0586
vn -0.3032 -0.9502 0.0723
vn -0.4445 -0.8955 0.0234
vn -0.1859 -0.9809 0.0578
vn -0.3312 -0.9414 0.0645
vn -0.2927 -0.9535 0.0711
vn -0.2820 -0.9558 0.0830
vn -0.2043 -0.9326 0.2975
vn -0.2399 -0.9544 0.1775
vn -0.9997 -0.0241 -0.0000
vn -0.9997 -0.0255 0.0014
vn -1.0000 -0.0000 -0.0000
vn -0.9922 -0.0450 0.1164
vn -0.9714 -0.0703 0.2267
vn -0.9934 -0.0000 0.1148
vn -0.9771 -0.0000 0.2129
vn -0.0000 -0.0000 1.0000
vn -0.4222 -0.0094 0.9065
vn -0.4141 -0.0000 0.9102
vn -0.7890 -0.0816 0.6089
vn -0.7526 -0.0000 0.6585
vn -0.0377 -0.9988 0.0318
vn -0.0375 -0.9988 0.0324
vn -0.0137 -0.9995 0.0296
vn -0.0055 -0.9991 0.0417
vn -0.0326 -0.9990 0.0311
vn -0.0239 -0.9991 0.0358
vn -0.0114 -0.9991 0.0413
vn -0.0302 -0.9989 0.0350
vn -0.0220 -0.9990 0.0383
vn -0.0834 -0.9938 0.0737
vn -0.0501 -0.9981 0.0371
vn -0.0001 -0.9990 0.0443
vn -0.0000 -0.9990 0.0444
vn -0.0116 -0.9992 0.0392
vn -0.0090 -0.9989 0.0463
vn -0.0497 -0.8872 0.4586
vn -0.0000 -0.8256 0.5643
vn -0.0563 -0.8571 0.5120
vn -0.0653 -0.9974 0.0301
vn -0.0498 -0.9983 0.0285
vn -0.1463 -0.9875 0.0582
vn -0.0593 -0.9978 0.0284
vn -0.2014 -0.9762 0.0800
vn -0.1473 -0.9020 0.4059
vn -0.9856 -0.1693 -0.0000
vn -0.9849 -0.1732 0.0044
vn -0.9855 -0.1699 0.0003
vn -0.9871 -0.1289 0.0955
vn -0.7638 -0.4626 0.4501
vn -0.0366 -0.5008 0.8648
vn -0.7708 -0.4971 0.3985
vn -0.3230 -0.4341 0.8410
vn -0.0089 -0.4133 0.9106
vn -0.0000 -0.4049 0.9144
vn -0.0005 -0.4053 0.9142
vn -0.3331 -0.9410 0.0589
vn -0.2785 -0.9568 0.0838
vn -0.2879 -0.9543 0.0800
vn -0.9986 -0.0353 0.0391
vn -0.9995 -0.0000 0.0306
vn -0.0528 -0.9975 0.0466
vn -0.0355 -0.9988 0.0330
vn -0.0015 -0.9991 0.0431
vn -0.0177 -0.9991 0.0388
vn -0.9849 -0.1679 0.0422
vn -0.2191 -0.9694 0.1104
vn -0.0252 -0.4428 0.8963
vn -0.9184 0.3912 -0.0587
vn -0.0000 0.5857 -0.8105
vn -0.0166 0.9998 0.0131
vn -0.4104 0.4179 -0.8105
vn -0.1670 0.9857 0.0244
vn -0.9690 0.2095 -0.1311
vn -0.0020 0.9941 -0.1089
vn -0.1263 0.9889 -0.0783
vn -0.7359 0.6765 0.0271
vn -0.5841 0.8115 0.0145
vn -0.0876 0.9954 0.0398
vn -0.2373 0.9690 0.0691
vn -0.1006 0.9941 0.0403
vn -0.1633 0.9851 0.0535
vn -0.4951 0.8615 0.1128
vn -0.4516 0.8893 0.0723
vn -0.6286 0.7769 -0.0353
vn -0.2051 0.9768 0.0609
vn -0.1021 0.9943 0.0297
vn -0.5582 0.8289 0.0373
vn -0.0000 1.0000 -0.0000
vn -0.0000 0.9938 -0.1110
vn -0.0036 1.0000 0.0036
vn -0.0280 0.9993 0.0236
vn -0.0021 1.0000 0.0021
vn -0.0124 0.9999 0.0110
vn -0.0146 0.9998 0.0132
vn -0.0028 1.0000 0.0028
vn -0.0003 1.0000 0.0003
vn -0.0172 0.9997 0.0151
vn -0.0409 0.9985 0.0350
vn -0.0302 0.9992 0.0258
vn -0.9739 0.1309 -0.1856
vn -0.9732 0.0415 -0.2262
vn -0.5756 0.0029 -0.8177
vn -0.9146 0.3948 -0.0870
vn -0.8153 0.4032 -0.4155
vn -0.9879 0.1545 -0.0125
vn -0.9910 0.1102 -0.0759
vn -0.8282 0.5604 -0.0098
vn -0.0500 0.9983 0.0295
vn -0.1635 0.9854 0.0485
vn -0.9519 0.2607 -0.1608
vn -0.0049 1.0000 0.0043
vn -0.4984 0.8668 0.0182
vn -0.3988 0.9163 0.0358
vn -0.1353 0.9894 0.0518
vn -0.2603 0.9621 0.0807
vn -0.1871 0.9798 0.0701
vn -0.2155 0.9745 0.0633
vn -0.2594 0.9623 0.0814
vn -0.3419 0.9381 0.0560
vn -0.2837 0.9564 0.0688
vn -0.4507 0.8924 0.0220
vn -0.1740 0.9832 0.0554
vn -0.3108 0.9485 0.0614
vn -0.3042 0.9500 0.0702
vn -0.2666 0.9603 0.0825
vn -0.1890 0.9315 0.3108
vn -0.2224 0.9533 0.2042
vn -0.0377 0.9988 0.0318
vn -0.0374 0.9988 0.0323
vn -0.0137 0.9995 0.0295
vn -0.0055 0.9991 0.0416
vn -0.0325 0.9990 0.0310
vn -0.0239 0.9991 0.0357
vn -0.0113 0.9991 0.0412
vn -0.0302 0.9989 0.0349
vn -0.0219 0.9990 0.0383
vn -0.0796 0.9943 0.0710
vn -0.0489 0.9981 0.0365
vn -0.0001 0.9990 0.0442
vn -0.0000 0.9990 0.0443
vn -0.0116 0.9992 0.0392
vn -0.0091 0.9989 0.0461
vn -0.0472 0.8869 0.4596
vn -0.0000 0.8239 0.5667
vn -0.0570 0.8562 0.5135
vn -0.0645 0.9975 0.0304
vn -0.0499 0.9983 0.0285
vn -0.1379 0.9889 0.0554
vn -0.0590 0.9979 0.0284
vn -0.1885 0.9791 0.0764
vn -0.1371 0.9015 0.4104
vn -0.9869 0.1611 -0.0000
vn -0.9864 0.1645 0.0015
vn -0.9869 0.1616 0.0003
vn -0.9903 0.1082 0.0873
vn -0.7600 0.4406 0.4778
vn -0.0333 0.4930 0.8694
vn -0.7415 0.4915 0.4567
vn -0.3081 0.4209 0.8532
vn -0.0084 0.4127 0.9108
vn -0.0000 0.4048 0.9144
vn -0.0005 0.4052 0.9142
vn -0.3466 0.9365 0.0529
vn -0.2595 0.9624 0.0798
vn -0.2690 0.9601 0.0761
vn -0.0519 0.9976 0.0454
vn -0.0354 0.9988 0.0329
vn -0.0015 0.9991 0.0431
vn -0.0177 0.9991 0.0387
vn -0.9870 0.1587 0.0253
vn -0.2057 0.9730 0.1045
vn -0.0233 0.4402 0.8976
vn 0.0021 -1.0000 0.0021
vn 0.0036 -1.0000 0.0036
vn 0.0281 -0.9993 0.0237
vn 0.0125 -0.9999 0.0110
vn 0.0147 -0.9998 0.0132
vn 0.0028 -1.0000 0.0028
vn 0.0175 -0.9998 0.0138
vn 0.9183 -0.3915 -0.0587
vn 0.4126 -0.4178 -0.8094
vn 0.1686 -0.9853 0.0258
vn 0.0021 -0.9941 -0.1088
vn 0.9692 -0.2100 -0.1283
vn 0.1274 -0.9888 -0.0779
vn 0.0913 -0.9950 0.0396
vn 0.2546 -0.9643 0.0723
vn 0.1025 -0.9939 0.0410
vn 0.7348 -0.6776 0.0308
vn 0.5895 -0.8076 0.0167
vn 0.1692 -0.9840 0.0553
vn 0.5017 -0.8575 0.1141
vn 0.4720 -0.8784 0.0747
vn 0.2190 -0.9737 0.0637
vn 0.1049 -0.9941 0.0292
vn 0.6339 -0.7731 -0.0200
vn 0.5702 -0.8201 0.0488
vn 0.9703 -0.0000 -0.2420
vn 0.5726 -0.0000 -0.8198
vn 0.9661 -0.0000 -0.2581
vn 0.9706 -0.0014 -0.2409
vn 0.9875 -0.0050 -0.1576
vn 0.9996 -0.0219 -0.0149
vn 0.9864 -0.0000 -0.1641
vn 0.9999 -0.0000 -0.0171
vn 0.9955 -0.0138 -0.0939
vn 0.9950 -0.0000 -0.0996
vn 0.0003 -1.0000 0.0003
vn 0.0172 -0.9997 0.0151
vn 0.0413 -0.9985 0.0354
vn 0.0303 -0.9992 0.0259
vn 0.9731 -0.1367 -0.1855
vn 0.9734 -0.0462 -0.2245
vn 0.5767 -0.0038 -0.8169
vn 0.9105 -0.4038 -0.0886
vn 0.8244 -0.4061 -0.3943
vn 0.9867 -0.1623 -0.0083
vn 0.9912 -0.1155 -0.0642
vn 0.0528 -0.9981 0.0307
vn 0.8274 -0.5616 -0.0024
vn 0.1661 -0.9848 0.0515
vn 0.9704 -0.0004 -0.2415
vn 0.9503 -0.2694 -0.1560
vn 0.0049 -1.0000 0.0043
vn 0.0137 -0.9995 0.0296
vn 0.0055 -0.9991 0.0417
vn 0.0377 -0.9988 0.0318
vn 0.0375 -0.9988 0.0324
vn 0.0326 -0.9990 0.0311
vn 0.0240 -0.9991 0.0358
vn 0.0114 -0.9991 0.0413
vn 0.0302 -0.9989 0.0350
vn 0.0001 -0.9990 0.0443
vn 0.0220 -0.9990 0.0383
vn 0.0834 -0.9938 0.0737
vn 0.0501 -0.9981 0.0371
vn 0.0116 -0.9992 0.0392
vn 0.0090 -0.9989 0.0463
vn 0.0497 -0.8872 0.4586
vn 0.0563 -0.8571 0.5120
vn 0.1432 -0.9882 0.0537
vn 0.2794 -0.9564 0.0848
vn 0.2002 -0.9770 0.0737
vn 0.2306 -0.9708 0.0662
vn 0.2783 -0.9566 0.0857
vn 0.4973 -0.8674 0.0192
vn 0.3873 -0.9212 0.0386
vn 0.3633 -0.9298 0.0586
vn 0.3032 -0.9502 0.0723
vn 0.1859 -0.9809 0.0578
vn 0.4445 -0.8955 0.0235
vn 0.3312 -0.9413 0.0645
vn 0.2929 -0.9535 0.0712
vn 0.2821 -0.9558 0.0830
vn 0.2043 -0.9326 0.2975
vn 0.2399 -0.9544 0.1775
vn 0.9997 -0.0241 -0.0000
vn 0.9997 -0.0255 0.0014
vn 1.0000 -0.0000 -0.0000
vn 0.9922 -0.0451 0.1165
vn 0.9715 -0.0703 0.2266
vn 0.9934 -0.0000 0.1149
vn 0.9771 -0.0000 0.2128
vn 0.4222 -0.0094 0.9064
vn 0.4142 -0.0000 0.9102
vn 0.7894 -0.0816 0.6084
vn 0.7531 -0.0000 0.6580
vn 0.0653 -0.9974 0.0301
vn 0.0498 -0.9983 0.0285
vn 0.1463 -0.9875 0.0582
vn 0.0593 -0.9978 0.0284
vn 0.2014 -0.9762 0.0800
vn 0.1473 -0.9020 0.4059
vn 0.9856 -0.1693 -0.0000
vn 0.9849 -0.1733 0.0045
vn 0.9855 -0.1699 0.0003
vn 0.0089 -0.4133 0.9106
vn 0.0005 -0.4053 0.9142
vn 0.9871 -0.1288 0.0955
vn 0.7641 -0.4624 0.4499
vn 0.0366 -0.5008 0.8648
vn 0.7710 -0.4969 0.3983
vn 0.3230 -0.4341 0.8410
vn 0.0015 -0.9991 0.0431
vn 0.0528 -0.9975 0.0466
vn 0.0355 -0.9988 0.0330
vn 0.0177 -0.9991 0.0388
vn 0.2785 -0.9568 0.0838
vn 0.3332 -0.9410 0.0589
vn 0.2880 -0.9543 0.0800
vn 0.9986 -0.0354 0.0392
vn 0.9995 -0.0000 0.0307
vn 0.9849 -0.1679 0.0423
vn 0.2191 -0.9694 0.1104
vn 0.0251 -0.4428 0.8963
vn 0.0021 1.0000 0.0021
vn 0.0036 1.0000 0.0036
vn 0.0280 0.9993 0.0236
vn 0.0124 0.9999 0.0110
vn 0.0146 0.9998 0.0132
vn 0.0028 1.0000 0.0028
vn 0.0166 0.9998 0.0131
vn 0.9185 0.3910 -0.0586
vn 0.4104 0.4179 -0.8105
vn 0.1670 0.9857 0.0244
vn 0.0020 0.9941 -0.1089
vn 0.9690 0.2094 -0.1310
vn 0.1263 0.9889 -0.0783
vn 0.0876 0.9954 0.0398
vn 0.2373 0.9690 0.0691
vn 0.1006 0.9941 0.0403
vn 0.7360 0.6764 0.0271
vn 0.5842 0.8115 0.0145
vn 0.1633 0.9851 0.0535
vn 0.4951 0.8615 0.1128
vn 0.4516 0.8893 0.0723
vn 0.2051 0.9768 0.0609
vn 0.1021 0.9943 0.0297
vn 0.6287 0.7769 -0.0354
vn 0.5582 0.8289 0.0372
vn 0.0003 1.0000 0.0003
vn 0.0172 0.9997 0.0151
vn 0.0409 0.9985 0.0350
vn 0.0302 0.9992 0.0258
vn 0.9739 0.1308 -0.1855
vn 0.9732 0.0415 -0.2261
vn 0.5757 0.0029 -0.8177
vn 0.9147 0.3947 -0.0871
vn 0.8155 0.4028 -0.4156
vn 0.9879 0.1544 -0.0127
vn 0.9910 0.1100 -0.0759
vn 0.0500 0.9983 0.0295
vn 0.8283 0.5602 -0.0098
vn 0.1635 0.9854 0.0485
vn 0.9520 0.2606 -0.1607
vn 0.0049 1.0000 0.0043
vn 0.0137 0.9995 0.0295
vn 0.0055 0.9991 0.0416
vn 0.0377 0.9988 0.0318
vn 0.0374 0.9988 0.0323
vn 0.0325 0.9990 0.0310
vn 0.0239 0.9991 0.0357
vn 0.0113 0.9991 0.0412
vn 0.0302 0.9989 0.0349
vn 0.0001 0.9990 0.0442
vn 0.0219 0.9990 0.0383
vn 0.0796 0.9943 0.0710
vn 0.0489 0.9981 0.0365
vn 0.0116 0.9992 0.0392
vn 0.0091 0.9989 0.0462
vn 0.0472 0.8869 0.4596
vn 0.0570 0.8562 0.5135
vn 0.1353 0.9895 0.0518
vn 0.2603 0.9621 0.0807
vn 0.1871 0.9798 0.0701
vn 0.2155 0.9745 0.0633
vn 0.2594 0.9623 0.0814
vn 0.4984 0.8668 0.0182
vn 0.3988 0.9163 0.0358
vn 0.3419 0.9381 0.0560
vn 0.2838 0.9564 0.0688
vn 0.1740 0.9832 0.0554
vn 0.4507 0.8924 0.0221
vn 0.3108 0.9485 0.0614
vn 0.3042 0.9500 0.0703
vn 0.2666 0.9603 0.0825
vn 0.1890 0.9315 0.3108
vn 0.2224 0.9533 0.2041
vn 0.0645 0.9975 0.0304
vn 0.0499 0.9983 0.0285
vn 0.1379 0.9889 0.0554
vn 0.0590 0.9979 0.0284
vn 0.1885 0.9791 0.0764
vn 0.1371 0.9015 0.4104
vn 0.9869 0.1611 -0.0000
vn 0.9864 0.1645 0.0015
vn 0.9869 0.1616 0.0003
vn 0.0084 0.4127 0.9108
vn 0.0005 0.4052 0.9142
vn 0.9903 0.1082 0.0874
vn 0.7602 0.4403 0.4778
vn 0.0333 0.4930 0.8694
vn 0.7418 0.4913 0.4564
vn 0.3081 0.4209 0.8532
vn 0.0015 0.9991 0.0431
vn 0.0518 0.9976 0.0454
vn 0.0354 0.9988 0.0329
vn 0.0177 0.9991 0.0387
vn 0.2595 0.9624 0.0798
vn 0.3466 0.9365 0.0529
vn 0.2690 0.9601 0.0761
vn 0.9870 0.1587 0.0253
vn 0.2057 0.9730 0.1045
vn 0.0233 0.4402 0.8976
vn -0.0000 -0.9996 0.0289
vn -0.0000 0.9996 0.0288
vn -0.5451 -0.8382 0.0186
vn -0.2760 -0.9577 0.0815
vn -0.1047 -0.9932 0.0504
vn -0.4048 -0.9113 0.0757
vn -0.0358 -0.9989 0.0300
vn -0.0086 -0.9999 0.0111
vn -0.0256 -0.9994 0.0218
vn -0.0574 -0.9975 0.0420
vn -0.5418 0.8403 0.0176
vn -0.2572 0.9632 0.0777
vn -0.1022 0.9935 0.0495
vn -0.3833 0.9207 0.0731
vn -0.0358 0.9989 0.0299
vn -0.0086 0.9999 0.0110
vn -0.0255 0.9994 0.0217
vn -0.0564 0.9975 0.0417
vn 0.0086 -0.9999 0.0111
vn 0.0358 -0.9989 0.0300
vn 0.0256 -0.9994 0.0218
vn 0.2760 -0.9577 0.0815
vn 0.1047 -0.9932 0.0504
vn 0.5451 -0.8382 0.0186
vn 0.4048 -0.9113 0.0757
vn 0.0574 -0.9975 0.0420
vn 0.0086 0.9999 0.0110
vn 0.0358 0.9989 0.0299
vn 0.0255 0.9994 0.0217
vn 0.2572 0.9632 0.0777
vn 0.1022 0.9935 0.0495
vn 0.5418 0.8403 0.0176
vn 0.3833 0.9207 0.0731
vn 0.0564 0.9975 0.0417
vn -0.0000 -1.0000 0.0066
vn -0.0000 1.0000 0.0066
s 0
f 3//1 4//1 6//1 5//1
f 7//2 8//2 10//2 9//2
f 11//3 13//3 14//3 12//3
f 1//4 2//4 8//4 7//4
f 3//5 11//5 12//5 4//5
f 1//6 3//6 5//6 2//6
f 7//7 9//7 13//7 11//7
f 1//8 7//8 11//8 3//8
f 16//9 17//9 19//9 18//9
f 20//10 22//10 23//10 21//10
f 24//11 27//11 28//11 25//11
f 29//12 30//12 32//12 31//12
f 29//13 33//13 34//13 30//13
f 16//14 24//14 25//14 17//14
f 25//15 26//15 19//15 17//15
f 22//16 31//16 32//16 23//16
f 15//17 19//17 22//17 20//17
f 25//18 29//18 31//18 26//18
f 25//19 28//19 33//19 29//19
f 19//20 26//20 31//20 22//20
f 37//21 38//21 40//21 39//21
f 43//21 44//21 46//21 45//21
f 47//22 48//22 50//22 49//22
f 51//22 52//22 54//22 53//22
f 35//23 36//23 48//23 47//23
f 41//23 42//23 52//23 51//23
f 48//22 51//22 53//22 50//22
f 39//21 40//21 44//21 43//21
f 35//24 37//24 39//24 36//24
f 41//24 43//24 45//24 42//24
f 36//24 39//24 43//24 41//24
f 36//23 41//23 51//23 48//23
f 57//25 58//25 60//25 59//25
f 55//26 56//26 60//26 58//26
f 61//27 62//27 64//27 63//27
f 67//21 68//21 70//21 69//21
f 65//28 66//28 70//28 68//28
f 71//29 72//29 74//29 73//29
f 59//21 60//21 68//21 67//21
f 56//28 65//28 68//28 60//28
f 63//29 64//29 72//29 71//29
f 55//30 61//30 63//30 56//30
f 65//31 71//31 73//31 66//31
f 56//31 63//31 71//31 65//31
f 75//2 76//2 78//2 77//2
f 79//32 81//32 82//32 80//32
f 83//2 84//2 86//2 85//2
f 87//32 89//32 90//32 88//32
f 77//2 78//2 84//2 83//2
f 81//32 87//32 88//32 82//32
f 75//33 77//33 81//33 79//33
f 83//33 85//33 89//33 87//33
f 77//33 83//33 87//33 81//33
f 91//34 93//34 94//34 92//34
f 95//35 97//35 98//35 96//35
f 99//32 101//32 102//32 100//32
f 103//36 105//36 106//36 104//36
f 93//32 99//32 100//32 94//32
f 97//37 103//37 104//37 98//37
f 92//38 94//38 97//38 95//38
f 100//32 102//32 105//32 103//32
f 94//39 100//39 103//39 97//39
f 107//22 108//22 110//22 109//22
f 111//22 112//22 114//22 113//22
f 115//22 116//22 118//22 117//22
f 119//22 120//22 122//22 121//22
f 109//22 110//22 116//22 115//22
f 113//22 114//22 120//22 119//22
f 108//22 111//22 113//22 110//22
f 116//22 119//22 121//22 118//22
f 110//22 113//22 119//22 116//22
f 9//2 10//2 76//2 75//2
f 13//40 79//40 80//40 14//40
f 9//33 75//33 79//33 13//33
f 27//41 91//41 92//41 28//41
f 33//42 95//42 96//42 34//42
f 28//43 92//43 95//43 33//43
f 49//22 50//22 108//22 107//22
f 53//22 54//22 112//22 111//22
f 50//22 53//22 111//22 108//22
f 8//22 47//22 49//22 10//22
f 5//44 6//44 38//44 37//44
f 2//45 5//45 37//45 35//45
f 2//46 35//46 47//46 8//46
f 76//22 107//22 109//22 78//22
f 84//22 115//22 117//22 86//22
f 78//22 109//22 115//22 84//22
f 18//47 19//47 58//47 57//47
f 15//48 55//48 58//48 19//48
f 20//49 21//49 62//49 61//49
f 15//50 20//50 61//50 55//50
f 4//51 16//51 18//51 6//51
f 12//52 14//52 27//52 24//52
f 4//53 12//53 24//53 16//53
f 38//54 57//54 59//54 40//54
f 44//21 67//21 69//21 46//21
f 40//21 59//21 67//21 44//21
f 80//32 82//32 93//32 91//32
f 88//32 90//32 101//32 99//32
f 82//32 88//32 99//32 93//32
f 6//55 18//55 57//55 38//55
f 14//56 80//56 91//56 27//56
f 10//22 49//22 107//22 76//22
f 123//57 125//57 126//57 124//57
f 127//58 129//58 130//58 128//58
f 134//59 135//59 137//59 136//59
f 132//60 136//60 137//60 133//60
f 134//61 136//61 132//61 131//61
f 140//62 141//62 143//62 142//62
f 138//63 142//63 143//63 139//63
f 125//64 132//64 133//64 126//64
f 129//65 138//65 139//65 130//65
f 124//66 126//66 129//66 127//66
f 135//67 140//67 142//67 137//67
f 133//60 137//60 142//60 138//60
f 126//68 133//68 138//68 129//68
f 144//69 146//69 147//69 145//69
f 149//60 151//60 152//60 150//60
f 146//70 149//70 150//70 147//70
f 150//71 152//71 154//71 153//71
f 147//72 150//72 153//72 148//72
f 155//73 156//73 158//73 157//73
f 159//74 160//74 162//74 161//74
f 163//75 164//75 166//75 165//75
f 167//75 168//75 170//75 169//75
f 157//75 158//75 164//75 163//75
f 161//75 162//75 168//75 167//75
f 156//73 159//73 161//73 158//73
f 164//75 167//75 169//75 166//75
f 158//75 161//75 167//75 164//75
f 171//76 172//76 174//76 173//76
f 175//77 176//77 174//77 172//77
f 179//78 180//78 182//78 181//78
f 183//79 184//79 182//79 180//79
f 189//80 190//80 188//80 187//80
f 193//80 194//80 192//80 191//80
f 187//81 188//81 178//81 177//81
f 191//82 192//82 186//82 185//82
f 173//78 174//78 180//78 179//78
f 176//79 183//79 180//79 174//79
f 190//80 193//80 191//80 188//80
f 175//83 177//83 178//83 176//83
f 183//84 185//84 186//84 184//84
f 176//84 178//84 185//84 183//84
f 188//82 191//82 185//82 178//82
f 195//85 197//85 198//85 196//85
f 199//86 202//86 203//86 200//86
f 204//87 206//87 207//87 205//87
f 208//88 210//88 211//88 209//88
f 197//89 204//89 205//89 198//89
f 202//90 208//90 209//90 203//90
f 196//85 198//85 202//85 199//85
f 205//91 207//91 210//91 208//91
f 198//92 205//92 208//92 202//92
f 215//93 216//93 218//93 217//93
f 213//94 217//94 218//94 214//94
f 215//95 217//95 213//95 212//95
f 221//96 224//96 225//96 222//96
f 225//97 226//97 223//97 222//97
f 215//98 221//98 222//98 216//98
f 222//99 223//99 218//99 216//99
f 214//100 218//100 220//100 219//100
f 223//101 226//101 228//101 227//101
f 218//102 223//102 227//102 220//102
f 231//80 232//80 230//80 229//80
f 235//80 236//80 234//80 233//80
f 239//80 240//80 238//80 237//80
f 243//80 244//80 242//80 241//80
f 237//80 238//80 232//80 231//80
f 241//80 242//80 236//80 235//80
f 232//80 235//80 233//80 230//80
f 240//80 243//80 241//80 238//80
f 238//80 241//80 235//80 232//80
f 134//103 195//103 196//103 135//103
f 140//104 199//104 200//104 141//104
f 200//105 201//105 143//105 141//105
f 135//106 196//106 199//106 140//106
f 151//107 213//107 214//107 152//107
f 152//108 214//108 219//108 154//108
f 229//80 230//80 190//80 189//80
f 233//80 234//80 194//80 193//80
f 230//80 233//80 193//80 190//80
f 123//109 124//109 156//109 155//109
f 127//110 128//110 160//110 159//110
f 124//111 127//111 159//111 156//111
f 144//112 145//112 172//112 171//112
f 147//113 175//113 172//113 145//113
f 154//114 189//114 187//114 153//114
f 147//115 148//115 177//115 175//115
f 153//116 187//116 177//116 148//116
f 220//117 231//117 229//117 219//117
f 228//118 239//118 237//118 227//118
f 227//119 237//119 231//119 220//119
f 128//120 130//120 146//120 144//120
f 139//121 143//121 151//121 149//121
f 130//122 139//122 149//122 146//122
f 160//123 171//123 173//123 162//123
f 168//124 179//124 181//124 170//124
f 162//124 173//124 179//124 168//124
f 200//125 212//125 213//125 201//125
f 200//126 203//126 215//126 212//126
f 209//127 211//127 224//127 221//127
f 203//128 209//128 221//128 215//128
f 128//129 144//129 171//129 160//129
f 143//130 201//130 213//130 151//130
f 219//131 229//131 189//131 154//131
f 247//21 248//21 250//21 249//21
f 253//21 254//21 256//21 255//21
f 257//22 258//22 260//22 259//22
f 261//22 262//22 264//22 263//22
f 245//23 246//23 258//23 257//23
f 251//23 252//23 262//23 261//23
f 258//22 261//22 263//22 260//22
f 249//21 250//21 254//21 253//21
f 245//24 247//24 249//24 246//24
f 251//24 253//24 255//24 252//24
f 246//24 249//24 253//24 251//24
f 246//23 251//23 261//23 258//23
f 267//21 268//21 270//21 269//21
f 265//28 266//28 270//28 268//28
f 271//29 272//29 274//29 273//29
f 277//21 278//21 280//21 279//21
f 275//28 276//28 280//28 278//28
f 281//29 282//29 284//29 283//29
f 269//21 270//21 278//21 277//21
f 266//28 275//28 278//28 270//28
f 273//29 274//29 282//29 281//29
f 265//31 271//31 273//31 266//31
f 275//31 281//31 283//31 276//31
f 266//31 273//31 281//31 275//31
f 287//132 288//132 290//132 289//132
f 291//133 292//133 294//133 293//133
f 296//134 298//134 297//134 295//134
f 285//135 286//135 292//135 291//135
f 290//136 296//136 295//136 289//136
f 285//137 287//137 289//137 286//137
f 295//138 297//138 294//138 292//138
f 289//139 295//139 292//139 286//139
f 300//140 301//140 303//140 302//140
f 305//141 307//141 306//141 304//141
f 310//142 312//142 311//142 309//142
f 313//143 314//143 316//143 315//143
f 316//144 318//144 317//144 315//144
f 303//145 310//145 309//145 302//145
f 308//146 310//146 303//146 301//146
f 307//147 314//147 313//147 306//147
f 304//148 306//148 301//148 299//148
f 308//149 313//149 315//149 310//149
f 315//150 317//150 312//150 310//150
f 306//151 313//151 308//151 301//151
f 319//22 320//22 322//22 321//22
f 323//22 324//22 326//22 325//22
f 327//22 328//22 330//22 329//22
f 331//22 332//22 334//22 333//22
f 321//22 322//22 328//22 327//22
f 325//22 326//22 332//22 331//22
f 320//22 323//22 325//22 322//22
f 328//22 331//22 333//22 330//22
f 322//22 325//22 331//22 328//22
f 335//133 336//133 338//133 337//133
f 340//152 342//152 341//152 339//152
f 343//133 344//133 346//133 345//133
f 348//152 350//152 349//152 347//152
f 337//133 338//133 344//133 343//133
f 342//152 348//152 347//152 341//152
f 339//153 341//153 338//153 336//153
f 347//153 349//153 346//153 344//153
f 341//153 347//153 344//153 338//153
f 352//154 354//154 353//154 351//154
f 356//155 358//155 357//155 355//155
f 360//152 362//152 361//152 359//152
f 364//156 366//156 365//156 363//156
f 354//152 360//152 359//152 353//152
f 358//157 364//157 363//157 357//157
f 355//158 357//158 354//158 352//158
f 363//152 365//152 362//152 360//152
f 357//159 363//159 360//159 354//159
f 259//22 260//22 320//22 319//22
f 263//22 264//22 324//22 323//22
f 260//22 263//22 323//22 320//22
f 293//133 294//133 336//133 335//133
f 298//160 340//160 339//160 297//160
f 297//153 339//153 336//153 294//153
f 312//161 352//161 351//161 311//161
f 318//162 356//162 355//162 317//162
f 317//163 355//163 352//163 312//163
f 262//22 291//22 293//22 264//22
f 255//164 256//164 288//164 287//164
f 252//165 255//165 287//165 285//165
f 252//166 285//166 291//166 262//166
f 324//22 335//22 337//22 326//22
f 332//22 343//22 345//22 334//22
f 326//22 337//22 343//22 332//22
f 279//167 280//167 301//167 300//167
f 276//168 299//168 301//168 280//168
f 283//169 284//169 305//169 304//169
f 276//170 283//170 304//170 299//170
f 248//21 267//21 269//21 250//21
f 254//21 277//21 279//21 256//21
f 250//21 269//21 277//21 254//21
f 288//171 300//171 302//171 290//171
f 309//172 311//172 298//172 296//172
f 302//173 309//173 296//173 290//173
f 351//152 353//152 342//152 340//152
f 359//152 361//152 350//152 348//152
f 353//152 359//152 348//152 342//152
f 256//174 279//174 300//174 288//174
f 311//175 351//175 340//175 298//175
f 264//22 293//22 335//22 324//22
f 367//75 368//75 370//75 369//75
f 371//75 372//75 374//75 373//75
f 375//75 376//75 378//75 377//75
f 379//75 380//75 382//75 381//75
f 369//75 370//75 376//75 375//75
f 373//75 374//75 380//75 379//75
f 368//75 371//75 373//75 370//75
f 376//75 379//75 381//75 378//75
f 370//75 373//75 379//75 376//75
f 383//78 384//78 386//78 385//78
f 387//79 388//79 386//79 384//79
f 391//78 392//78 394//78 393//78
f 395//79 396//79 394//79 392//79
f 401//80 402//80 400//80 399//80
f 405//80 406//80 404//80 403//80
f 399//82 400//82 390//82 389//82
f 403//82 404//82 398//82 397//82
f 385//78 386//78 392//78 391//78
f 388//79 395//79 392//79 386//79
f 402//80 405//80 403//80 400//80
f 387//84 389//84 390//84 388//84
f 395//84 397//84 398//84 396//84
f 388//84 390//84 397//84 395//84
f 400//82 403//82 397//82 390//82
f 408//176 410//176 409//176 407//176
f 412//177 414//177 413//177 411//177
f 418//178 419//178 421//178 420//178
f 416//179 419//179 418//179 415//179
f 418//180 420//180 417//180 415//180
f 424//181 425//181 427//181 426//181
f 423//182 425//182 424//182 422//182
f 410//183 416//183 415//183 409//183
f 414//184 423//184 422//184 413//184
f 411//185 413//185 410//185 408//185
f 419//186 424//186 426//186 421//186
f 422//179 424//179 419//179 416//179
f 413//187 422//187 416//187 410//187
f 429//188 431//188 430//188 428//188
f 434//179 436//179 435//179 433//179
f 431//189 434//189 433//189 430//189
f 437//190 438//190 436//190 434//190
f 432//191 437//191 434//191 431//191
f 441//80 442//80 440//80 439//80
f 445//80 446//80 444//80 443//80
f 449//80 450//80 448//80 447//80
f 453//80 454//80 452//80 451//80
f 447//80 448//80 442//80 441//80
f 451//80 452//80 446//80 445//80
f 442//80 445//80 443//80 440//80
f 450//80 453//80 451//80 448//80
f 448//80 451//80 445//80 442//80
f 456//192 458//192 457//192 455//192
f 461//193 463//193 462//193 460//193
f 465//194 467//194 466//194 464//194
f 469//195 471//195 470//195 468//195
f 458//196 465//196 464//196 457//196
f 463//197 469//197 468//197 462//197
f 460//192 462//192 458//192 456//192
f 468//198 470//198 467//198 465//198
f 462//199 468//199 465//199 458//199
f 475//200 476//200 478//200 477//200
f 473//201 476//201 475//201 472//201
f 475//202 477//202 474//202 472//202
f 483//203 486//203 485//203 482//203
f 484//204 486//204 483//204 481//204
f 478//205 483//205 482//205 477//205
f 481//206 483//206 478//206 476//206
f 479//207 480//207 476//207 473//207
f 487//208 488//208 484//208 481//208
f 480//209 487//209 481//209 476//209
f 439//80 440//80 402//80 401//80
f 443//80 444//80 406//80 405//80
f 440//80 443//80 405//80 402//80
f 421//210 456//210 455//210 420//210
f 427//211 461//211 460//211 426//211
f 459//212 461//212 427//212 425//212
f 426//213 460//213 456//213 421//213
f 436//214 473//214 472//214 435//214
f 438//215 479//215 473//215 436//215
f 377//216 378//216 408//216 407//216
f 381//217 382//217 412//217 411//217
f 378//218 381//218 411//218 408//218
f 393//219 394//219 429//219 428//219
f 396//220 431//220 429//220 394//220
f 406//221 438//221 437//221 404//221
f 396//222 398//222 432//222 431//222
f 404//223 437//223 432//223 398//223
f 446//224 480//224 479//224 444//224
f 454//225 488//225 487//225 452//225
f 452//226 487//226 480//226 446//226
f 372//124 383//124 385//124 374//124
f 380//124 391//124 393//124 382//124
f 374//124 385//124 391//124 380//124
f 428//227 430//227 414//227 412//227
f 433//228 435//228 425//228 423//228
f 430//229 433//229 423//229 414//229
f 459//230 472//230 474//230 461//230
f 474//231 477//231 463//231 461//231
f 482//232 485//232 471//232 469//232
f 477//233 482//233 469//233 463//233
f 382//234 393//234 428//234 412//234
f 435//235 472//235 459//235 425//235
f 444//236 479//236 438//236 406//236
f 489//2 490//2 492//2 491//2
f 493//32 495//32 496//32 494//32
f 497//2 498//2 500//2 499//2
f 501//32 503//32 504//32 502//32
f 491//2 492//2 498//2 497//2
f 495//32 501//32 502//32 496//32
f 489//33 491//33 495//33 493//33
f 497//33 499//33 503//33 501//33
f 491//33 497//33 501//33 495//33
f 505//32 507//32 508//32 506//32
f 509//237 511//237 512//237 510//237
f 513//238 515//238 516//238 514//238
f 517//239 519//239 520//239 518//239
f 507//32 513//32 514//32 508//32
f 511//240 517//240 518//240 512//240
f 506//32 508//32 511//32 509//32
f 514//241 516//241 519//241 517//241
f 508//242 514//242 517//242 511//242
f 521//22 522//22 524//22 523//22
f 525//22 526//22 528//22 527//22
f 529//22 530//22 532//22 531//22
f 533//22 534//22 536//22 535//22
f 523//22 524//22 530//22 529//22
f 527//22 528//22 534//22 533//22
f 522//22 525//22 527//22 524//22
f 530//22 533//22 535//22 532//22
f 524//22 527//22 533//22 530//22
f 537//2 538//2 540//2 539//2
f 541//243 543//243 544//243 542//243
f 549//244 550//244 548//244 547//244
f 539//245 540//245 546//245 545//245
f 543//246 547//246 548//246 544//246
f 537//247 539//247 543//247 541//247
f 546//248 549//248 547//248 545//248
f 539//249 545//249 547//249 543//249
f 551//250 553//250 554//250 552//250
f 560//251 561//251 559//251 558//251
f 556//252 558//252 559//252 557//252
f 564//253 565//253 563//253 562//253
f 567//254 569//254 570//254 568//254
f 553//255 562//255 563//255 554//255
f 563//256 565//256 555//256 554//256
f 560//257 567//257 568//257 561//257
f 555//258 560//258 558//258 554//258
f 552//259 554//259 558//259 556//259
f 565//260 566//260 569//260 567//260
f 555//261 565//261 567//261 560//261
f 571//22 572//22 574//22 573//22
f 575//22 576//22 578//22 577//22
f 583//262 584//262 582//262 581//262
f 589//262 590//262 588//262 587//262
f 573//263 574//263 580//263 579//263
f 577//263 578//263 586//263 585//263
f 572//22 575//22 577//22 574//22
f 587//262 588//262 584//262 583//262
f 580//264 583//264 581//264 579//264
f 586//264 589//264 587//264 585//264
f 585//264 587//264 583//264 580//264
f 574//263 577//263 585//263 580//263
f 593//265 594//265 592//265 591//265
f 592//266 594//266 596//266 595//266
f 599//267 600//267 598//267 597//267
f 603//262 604//262 602//262 601//262
f 602//268 604//268 606//268 605//268
f 609//269 610//269 608//269 607//269
f 601//262 602//262 594//262 593//262
f 594//268 602//268 605//268 596//268
f 607//269 608//269 600//269 599//269
f 596//270 599//270 597//270 595//270
f 606//271 609//271 607//271 605//271
f 605//271 607//271 599//271 596//271
f 499//2 500//2 538//2 537//2
f 503//272 541//272 542//272 504//272
f 499//33 537//33 541//33 503//33
f 515//273 551//273 552//273 516//273
f 519//274 556//274 557//274 520//274
f 516//275 552//275 556//275 519//275
f 531//22 532//22 572//22 571//22
f 535//22 536//22 576//22 575//22
f 532//22 535//22 575//22 572//22
f 490//22 521//22 523//22 492//22
f 498//22 529//22 531//22 500//22
f 492//22 523//22 529//22 498//22
f 538//22 571//22 573//22 540//22
f 581//276 582//276 550//276 549//276
f 579//277 581//277 549//277 546//277
f 540//278 573//278 579//278 546//278
f 591//279 592//279 565//279 564//279
f 565//280 592//280 595//280 566//280
f 597//281 598//281 570//281 569//281
f 595//282 597//282 569//282 566//282
f 494//32 496//32 507//32 505//32
f 502//32 504//32 515//32 513//32
f 496//32 502//32 513//32 507//32
f 542//283 544//283 553//283 551//283
f 550//284 564//284 562//284 548//284
f 544//285 548//285 562//285 553//285
f 584//286 593//286 591//286 582//286
f 590//262 603//262 601//262 588//262
f 588//262 601//262 593//262 584//262
f 582//287 591//287 564//287 550//287
f 504//288 542//288 551//288 515//288
f 500//22 531//22 571//22 538//22
f 611//289 613//289 614//289 612//289
f 615//290 617//290 618//290 616//290
f 619//291 621//291 622//291 620//291
f 623//292 625//292 626//292 624//292
f 613//293 619//293 620//293 614//293
f 617//294 623//294 624//294 618//294
f 612//295 614//295 617//295 615//295
f 620//291 622//291 625//291 623//291
f 614//296 620//296 623//296 617//296
f 628//297 631//297 632//297 629//297
f 632//97 633//97 630//97 629//97
f 638//298 639//298 637//298 636//298
f 638//299 641//299 642//299 639//299
f 640//300 641//300 638//300 636//300
f 631//301 636//301 637//301 632//301
f 637//302 639//302 633//302 632//302
f 630//101 633//101 635//101 634//101
f 639//303 642//303 644//303 643//303
f 633//304 639//304 643//304 635//304
f 647//80 648//80 646//80 645//80
f 651//80 652//80 650//80 649//80
f 655//80 656//80 654//80 653//80
f 659//80 660//80 658//80 657//80
f 653//80 654//80 648//80 647//80
f 657//80 658//80 652//80 651//80
f 648//80 651//80 649//80 646//80
f 656//80 659//80 657//80 654//80
f 654//80 657//80 651//80 648//80
f 663//305 664//305 662//305 661//305
f 663//306 666//306 667//306 664//306
f 665//307 666//307 663//307 661//307
f 670//308 671//308 669//308 668//308
f 670//309 672//309 673//309 671//309
f 674//310 676//310 677//310 675//310
f 678//311 680//311 681//311 679//311
f 666//312 674//312 675//312 667//312
f 672//313 678//313 679//313 673//313
f 664//314 670//314 668//314 662//314
f 664//306 667//306 672//306 670//306
f 675//315 677//315 680//315 678//315
f 667//316 675//316 678//316 672//316
f 682//306 684//306 685//306 683//306
f 688//317 690//317 691//317 689//317
f 684//318 688//318 689//318 685//318
f 683//319 685//319 687//319 686//319
f 685//320 689//320 692//320 687//320
f 695//321 696//321 694//321 693//321
f 699//322 700//322 698//322 697//322
f 703//323 704//323 702//323 701//323
f 707//323 708//323 706//323 705//323
f 701//323 702//323 696//323 695//323
f 705//323 706//323 700//323 699//323
f 696//321 699//321 697//321 694//321
f 704//323 707//323 705//323 702//323
f 702//323 705//323 699//323 696//323
f 711//80 712//80 710//80 709//80
f 715//80 716//80 714//80 713//80
f 721//324 722//324 720//324 719//324
f 720//325 722//325 718//325 717//325
f 729//326 730//326 728//326 727//326
f 728//327 730//327 726//327 725//327
f 723//328 724//328 712//328 711//328
f 731//329 732//329 716//329 715//329
f 727//326 728//326 722//326 721//326
f 722//327 728//327 725//327 718//327
f 712//80 715//80 713//80 710//80
f 718//330 724//330 723//330 717//330
f 726//331 732//331 731//331 725//331
f 725//331 731//331 724//331 718//331
f 724//329 731//329 715//329 712//329
f 621//332 661//332 662//332 622//332
f 625//333 668//333 669//333 626//333
f 669//334 671//334 627//334 626//334
f 622//335 662//335 668//335 625//335
f 641//336 682//336 683//336 642//336
f 642//337 683//337 686//337 644//337
f 709//80 710//80 656//80 655//80
f 713//80 714//80 660//80 659//80
f 710//80 713//80 659//80 656//80
f 693//338 694//338 677//338 676//338
f 697//339 698//339 681//339 680//339
f 694//340 697//340 680//340 677//340
f 635//118 647//118 645//118 634//118
f 644//341 655//341 653//341 643//341
f 643//342 653//342 647//342 635//342
f 719//343 720//343 691//343 690//343
f 691//344 720//344 717//344 689//344
f 687//345 711//345 709//345 686//345
f 717//346 723//346 692//346 689//346
f 692//347 723//347 711//347 687//347
f 616//348 618//348 631//348 628//348
f 627//349 641//349 640//349 626//349
f 624//350 626//350 640//350 636//350
f 618//351 624//351 636//351 631//351
f 671//352 673//352 684//352 682//352
f 679//353 681//353 690//353 688//353
f 673//354 679//354 688//354 684//354
f 700//355 721//355 719//355 698//355
f 708//356 729//356 727//356 706//356
f 706//356 727//356 721//356 700//356
f 698//357 719//357 690//357 681//357
f 627//358 671//358 682//358 641//358
f 686//359 709//359 655//359 644//359
f 733//22 734//22 736//22 735//22
f 737//22 738//22 740//22 739//22
f 741//22 742//22 744//22 743//22
f 745//22 746//22 748//22 747//22
f 735//22 736//22 742//22 741//22
f 739//22 740//22 746//22 745//22
f 734//22 737//22 739//22 736//22
f 742//22 745//22 747//22 744//22
f 736//22 739//22 745//22 742//22
f 749//133 750//133 752//133 751//133
f 754//152 756//152 755//152 753//152
f 757//133 758//133 760//133 759//133
f 762//152 764//152 763//152 761//152
f 751//133 752//133 758//133 757//133
f 756//152 762//152 761//152 755//152
f 753//153 755//153 752//153 750//153
f 761//153 763//153 760//153 758//153
f 755//153 761//153 758//153 752//153
f 766//152 768//152 767//152 765//152
f 770//360 772//360 771//360 769//360
f 774//361 776//361 775//361 773//361
f 778//362 780//362 779//362 777//362
f 768//152 774//152 773//152 767//152
f 772//363 778//363 777//363 771//363
f 769//152 771//152 768//152 766//152
f 777//364 779//364 776//364 774//364
f 771//365 777//365 774//365 768//365
f 781//22 782//22 784//22 783//22
f 785//22 786//22 788//22 787//22
f 793//262 794//262 792//262 791//262
f 799//262 800//262 798//262 797//262
f 783//263 784//263 790//263 789//263
f 787//263 788//263 796//263 795//263
f 782//22 785//22 787//22 784//22
f 797//262 798//262 794//262 793//262
f 790//264 793//264 791//264 789//264
f 796//264 799//264 797//264 795//264
f 795//264 797//264 793//264 790//264
f 784//263 787//263 795//263 790//263
f 803//262 804//262 802//262 801//262
f 802//268 804//268 806//268 805//268
f 809//269 810//269 808//269 807//269
f 813//262 814//262 812//262 811//262
f 812//268 814//268 816//268 815//268
f 819//269 820//269 818//269 817//269
f 811//262 812//262 804//262 803//262
f 804//268 812//268 815//268 806//268
f 817//269 818//269 810//269 809//269
f 806//271 809//271 807//271 805//271
f 816//271 819//271 817//271 815//271
f 815//271 817//271 809//271 806//271
f 821//133 822//133 824//133 823//133
f 826//366 828//366 827//366 825//366
f 833//367 834//367 832//367 831//367
f 823//368 824//368 830//368 829//368
f 828//369 834//369 833//369 827//369
f 825//370 827//370 824//370 822//370
f 830//371 833//371 831//371 829//371
f 827//372 833//372 830//372 824//372
f 836//373 839//373 838//373 835//373
f 844//374 845//374 843//374 842//374
f 841//375 845//375 844//375 840//375
f 848//376 849//376 847//376 846//376
f 852//377 854//377 853//377 851//377
f 839//378 849//378 848//378 838//378
f 847//379 849//379 839//379 837//379
f 843//380 852//380 851//380 842//380
f 839//381 844//381 842//381 837//381
f 840//382 844//382 839//382 836//382
f 851//383 853//383 850//383 847//383
f 842//384 851//384 847//384 837//384
f 743//22 744//22 782//22 781//22
f 747//22 748//22 786//22 785//22
f 744//22 747//22 785//22 782//22
f 759//133 760//133 822//133 821//133
f 764//385 826//385 825//385 763//385
f 763//153 825//153 822//153 760//153
f 776//386 836//386 835//386 775//386
f 780//387 841//387 840//387 779//387
f 779//388 840//388 836//388 776//388
f 738//22 749//22 751//22 740//22
f 746//22 757//22 759//22 748//22
f 740//22 751//22 757//22 746//22
f 786//22 821//22 823//22 788//22
f 831//389 832//389 800//389 799//389
f 829//390 831//390 799//390 796//390
f 788//391 823//391 829//391 796//391
f 846//392 847//392 814//392 813//392
f 814//393 847//393 850//393 816//393
f 853//394 854//394 820//394 819//394
f 850//395 853//395 819//395 816//395
f 765//152 767//152 756//152 754//152
f 773//152 775//152 764//152 762//152
f 767//152 773//152 762//152 756//152
f 794//262 803//262 801//262 792//262
f 800//262 813//262 811//262 798//262
f 798//262 811//262 803//262 794//262
f 835//396 838//396 828//396 826//396
f 834//397 848//397 846//397 832//397
f 838//398 848//398 834//398 828//398
f 832//399 846//399 813//399 800//399
f 775//400 835//400 826//400 764//400
f 748//22 759//22 821//22 786//22
f 857//80 858//80 856//80 855//80
f 861//80 862//80 860//80 859//80
f 865//80 866//80 864//80 863//80
f 869//80 870//80 868//80 867//80
f 863//80 864//80 858//80 857//80
f 867//80 868//80 862//80 861//80
f 858//80 861//80 859//80 856//80
f 866//80 869//80 867//80 864//80
f 864//80 867//80 861//80 858//80
f 872//401 874//401 873//401 871//401
f 876//402 878//402 877//402 875//402
f 880//403 882//403 881//403 879//403
f 884//404 887//404 886//404 883//404
f 874//405 880//405 879//405 873//405
f 878//406 884//406 883//406 877//406
f 875//407 877//407 874//407 872//407
f 883//403 886//403 882//403 880//403
f 877//408 883//408 880//408 874//408
f 890//409 893//409 892//409 889//409
f 891//204 893//204 890//204 888//204
f 898//410 899//410 897//410 896//410
f 897//411 901//411 900//411 896//411
f 900//412 902//412 898//412 896//412
f 893//413 899//413 898//413 892//413
f 897//414 899//414 893//414 891//414
f 894//208 895//208 891//208 888//208
f 903//415 904//415 901//415 897//415
f 895//416 903//416 897//416 891//416
f 907//323 908//323 906//323 905//323
f 911//323 912//323 910//323 909//323
f 915//323 916//323 914//323 913//323
f 919//323 920//323 918//323 917//323
f 913//323 914//323 908//323 907//323
f 917//323 918//323 912//323 911//323
f 908//323 911//323 909//323 906//323
f 916//323 919//323 917//323 914//323
f 914//323 917//323 911//323 908//323
f 923//80 924//80 922//80 921//80
f 927//80 928//80 926//80 925//80
f 933//326 934//326 932//326 931//326
f 932//327 934//327 930//327 929//327
f 941//326 942//326 940//326 939//326
f 940//327 942//327 938//327 937//327
f 935//329 936//329 924//329 923//329
f 943//329 944//329 928//329 927//329
f 939//326 940//326 934//326 933//326
f 934//327 940//327 937//327 930//327
f 924//80 927//80 925//80 922//80
f 930//331 936//331 935//331 929//331
f 938//331 944//331 943//331 937//331
f 937//331 943//331 936//331 930//331
f 936//329 943//329 927//329 924//329
f 947//417 948//417 946//417 945//417
f 946//418 950//418 949//418 945//418
f 949//419 951//419 947//419 945//419
f 954//420 955//420 953//420 952//420
f 953//421 957//421 956//421 952//421
f 959//422 961//422 960//422 958//422
f 963//423 965//423 964//423 962//423
f 950//424 959//424 958//424 949//424
f 957//425 963//425 962//425 956//425
f 948//426 954//426 952//426 946//426
f 952//418 956//418 950//418 946//418
f 962//427 964//427 961//427 959//427
f 956//428 962//428 959//428 950//428
f 967//418 969//418 968//418 966//418
f 973//429 975//429 974//429 972//429
f 969//430 973//430 972//430 968//430
f 970//431 971//431 969//431 967//431
f 971//432 976//432 973//432 969//432
f 921//80 922//80 866//80 865//80
f 925//80 926//80 870//80 869//80
f 922//80 925//80 869//80 866//80
f 882//433 948//433 947//433 881//433
f 887//434 955//434 954//434 886//434
f 953//435 955//435 887//435 885//435
f 886//436 954//436 948//436 882//436
f 901//437 967//437 966//437 900//437
f 904//438 970//438 967//438 901//438
f 960//439 961//439 916//439 915//439
f 964//440 965//440 920//440 919//440
f 961//441 964//441 919//441 916//441
f 862//225 895//225 894//225 860//225
f 870//442 904//442 903//442 868//442
f 868//443 903//443 895//443 862//443
f 974//444 975//444 942//444 941//444
f 942//445 975//445 973//445 938//445
f 928//446 971//446 970//446 926//446
f 973//447 976//447 944//447 938//447
f 944//448 976//448 971//448 928//448
f 889//449 892//449 878//449 876//449
f 887//450 902//450 900//450 885//450
f 898//451 902//451 887//451 884//451
f 892//452 898//452 884//452 878//452
f 912//356 933//356 931//356 910//356
f 920//356 941//356 939//356 918//356
f 918//356 939//356 933//356 912//356
f 966//453 968//453 957//453 953//453
f 972//454 974//454 965//454 963//454
f 968//455 972//455 963//455 957//455
f 965//456 974//456 941//456 920//456
f 900//457 966//457 953//457 885//457
f 926//458 970//458 904//458 870//458
f 85//2 86//2 490//2 489//2
f 89//32 493//32 494//32 90//32
f 85//33 489//33 493//33 89//33
f 101//32 505//32 506//32 102//32
f 105//32 509//32 510//32 106//32
f 102//32 506//32 509//32 105//32
f 117//22 118//22 522//22 521//22
f 121//22 122//22 526//22 525//22
f 118//22 121//22 525//22 522//22
f 90//32 494//32 505//32 101//32
f 86//22 117//22 521//22 490//22
f 206//459 611//459 612//459 207//459
f 210//97 615//97 616//97 211//97
f 207//97 612//97 615//97 210//97
f 224//97 628//97 629//97 225//97
f 629//97 630//97 226//97 225//97
f 226//101 630//101 634//101 228//101
f 645//80 646//80 240//80 239//80
f 649//80 650//80 244//80 243//80
f 646//80 649//80 243//80 240//80
f 211//97 616//97 628//97 224//97
f 634//118 645//118 239//118 228//118
f 329//22 330//22 734//22 733//22
f 333//22 334//22 738//22 737//22
f 330//22 333//22 737//22 734//22
f 345//133 346//133 750//133 749//133
f 350//152 754//152 753//152 349//152
f 349//153 753//153 750//153 346//153
f 362//152 766//152 765//152 361//152
f 366//152 770//152 769//152 365//152
f 365//152 769//152 766//152 362//152
f 361//152 765//152 754//152 350//152
f 334//22 345//22 749//22 738//22
f 855//80 856//80 450//80 449//80
f 859//80 860//80 454//80 453//80
f 856//80 859//80 453//80 450//80
f 467//460 872//460 871//460 466//460
f 471//204 876//204 875//204 470//204
f 470//204 875//204 872//204 467//204
f 486//204 890//204 889//204 485//204
f 888//204 890//204 486//204 484//204
f 488//208 894//208 888//208 484//208
f 485//204 889//204 876//204 471//204
f 860//225 894//225 488//225 454//225
f 52//22 257//22 259//22 54//22
f 45//21 46//21 248//21 247//21
f 42//24 45//24 247//24 245//24
f 42//23 245//23 257//23 52//23
f 112//22 319//22 321//22 114//22
f 120//22 327//22 329//22 122//22
f 114//22 321//22 327//22 120//22
f 69//21 70//21 268//21 267//21
f 66//28 265//28 268//28 70//28
f 73//29 74//29 272//29 271//29
f 66//31 73//31 271//31 265//31
f 46//21 69//21 267//21 248//21
f 54//22 259//22 319//22 112//22
f 526//22 733//22 735//22 528//22
f 534//22 741//22 743//22 536//22
f 528//22 735//22 741//22 534//22
f 576//22 781//22 783//22 578//22
f 791//262 792//262 590//262 589//262
f 789//264 791//264 589//264 586//264
f 578//263 783//263 789//263 586//263
f 801//262 802//262 604//262 603//262
f 604//268 802//268 805//268 606//268
f 807//269 808//269 610//269 609//269
f 805//271 807//271 609//271 606//271
f 792//262 801//262 603//262 590//262
f 536//22 743//22 781//22 576//22
f 165//75 166//75 368//75 367//75
f 169//75 170//75 372//75 371//75
f 166//75 169//75 371//75 368//75
f 181//78 182//78 384//78 383//78
f 184//79 387//79 384//79 182//79
f 194//80 401//80 399//80 192//80
f 184//84 186//84 389//84 387//84
f 192//82 399//82 389//82 186//82
f 236//80 441//80 439//80 234//80
f 244//80 449//80 447//80 242//80
f 242//80 447//80 441//80 236//80
f 170//124 181//124 383//124 372//124
f 234//80 439//80 401//80 194//80
f 905//323 906//323 704//323 703//323
f 909//323 910//323 708//323 707//323
f 906//323 909//323 707//323 704//323
f 652//80 857//80 855//80 650//80
f 660//80 865//80 863//80 658//80
f 658//80 863//80 857//80 652//80
f 931//326 932//326 730//326 729//326
f 730//327 932//327 929//327 726//327
f 716//80 923//80 921//80 714//80
f 929//331 935//331 732//331 726//331
f 732//329 935//329 923//329 716//329
f 910//356 931//356 729//356 708//356
f 714//80 921//80 865//80 660//80
f 21//461 23//461 125//461 123//461
f 30//462 131//462 132//462 32//462
f 30//463 34//463 134//463 131//463
f 23//464 32//464 132//464 125//464
f 62//73 155//73 157//73 64//73
f 72//75 163//75 165//75 74//75
f 64//75 157//75 163//75 72//75
f 96//465 98//465 197//465 195//465
f 104//466 106//466 206//466 204//466
f 98//467 104//467 204//467 197//467
f 21//109 123//109 155//109 62//109
f 34//468 96//468 195//468 134//468
f 272//75 367//75 369//75 274//75
f 282//75 375//75 377//75 284//75
f 274//75 369//75 375//75 282//75
f 407//469 409//469 307//469 305//469
f 314//470 415//470 417//470 316//470
f 417//471 420//471 318//471 316//471
f 409//472 415//472 314//472 307//472
f 455//473 457//473 358//473 356//473
f 464//474 466//474 366//474 364//474
f 457//475 464//475 364//475 358//475
f 284//216 377//216 407//216 305//216
f 420//476 455//476 356//476 318//476
f 510//477 512//477 613//477 611//477
f 518//478 520//478 621//478 619//478
f 512//479 518//479 619//479 613//479
f 561//480 666//480 665//480 559//480
f 557//481 559//481 665//481 661//481
f 568//482 570//482 676//482 674//482
f 561//483 568//483 674//483 666//483
f 600//321 695//321 693//321 598//321
f 610//323 703//323 701//323 608//323
f 608//323 701//323 695//323 600//323
f 598//338 693//338 676//338 570//338
f 520//484 557//484 661//484 621//484
f 871//485 873//485 772//485 770//485
f 879//486 881//486 780//486 778//486
f 873//487 879//487 778//487 772//487
f 810//323 907//323 905//323 808//323
f 820//323 915//323 913//323 818//323
f 818//323 913//323 907//323 810//323
f 845//488 951//488 949//488 843//488
f 947//489 951//489 845//489 841//489
f 958//490 960//490 854//490 852//490
f 949//491 958//491 852//491 843//491
f 854//439 960//439 915//439 820//439
f 881//492 947//492 841//492 780//492
f 74//75 165//75 367//75 272//75
f 808//323 905//323 703//323 610//323
f 106//493 510//493 611//493 206//493
f 466//494 871//494 770//494 366//494
f 122//22 329//22 733//22 526//22
f 650//80 855//80 449//80 244//80
